<svg xmlns="http://www.w3.org/2000/svg" width="112.924" height="93.543" viewBox="0 0 112.924 93.543">
  <g id="logo" transform="translate(-286.882 -966.601)">
    <g id="Group_75" data-name="Group 75" transform="translate(298.88 966.601)">
      <path id="Path_32" data-name="Path 32" d="M536.172,972.239a2.96,2.96,0,0,1,2.757-.6,40.946,40.946,0,0,1,14.74,7.736,48.437,48.437,0,0,1,9.216,9.149c.429.592.81,1.218,1.206,1.833a1.731,1.731,0,0,1,.125.742,46.863,46.863,0,0,0-12.342-11.964C547.145,975.921,542.18,973.117,536.172,972.239Z" transform="translate(-483.697 -970.244)" fill="#996a4d"/>
      <path id="Path_33" data-name="Path 33" d="M348.973,1019.393a61.086,61.086,0,0,0-12.249,19.5,9.46,9.46,0,0,1,.8-4.5,70.075,70.075,0,0,1,4.552-8.659,2.885,2.885,0,0,1,2.222-1.663c.344-.013.409-.4.468-.7h0q1.2-1.366,2.408-2.731c-.039-.041-.075-.085-.114-.129-.235.106-.473.215-.869.4C346.863,1019.7,348.2,1020.1,348.973,1019.393Z" transform="translate(-335.813 -1005.74)" fill="#996a4d"/>
      <path id="Path_34" data-name="Path 34" d="M367.823,1034.793l-.028.028a.267.267,0,0,1,.026-.028Z" transform="translate(-358.866 -1017.157)" fill="#996a4d"/>
      <path id="Path_35" data-name="Path 35" d="M489.491,1309.094c-1.965,1.463-4.8,2.117-7.2,2.5a44.877,44.877,0,0,1-15.667-.16,5.442,5.442,0,0,1-2.424-.786l-.013.015a52.535,52.535,0,0,0,8.7.827c5.2-.151,10.624-.534,15.607-2.2a6.7,6.7,0,0,1,1.013-.178Z" transform="translate(-430.327 -1220.516)" fill="#996a4d"/>
      <path id="Path_36" data-name="Path 36" d="M415.425,973.436c-7.15,1.672-13.72,5.056-20.006,9.27C400.812,977.312,407.766,974.4,415.425,973.436Z" transform="translate(-379.346 -971.668)" fill="#996a4d"/>
      <path id="Path_37" data-name="Path 37" d="M398.733,1284.684a27.739,27.739,0,0,1-9.533-4.469,10.059,10.059,0,0,1-2.463-2.319,3.012,3.012,0,0,1,2.066.636c3.059,2.229,6.091,4.5,9.662,5.885.106.041.171.186.256.283Z" transform="translate(-372.909 -1197.381)" fill="#996a4d"/>
      <path id="Path_38" data-name="Path 38" d="M591.17,1250.557c1.088-1.322,2.789-1.778,4.04-2.913,2.54-2.3,4.979-4.149,7.046-6.971.191-.261,4.578-6.111,5.175-6.043-1.536,3.028-8.19,11-11.01,12.984a17.294,17.294,0,0,1-5.265,2.926Z" transform="translate(-524.46 -1165.311)" fill="#996a4d"/>
      <path id="Path_39" data-name="Path 39" d="M491.172,968.927c-.16.027-.441.016-.462.085-.179.577.536.15.6.6a55.331,55.331,0,0,0-13.548-.15c.565-.474,1.225-.318,1.839-.375a36.553,36.553,0,0,1,8.349-.268c.445.059,1.24.671,1.544-.4a11.652,11.652,0,0,1,1.684.244Z" transform="translate(-440.396 -967.936)" fill="#996a4d"/>
      <path id="Path_40" data-name="Path 40" d="M580.873,1296.214a15.614,15.614,0,0,1-3.441,2.207c-.055-.108-.111-.474-.166-.582,1.2-.542,2.4-.566,3.607-1.108Z" transform="translate(-514.163 -1210.968)" fill="#996a4d"/>
      <path id="Path_41" data-name="Path 41" d="M438.17,975.418a5.628,5.628,0,0,1,3.591-1.31l-.012-.014a7.556,7.556,0,0,1-3.595,1.308Z" transform="translate(-411.029 -972.156)" fill="#996a4d"/>
      <path id="Path_42" data-name="Path 42" d="M494.943,966.908h-3.357l-.01-.084,3.352-.223Z" transform="translate(-450.634 -966.601)" fill="#996a4d"/>
      <path id="Path_43" data-name="Path 43" d="M452.067,971.928a9.849,9.849,0,0,1,3.231-.775,7.747,7.747,0,0,1-3.243.761Z" transform="translate(-421.335 -969.976)" fill="#996a4d"/>
      <path id="Path_44" data-name="Path 44" d="M433.069,1304.181a5.5,5.5,0,0,1,2.581,1.038l.014-.016a3.255,3.255,0,0,1-2.581-1.038Z" transform="translate(-407.259 -1216.862)" fill="#996a4d"/>
      <path id="Path_45" data-name="Path 45" d="M379.142,1270.165c.691.19.9.8,1.2,1.322-.176-.193-.408-.331-.6-.517A7.716,7.716,0,0,1,379.142,1270.165Z" transform="translate(-367.279 -1191.656)" fill="#996a4d"/>
      <path id="Path_46" data-name="Path 46" d="M456.787,1312.868a3.42,3.42,0,0,1-2.584-.778l-.014.017a9.3,9.3,0,0,1,2.585.776Z" transform="translate(-422.917 -1222.738)" fill="#996a4d"/>
      <path id="Path_47" data-name="Path 47" d="M567.188,1305.466c.367-.616,1.043-.432,1.575-.618a1.8,1.8,0,0,1-1.588.6Z" transform="translate(-506.681 -1217.368)" fill="#996a4d"/>
      <path id="Path_48" data-name="Path 48" d="M443.049,1308.194c.444.073.924.055,1.274.512-.355.29-1.088-.291-1.26-.528Z" transform="translate(-414.658 -1219.837)" fill="#996a4d"/>
      <path id="Path_49" data-name="Path 49" d="M435.164,979.15a1.172,1.172,0,0,1-1.043.623,1.292,1.292,0,0,1,1.058-.606Z" transform="translate(-408.039 -975.904)" fill="#996a4d"/>
      <path id="Path_50" data-name="Path 50" d="M386.814,1010.194l-.305.182c-.055-.067-.072-.161-.049-.183a.74.74,0,0,1,.292-.212C386.814,1010.063,386.789,1010.108,386.814,1010.194Z" transform="translate(-372.697 -998.762)" fill="#996a4d"/>
      <path id="Path_51" data-name="Path 51" d="M390.5,1011.188c.094.063.12.189.18.229-.082.073-.135.194-.3.193-.035,0-.1-.085-.161-.127C390.294,1011.4,390.433,1011.266,390.5,1011.188Z" transform="translate(-375.494 -999.657)" fill="#996a4d"/>
      <path id="Path_52" data-name="Path 52" d="M366.823,1033.814c-.15.005-.318.036-.339-.189-.005-.049.1-.155.147-.153C366.857,1033.494,366.826,1033.662,366.823,1033.814Z" transform="translate(-357.895 -1016.178)" fill="#996a4d"/>
      <path id="Path_53" data-name="Path 53" d="M367.823,1034.792l-.028.028v-.028Z" transform="translate(-358.866 -1017.156)" fill="#996a4d"/>
      <path id="Path_54" data-name="Path 54" d="M562.048,1307.684a2.151,2.151,0,0,1,1.328-.5l-.013-.017a1.225,1.225,0,0,1-1.329.5Z" transform="translate(-502.87 -1219.091)" fill="#996a4d"/>
      <path id="Path_55" data-name="Path 55" d="M387.876,1015.122a.174.174,0,0,1-.181-.148.908.908,0,0,1,.241-.234c.011-.009.14.108.14.118C388.076,1014.981,387.945,1015.035,387.876,1015.122Z" transform="translate(-373.62 -1002.29)" fill="#996a4d"/>
      <path id="Path_56" data-name="Path 56" d="M451.966,1311.3c-.187.2-.794.161-.794-.26a.789.789,0,0,1,.78.278Z" transform="translate(-420.68 -1221.944)" fill="#996a4d"/>
      <path id="Path_57" data-name="Path 57" d="M365.938,1261.162a40.465,40.465,0,0,1-8.331-6.881,6.974,6.974,0,0,1-1.446-2.542,3.013,3.013,0,0,1,1.881,1.065c2.509,2.835,4.207,5.7,7.4,7.823.094.063.536.5.5.424Z" transform="translate(-350.241 -1177.995)" fill="#996a4d"/>
      <g id="Group_69" data-name="Group 69" transform="translate(22.724 79.275)">
        <path id="Path_58" data-name="Path 58" d="M623.63,1273.124a14.083,14.083,0,0,1-2.371,3.165l-.282-.23c.884-.978,1.872-1.72,2.756-2.7Z" transform="translate(-569.293 -1273.124)" fill="#996a4d"/>
        <path id="Path_59" data-name="Path 59" d="M482.455,1325.69a5.5,5.5,0,0,1,2.769.272l.009-.019a4.282,4.282,0,0,1-2.769-.272Z" transform="translate(-466.596 -1312.046)" fill="#996a4d"/>
        <path id="Path_60" data-name="Path 60" d="M421.135,1308.325c.717-.012,1.09.518,1.523.932Z" transform="translate(-421.135 -1299.221)" fill="#996a4d"/>
        <path id="Path_61" data-name="Path 61" d="M507.659,1327.29a4.76,4.76,0,0,1-2.7-.021l-.009.021a9.31,9.31,0,0,1,2.7.019Z" transform="translate(-483.275 -1313.21)" fill="#996a4d"/>
        <path id="Path_62" data-name="Path 62" d="M612.013,1288.144c.18-.694.879-.707,1.338-1.036a2.679,2.679,0,0,1-1.355,1.023Z" transform="translate(-562.634 -1283.492)" fill="#996a4d"/>
        <path id="Path_63" data-name="Path 63" d="M493.161,1326.7a1.683,1.683,0,0,1,1.367.134c-.526.261-.933-.023-1.358-.153Z" transform="translate(-474.533 -1312.783)" fill="#996a4d"/>
        <path id="Path_64" data-name="Path 64" d="M607.62,1291.925a2.15,2.15,0,0,1,1.136-.849l-.018-.012a2.078,2.078,0,0,1-1.136.85Z" transform="translate(-559.377 -1286.424)" fill="#996a4d"/>
        <path id="Path_65" data-name="Path 65" d="M502.591,1327.132a.84.84,0,0,1-.836-.027.79.79,0,0,1,.827.047Z" transform="translate(-480.905 -1313.073)" fill="#996a4d"/>
      </g>
      <path id="Path_66" data-name="Path 66" d="M648.538,1228.736" transform="translate(-567.002 -1160.941)" fill="#996a4d"/>
      <path id="Path_67" data-name="Path 67" d="M658.622,1211.492a10.067,10.067,0,0,1-1.231,3.758l-.341-.127c.524-1.21,1.145-2.329,1.745-3.44Z" transform="translate(-573.313 -1148.157)" fill="#996a4d"/>
      <path id="Path_68" data-name="Path 68" d="M652.759,1231.446c-.143-.7.479-1.022.747-1.518a2.677,2.677,0,0,1-.769,1.514Z" transform="translate(-570.116 -1161.825)" fill="#996a4d"/>
      <g id="Group_71" data-name="Group 71" transform="translate(80.701 21.421)">
        <g id="Group_70" data-name="Group 70">
          <path id="Path_69" data-name="Path 69" d="M645.308,1049.429c1.914,4.125,3.639,7.78,4.5,12.262a2.9,2.9,0,0,0,.022-1.862,34.431,34.431,0,0,0-2.433-7.733Z" transform="translate(-645.308 -1049.429)" fill="#996a4d"/>
          <path id="Path_70" data-name="Path 70" d="M661.428,1079.059c.265.922.563,1.894.961,3.275.028,0,.036-.089.037-.113-.007,0-.131-.556-.148-.619-.053-.2-.11-.393-.169-.589-.071-.237-.14-.474-.206-.713s-.115-.469-.183-.7a1.562,1.562,0,0,0-.077-.206c-.023-.051-.044-.1-.067-.154S661.5,1079.042,661.428,1079.059Z" transform="translate(-657.259 -1071.395)" fill="#996a4d"/>
        </g>
      </g>
      <path id="Path_71" data-name="Path 71" d="M333.557,1097.064a3.8,3.8,0,0,1,.373-3.535c-.12,1.136-.24,2.273-.373,3.535Z" transform="translate(-333.271 -1060.702)" fill="#996a4d"/>
      <g id="Group_73" data-name="Group 73" transform="translate(19.441 14.735)">
        <g id="Group_72" data-name="Group 72">
          <path id="Path_72" data-name="Path 72" d="M424.947,1029.932a2.274,2.274,0,0,0-1.726-.231,28.315,28.315,0,0,0-8.691,4.834,28.013,28.013,0,0,0-5.192,5.135c-.232.32-.678,1.18-.889,1.51-.045.07.175-.121.2-.022a27.317,27.317,0,0,1,6.969-6.736A26.759,26.759,0,0,1,424.947,1029.932Z" transform="translate(-408.443 -1028.051)" fill="#996a4d"/>
          <path id="Path_73" data-name="Path 73" d="M567.035,1040.917c-.524-.412-1.082-.782-1.62-1.169-.157-.113-.313-.226-.474-.331a6.5,6.5,0,0,0-1.782-.819c-.128-.036-.533.185-.612.07.288.162.857.328,1.137.512q.5.332,1,.678.993.692,1.95,1.439a40.912,40.912,0,0,1,3.661,3.219q.592.588,1.161,1.2c.464.5.9,1.024,1.321,1.562.348.443.666.9.983,1.367.018.028.262.334.287.384,1.8,3.57.3-.126-.065-.783a5.433,5.433,0,0,0-.539-.705c-.664-.833-1.371-1.672-2.1-2.457-.7-.75-1.43-1.463-2.162-2.174-.58-.564-1.147-1.145-1.757-1.674Q567.234,1041.072,567.035,1040.917Z" transform="translate(-522.692 -1034.709)" fill="#996a4d"/>
          <path id="Path_74" data-name="Path 74" d="M511.449,1025.84a34.088,34.088,0,0,1,12.9,3.125A23.249,23.249,0,0,0,511.449,1025.84Z" transform="translate(-484.809 -1025.231)" fill="#996a4d"/>
          <path id="Path_75" data-name="Path 75" d="M475.965,1025.612c.1,0,.274-.024.291.009.143.27-.323.111-.341.336a43.5,43.5,0,0,1,8.378-1.033,2.415,2.415,0,0,0-1.159-.312,28.733,28.733,0,0,0-5.183.46c-.272.061-.5.316-.978-.087-.029-.024-.671.154-1.029.239C475.95,1025.266,475.957,1025.568,475.965,1025.612Z" transform="translate(-458.465 -1024.343)" fill="#996a4d"/>
          <path id="Path_76" data-name="Path 76" d="M526.583,1024.611a4.1,4.1,0,0,0-2.3-.388l.007-.008a5.535,5.535,0,0,0,2.3.386Z" transform="translate(-494.327 -1024.05)" fill="#996a4d"/>
          <path id="Path_77" data-name="Path 77" d="M491.558,1023.856c1.144-.131,1.278-.186,2.078-.238,0-.014.022-.022,0-.042-.721,0-1.331.082-2.087.129A.1.1,0,0,0,491.558,1023.856Z" transform="translate(-470.032 -1023.576)" fill="#996a4d"/>
          <path id="Path_78" data-name="Path 78" d="M518.429,1023.9a7.48,7.48,0,0,0-2.043-.151,5.906,5.906,0,0,0,2.05.143Z" transform="translate(-488.469 -1023.685)" fill="#996a4d"/>
          <path id="Path_79" data-name="Path 79" d="M533.516,1025.918a.77.77,0,0,0,.681.231.87.87,0,0,0-.689-.222Z" transform="translate(-501.163 -1025.313)" fill="#996a4d"/>
          <path id="Path_80" data-name="Path 80" d="M563.742,1038.811l-.125.086a.818.818,0,0,0,.166.085c.02.005.068-.044.1-.069Z" transform="translate(-523.485 -1034.871)" fill="#996a4d"/>
          <path id="Path_81" data-name="Path 81" d="M579.824,1048.579l-.019-.011" transform="translate(-535.486 -1042.104)" fill="#996a4d"/>
        </g>
      </g>
      <g id="Group_74" data-name="Group 74" transform="translate(19.833 64.437)">
        <path id="Path_82" data-name="Path 82" d="M484.04,1254.975a14.663,14.663,0,0,0,5.159.632,36.881,36.881,0,0,0,10.752-1.623,4.019,4.019,0,0,0,1.585-.755l.01.008c-2.072.4-3.852.937-5.875,1.2a40.943,40.943,0,0,1-10.918.3c-.231-.033-.483.252-.721.253Z" transform="translate(-464.874 -1243.537)" fill="#996a4d"/>
        <path id="Path_83" data-name="Path 83" d="M571.964,1227.1a28.317,28.317,0,0,0,6.071-3.994,5.384,5.384,0,0,0,1.486-1.559,2.089,2.089,0,0,0-1.345.366,30.859,30.859,0,0,1-6.045,4.735c-.069.037-.1.135-.147.205Z" transform="translate(-530.065 -1220.05)" fill="#996a4d"/>
        <path id="Path_84" data-name="Path 84" d="M423.621,1230.8c-.876-.713-2.087-.825-3.057-1.4a32.183,32.183,0,0,1-5.635-3.6c-.157-.143-4.568-3.554-4.971-3.448,1.352,1.736,7.619,6.059,9.748,7a33.68,33.68,0,0,0,3.923,1.433Z" transform="translate(-409.958 -1220.644)" fill="#996a4d"/>
        <path id="Path_85" data-name="Path 85" d="M461.789,1254.919c.931.486,2.222.31,3.1.524.027-.073,1.219.794,1.247.721-.878-.211-2.912-.69-3.79-.9Z" transform="translate(-448.384 -1244.789)" fill="#996a4d"/>
        <path id="Path_86" data-name="Path 86" d="M567.194,1243.028a1.588,1.588,0,0,0-1.667.929l-.011-.008a3.127,3.127,0,0,0,1.667-.929Z" transform="translate(-525.285 -1235.967)" fill="#996a4d"/>
        <path id="Path_87" data-name="Path 87" d="M603.312,1215.78c-.739-.181-.871.523-.784,1.1C602.75,1216.568,603.064,1216.123,603.312,1215.78Z" transform="translate(-552.707 -1215.751)" fill="#996a4d"/>
        <path id="Path_88" data-name="Path 88" d="M551.709,1251.033a3.525,3.525,0,0,0,1.695-.766l.012.009a1.878,1.878,0,0,0-1.7.765Z" transform="translate(-515.049 -1241.341)" fill="#996a4d"/>
        <path id="Path_89" data-name="Path 89" d="M477.076,1258.011a1.77,1.77,0,0,0-1.132-.474c.358.171.726.521,1.139.463Z" transform="translate(-458.879 -1246.729)" fill="#996a4d"/>
        <path id="Path_90" data-name="Path 90" d="M563.2,1246.471c-.317-.154-.628-.022-.823.459.406,0,.581-.274.812-.467Z" transform="translate(-522.957 -1238.481)" fill="#996a4d"/>
        <path id="Path_91" data-name="Path 91" d="M481.281,1259.432a1.215,1.215,0,0,0-.959-.168l.008-.012a1.522,1.522,0,0,0,.96.17Z" transform="translate(-462.123 -1247.983)" fill="#996a4d"/>
        <path id="Path_92" data-name="Path 92" d="M558.262,1249.095c.169-.03.635-.088.8-.322-.246-.257-.789.116-.784.331Z" transform="translate(-519.907 -1240.168)" fill="#996a4d"/>
      </g>
    </g>
    <g id="Group_76" data-name="Group 76" transform="translate(319.369 1039.256)">
      <path id="Path_93" data-name="Path 93" d="M414.5,1262l-2.007-1.479,2.462-3.341,1.989,1.465-.326.442-1.265-.932-.719.976,1.089.8-.319.434-1.089-.8-.773,1.049,1.283.945Z" transform="translate(-412.495 -1254.685)" fill="#996a4d"/>
      <path id="Path_94" data-name="Path 94" d="M443.632,1277.948q-.153.347-.652.126l-1.655-.732q-.495-.218-.342-.566l.4-.9.822.364-.342.774,1,.444.329-.744-1.171-1.806a.387.387,0,0,1-.045-.382l.373-.844q.155-.349.65-.13l1.655.732q.5.221.347.565l-.376.849-.822-.364.317-.715-1-.445-.3.686,1.173,1.8a.386.386,0,0,1,.043.387Z" transform="translate(-433.588 -1266.755)" fill="#996a4d"/>
      <path id="Path_95" data-name="Path 95" d="M478.084,1284.493l-.971-.2-.727,3.527-.876-.181.727-3.527-.971-.2.111-.538,2.818.581Z" transform="translate(-459.032 -1274.104)" fill="#996a4d"/>
      <path id="Path_96" data-name="Path 96" d="M492.99,1300.754l-.86-.089.066-.638.86.089Z" transform="translate(-471.534 -1286.449)" fill="#996a4d"/>
      <path id="Path_97" data-name="Path 97" d="M526.392,1286.953a.717.717,0,0,1-.14.457l-1.389,2.182,1.825-.23.068.54-2.893.365-.048-.381,1.71-2.708-.1-.76-1.086.137.1.766-.873.11-.116-.916q-.047-.374.5-.443l1.749-.221q.545-.068.592.3Z" transform="translate(-494.753 -1275.932)" fill="#996a4d"/>
      <path id="Path_98" data-name="Path 98" d="M558.22,1281.123q.125.358-.386.536l-1.77.619q-.5.176-.629-.182l-1.119-3.2q-.126-.361.389-.54l1.759-.615q.511-.179.638.182Zm-.881.145-1.018-2.911-1.12.391,1.018,2.912Z" transform="translate(-517.619 -1269.883)" fill="#996a4d"/>
      <path id="Path_99" data-name="Path 99" d="M586.433,1264.221a.719.719,0,0,1,.059.474l-.373,2.561,1.571-.959.283.464-2.489,1.519-.2-.328.451-3.17-.4-.654-.934.57.4.659-.751.458-.481-.788q-.2-.321.273-.608l1.505-.918q.469-.286.665.036Z" transform="translate(-539.283 -1259.269)" fill="#996a4d"/>
      <path id="Path_100" data-name="Path 100" d="M612.7,1250.591l-.652.6-1.975-2.161-.255.233-.055-.06-.426-1.155.564-.516Z" transform="translate(-558.432 -1247.527)" fill="#996a4d"/>
    </g>
    <g id="Group_77" data-name="Group 77" transform="translate(313.517 973.441)">
      <path id="Path_101" data-name="Path 101" d="M394.363,1045.967q.3.238-.011.619l-1.1,1.366q-.3.374-.6.136l-2.642-2.122q-.3-.239,0-.613l1.1-1.366q.307-.381.6-.142Zm-.625.533-2.4-1.931-.693.863,2.4,1.931Z" transform="translate(-389.869 -1030.639)" fill="#996a4d"/>
      <path id="Path_102" data-name="Path 102" d="M411.864,1027.968l-.538.458-2.678-1.151a1.224,1.224,0,0,1,.234.195l1.5,1.761-.6.509-2.69-3.16.538-.458,2.643,1.111a1.215,1.215,0,0,1-.234-.194l-1.464-1.72.6-.51Z" transform="translate(-402.638 -1016.593)" fill="#996a4d"/>
      <path id="Path_103" data-name="Path 103" d="M432.068,1017.042l-1.826,1.077-2.109-3.574.695-.41,1.828,3.1,1.132-.667Z" transform="translate(-418.237 -1008.681)" fill="#996a4d"/>
      <path id="Path_104" data-name="Path 104" d="M450.928,1007.737l-.745.308-1.588-3.834.745-.309Z" transform="translate(-433.407 -1001.095)" fill="#996a4d"/>
      <path id="Path_105" data-name="Path 105" d="M469.886,1000.221l-.686.171-1.886-2.222a1.218,1.218,0,0,1,.122.279l.559,2.244-.762.19-1-4.027.686-.171,1.874,2.17a1.254,1.254,0,0,1-.123-.278l-.547-2.193.763-.19Z" transform="translate(-446.48 -995.38)" fill="#996a4d"/>
      <path id="Path_106" data-name="Path 106" d="M494.633,997.182l-2.23.18-.334-4.137,2.21-.178.044.547-1.405.113.1,1.208,1.21-.1.043.537-1.21.1.105,1.3,1.426-.115Z" transform="translate(-465.637 -993.047)" fill="#996a4d"/>
      <path id="Path_107" data-name="Path 107" d="M535.363,995.774l-.874-.167-.674,3.538-.789-.151.674-3.538-.874-.167.1-.539,2.537.483Z" transform="translate(-495.854 -994.31)" fill="#996a4d"/>
      <path id="Path_108" data-name="Path 108" d="M554.419,1005.329l-.789-.291-.167-2.117.129-.351.744.274.455-1.234-.954-.352-1.252,3.394-.757-.279,1.437-3.894,2.008.741q.456.168.324.527l-.522,1.416a.322.322,0,0,1-.334.239,2.146,2.146,0,0,1-.506-.144Z" transform="translate(-509.941 -998.558)" fill="#996a4d"/>
      <path id="Path_109" data-name="Path 109" d="M575.256,1016.44l-.7-.385.237-.768-.885-.487-.522.612-.7-.384.005-.009,2.912-3.129.743.409Zm-.306-1.676.558-1.83-1.25,1.45Z" transform="translate(-525.406 -1007.017)" fill="#996a4d"/>
      <path id="Path_110" data-name="Path 110" d="M599.49,1025.063l-3.378,2.633-.632-.5,1.753-3.907.637.5-1.28,2.612-.2.293a2.891,2.891,0,0,1,.236-.267l2.233-1.865Z" transform="translate(-542.304 -1015.471)" fill="#996a4d"/>
      <path id="Path_111" data-name="Path 111" d="M611.664,1044.817l-1.52-1.642,3.046-2.82,1.506,1.627-.4.373-.958-1.035-.889.823.824.89-.395.366-.825-.89-.955.885.972,1.05Z" transform="translate(-553.175 -1028.121)" fill="#996a4d"/>
      <path id="Path_112" data-name="Path 112" d="M625.112,1062.777l-1.185-1.758,3.442-2.32.451.669-2.982,2.01.734,1.089Z" transform="translate(-563.394 -1041.72)" fill="#996a4d"/>
    </g>
    <g id="Group_78" data-name="Group 78" transform="translate(286.882 997.78)">
      <path id="Path_113" data-name="Path 113" d="M384.145,1116.3l-.119.063a2.185,2.185,0,0,1-1.953.317,2.365,2.365,0,0,1-.941-2.455c.419-1.516,1.7-2.687,2.236-4.167a1.031,1.031,0,0,0,.085-.507c-.055-.324-.377-.521-.667-.675-1.46-.775-3.207-1.562-4.694-.839a4.627,4.627,0,0,0-1.563,1.438c-1.266,1.656-2.285,3.57-3.977,4.787a6.749,6.749,0,0,1-3.605,1.256c-1.538.071-1.916-1.457-.814-2.4q1.016-.861,2.03-1.722a5.5,5.5,0,0,0,1.487-1.678c.857-1.793-1.388-2.15-2.915-1.49a4.812,4.812,0,0,0-2.454,2.154,15.066,15.066,0,0,0-.709,2.6,4.076,4.076,0,0,1-1.935,2.189,2.449,2.449,0,0,1-3.044-.379c-.734-1,1.859-2.745,1.508-3.935-.336-1.13-1.95-1.151-3.052-.734s-2.374,1.027-3.375.4a5.325,5.325,0,0,0-.828-.566,1.7,1.7,0,0,0-1.322.186c-2.108,1.029-3.305,3.279-5.082,4.808a.954.954,0,0,1-.445.254c-.352.054-.659-.3-.693-.654a4.006,4.006,0,0,1-.036-1.006,4.579,4.579,0,0,0,0-.8c-.026-.579.067-1.169-.429-1.521a2.145,2.145,0,0,0-2.408.207c-.821.574-2.2,2.343-3.049,1.828a3.272,3.272,0,0,0-4.205.566c-.222.246.016-.028-.313-.494-.634-.9-.892-1.027-1.3-1.021a2.788,2.788,0,0,0-1.536.458,17.482,17.482,0,0,0-4.454,4.234c-.261.305-.535.823-1.04.5-.422-.274-.287-.8-.171-1.2.455-1.523.993-3.026,1.433-4.554.178-.613,1-1.49.331-1.8s-.991.789-1.358,1.4a22.817,22.817,0,0,1-2.591,3.959,10.969,10.969,0,0,1-4.635,3.238c-1.009.313-1.055.124-1.187-.592a2.9,2.9,0,0,1,.026-1.241,11.872,11.872,0,0,1,2.646-5.01c.362-.445,1.076-1.172.657-1.5-.577-.453-1.195.352-1.707.763a21.591,21.591,0,0,1-2.951,2.385c-.572.388-1.308.7-1.909,1.045a42.089,42.089,0,0,1-3.98,2.281c-.367.155-1.51.934-1.929.546-.435-.406.308-1.482.484-1.971a20.943,20.943,0,0,0,1.461-4.4c.059-.478.755-1.939.122-2.144-.608-.194-.667,1.4-.931,1.805a2.691,2.691,0,0,0-.2.479q-1.272,3.107-2.542,6.217c-.745,1.813-1.968,2.431-4.066,3.623-4.81,2.735-8.637,6.353-12.833,10.575-2.505,2.521-4.958,5.7-5.739,9.318a7.28,7.28,0,0,0,.225,3.207,3.482,3.482,0,0,0,1.9,1.924,5.712,5.712,0,0,0,4-.264,12.605,12.605,0,0,0,3.217-2.609c4.635-4.642,8.593-12.157,11.636-18.135a21.045,21.045,0,0,1,6.21-7.831,30.5,30.5,0,0,1,4.135-2.612c.2-.115.9-.338,1.033-.216.227.2-.13.878-.232,1.3a11.652,11.652,0,0,0-.31,1.456,7.619,7.619,0,0,0,.013,1.554,1.737,1.737,0,0,0,.846,1.329c1.169.755,1.686.129,2.563-.37,1.438-.822,2.93-2.214,4.174-3.078-.085.062-.158.481-.181.584a5.731,5.731,0,0,0-.124.815,1.177,1.177,0,0,0,.481,1.247,2.421,2.421,0,0,0,2.452-.279c1.441-.766,2.139-2.922,3.217-3.991.665-.658,1.668-1.479,2.665-1.028a.872.872,0,0,1,.541.856,1.338,1.338,0,0,1-.206.484l-1.184,2a13,13,0,0,0-1.174,2.324,4.359,4.359,0,0,0-.17,2.563c.045.165.145.357.316.355.153,0,.25-.159.318-.3,1.384-2.831,2.456-6.241,4.991-8.256a2.42,2.42,0,0,1,1.929-.264c.406.269.021,1.363-.127,1.743-.347.879-.778,1.728-1.13,2.6-.173.437-.1.6.181,1.275.253.621.975-.057,1.249-.548.8-1.42,1.291-3.251,2.348-4.549.559-.683,1.79-2.459,2.646-2.56,1.19-.14.432,2.483.341,3.194-.178,1.394-.135,2.819,1.267,2.633s2.1-1.66,2.92-2.651a27.215,27.215,0,0,1,2.824-2.979,2.164,2.164,0,0,1,1.239-.512,1.052,1.052,0,0,1,.874,1.169,4.953,4.953,0,0,1-.409,1.469,119.9,119.9,0,0,1-13.228,25.089c-.5.756.344,2.015,1.061,1.4a13.083,13.083,0,0,0,2.608-3.409c1.032-1.888,1.3-2.559,2.048-3.92,1.494-2.712,2.794-5.388,4.087-8.2.768-1.673,1.427-3.452,2.16-5.081,1.6-3.556,2.922-7,6.1-8.568.36-.178.854-.3,1.12,0a.839.839,0,0,1,.166.556c0,1.154-1.571,2.954-1.323,4.079.2.918,1.841,1.065,2.807.952a5.107,5.107,0,0,0,1.457-.381,4.929,4.929,0,0,0,1.1-.515c.317-.245.769-.768,1.2-.745.481.026.81.843,1.2,1.119,2.315,1.63,5.112-.014,6.792-1.74,1.171-1.2,2.132-2.6,3.327-3.778a4.586,4.586,0,0,1,1.534-1.089,2.552,2.552,0,0,1,2.512.359c.128.1.115.059.151.215a1.256,1.256,0,0,1,0,.56,11.073,11.073,0,0,1-1.007,2.543,6.9,6.9,0,0,0-.715,1.984,2.335,2.335,0,0,0,.541,1.969,2.736,2.736,0,0,0,2.127.622,10.547,10.547,0,0,0,4.4-1.533c4.725-2.624,8.768-6.295,13.115-9.506A146.048,146.048,0,0,1,384.145,1116.3Zm-14.167-7.227c.288-.011.736.17.728.461a2.131,2.131,0,0,1-.534.978,5.7,5.7,0,0,1-2.206,1.582c-.377.165-.693.065-.722-.24C367.07,1110.023,369.307,1109.028,369.977,1109.075Zm-70.313,25.387c-1.431,1.65-2.735,3.409-4.244,4.99-.712.746-4.389,4.561-5.345,3.392a4.544,4.544,0,0,1-.523-2.735,7.4,7.4,0,0,1,1.2-3.509,14.109,14.109,0,0,1,.978-1.333,89.308,89.308,0,0,1,12.236-12.005c1.076-.895,2.276-1.645,3.678-2.648A45.145,45.145,0,0,1,299.664,1134.462Z" transform="translate(-286.882 -1101.698)" fill="#996a4d"/>
      <path id="Path_114" data-name="Path 114" d="M389.035,1088.266c-.287.734-.434,1.386-1.254,1.417a.966.966,0,0,1-.934-1.164c.047-.608.168-1.409,1.04-1.36C388.53,1087.193,388.841,1087.547,389.035,1088.266Z" transform="translate(-360.99 -1087.157)" fill="#996a4d"/>
    </g>
  </g>
</svg>
