<svg xmlns="http://www.w3.org/2000/svg" viewBox="0 0 100.37 82.41"><defs><style>.cls-1,.cls-10,.cls-6,.cls-7,.cls-9{fill:#3c8c09;}.cls-2{font-size:4.47px;}.cls-2,.cls-3{fill:#0ec12b;font-family:AgencyFB-Bold, Agency FB;font-weight:700;}.cls-3{font-size:3.64px;}.cls-4{fill:#23b709;}.cls-5{fill:#f98800;}.cls-6,.cls-7,.cls-9{font-size:7.67px;}.cls-6,.cls-9{font-family:AdobeMingStd-Light-B5pc-H, Adobe Ming Std;}.cls-10,.cls-7{font-family:BaskOldFace, Baskerville Old Face;}.cls-8{font-size:13.2px;letter-spacing:0em;}.cls-9{letter-spacing:0em;}.cls-10{font-size:17.76px;}.cls-11{fill:#fff;}.cls-12{opacity:0.2;}</style></defs><title>資產 14</title><g id="圖層_2" data-name="圖層 2"><g id="圖層_1-2" data-name="圖層 1"><path class="cls-1" d="M52,.92A2.44,2.44,0,0,1,54.2.15,33.71,33.71,0,0,1,67,5a39.87,39.87,0,0,1,8.46,6.54c.41.44.79.91,1.17,1.38a1.43,1.43,0,0,1,.18.59A38.59,38.59,0,0,0,65.54,5C61.35,2.82,57,1,52,.92Z"/><path class="cls-1" d="M21.07,14.43a50.3,50.3,0,0,0-8,17.18,7.79,7.79,0,0,1,.2-3.76,57.71,57.71,0,0,1,2.84-7.54,2.38,2.38,0,0,1,1.65-1.58c.28,0,.29-.36.31-.62h0l1.69-2.48-.11-.09-.67.41C19.37,14.89,20.5,15.09,21.07,14.43Z"/><path class="cls-1" d="M18,18.11l0,0,0,0Z"/><path class="cls-1" d="M66.26,71a13.86,13.86,0,0,1-5.63,2.77,37,37,0,0,1-12.82,1.46,4.48,4.48,0,0,1-2.06-.4h0a43.27,43.27,0,0,0,7.19-.21,44.75,44.75,0,0,0,12.53-3.38,5.52,5.52,0,0,1,.81-.25Z"/><path class="cls-1" d="M38.59,2.4A50.4,50.4,0,0,0,23.18,12,27.6,27.6,0,0,1,38.59,2.4Z"/><path class="cls-1" d="M38.89,73.33a22.84,22.84,0,0,1-8.24-2.68A8.28,8.28,0,0,1,28.39,69a2.48,2.48,0,0,1,1.75.31,35.88,35.88,0,0,0,8.49,3.83c.09,0,.16.13.24.21Z"/><path class="cls-1" d="M72.09,67.5c.75-1.19,2.1-1.74,3-2.79a38.55,38.55,0,0,0,5.05-6.41c.13-.23,3.12-5.46,3.62-5.46-.95,2.63-5.58,9.82-7.68,11.73a14.25,14.25,0,0,1-4,2.92Z"/><path class="cls-1" d="M50.52.27c-.13,0-.36.06-.37.12-.09.49.45.07.55.43A45.56,45.56,0,0,0,39.62,2.07c.41-.44,1-.38,1.46-.49A30.1,30.1,0,0,1,47.88.51C48.25.51,49,.93,49.1,0a9.6,9.6,0,0,1,1.4,0Z"/><path class="cls-1" d="M72.09,67.5a12.85,12.85,0,0,1-2.59,2.15c-.06-.08-.14-.38-.19-.46.93-.56,1.91-.71,2.83-1.27Z"/><path class="cls-1" d="M31.44,4.52a4.63,4.63,0,0,1,2.8-1.43h0a6.22,6.22,0,0,1-2.8,1.43Z"/><path class="cls-1" d="M45.17.37,42.42.71l0-.07L45.12.12Z"/><path class="cls-1" d="M34.24,3.09a8.1,8.1,0,0,1,2.56-1,6.38,6.38,0,0,1-2.57,1Z"/><path class="cls-1" d="M38.88,73.34a4.53,4.53,0,0,1,2.21.59h0a2.68,2.68,0,0,1-2.21-.59Z"/><path class="cls-1" d="M26.59,67.56c.58.08.82.56,1.11,1-.16-.14-.37-.23-.54-.36S26.8,67.75,26.59,67.56Z"/><path class="cls-1" d="M45.75,74.82a2.82,2.82,0,0,1-2.19-.37v0a7.66,7.66,0,0,1,2.19.37Z"/><path class="cls-1" d="M67.31,70.46c.24-.54.81-.46,1.22-.66a1.48,1.48,0,0,1-1.24.65Z"/><path class="cls-1" d="M41.09,73.93a1.39,1.39,0,0,1,1.09.29c-.26.27-.92-.13-1.08-.3Z"/><path class="cls-1" d="M31.42,4.51a1,1,0,0,1-.79.61,1.06,1.06,0,0,1,.8-.6Z"/><path class="cls-1" d="M21.62,12.52l-.23.18c-.05,0-.07-.12-.06-.14a.61.61,0,0,1,.22-.2C21.61,12.41,21.6,12.45,21.62,12.52Z"/><path class="cls-1" d="M22.36,12.51c.08,0,.12.14.17.17s-.09.17-.22.19-.09-.06-.14-.09Z"/><path class="cls-1" d="M18,18.12c-.12,0-.26.06-.3-.12s.07-.14.1-.14S18,18,18,18.12Z"/><polygon class="cls-1" points="18.04 18.11 18.02 18.14 18.01 18.12 18.04 18.11"/><path class="cls-1" d="M66.27,71a1.77,1.77,0,0,1,1-.54h0a1,1,0,0,1-1,.54Z"/><path class="cls-1" d="M21.88,13.65a.14.14,0,0,1-.16-.1.75.75,0,0,1,.17-.22.42.42,0,0,1,.13.08C22,13.52,21.93,13.57,21.88,13.65Z"/><path class="cls-1" d="M43.56,74.45c-.13.19-.63.21-.68-.13a.65.65,0,0,1,.67.15Z"/><path class="cls-1" d="M30.19,71a33.32,33.32,0,0,1-7.51-4.78,5.74,5.74,0,0,1-1.44-1.93,2.48,2.48,0,0,1,1.64.68c2.34,2.06,4,4.23,6.84,5.64.08,0,.49.35.45.3Z"/><path class="cls-1" d="M79.94,61.57a11.61,11.61,0,0,1-1.62,2.83l-.25-.16c.62-.89,1.36-1.6,2-2.48Z"/><path class="cls-1" d="M49.88,76.63a4.53,4.53,0,0,1,2.29-.06v0a3.53,3.53,0,0,1-2.29.06Z"/><path class="cls-1" d="M36.46,74.52c.58-.08.94.31,1.34.61Z"/><path class="cls-1" d="M56.89,76.12a3.92,3.92,0,0,1-2.21.26v0a7.66,7.66,0,0,1,2.21-.26Z"/><path class="cls-1" d="M76.36,65.88c.08-.59.65-.67,1-1a2.21,2.21,0,0,1-1,1Z"/><path class="cls-1" d="M52.17,76.57a1.39,1.39,0,0,1,1.13,0c-.4.27-.76.08-1.12,0Z"/><path class="cls-1" d="M75.52,66.69c.23-.32.43-.68.84-.81h0a1.71,1.71,0,0,1-.84.81Z"/><path class="cls-1" d="M54.69,76.37a.69.69,0,0,1-.69.06.65.65,0,0,1,.68,0Z"/><path class="cls-1" d="M82.43,51.74"/><path class="cls-1" d="M85.06,47.71a8.29,8.29,0,0,1-.62,3.2l-.29-.07c.31-1,.7-2,1.08-3Z"/><path class="cls-1" d="M83.52,53.12c-.19-.56.29-.88.46-1.32a2.21,2.21,0,0,1-.47,1.32Z"/><path class="cls-1" d="M77,13.93A42.37,42.37,0,0,1,82,23.49,2.39,2.39,0,0,0,81.8,22,28.35,28.35,0,0,0,79,15.9Z"/><path class="cls-1" d="M81.23,19.77c.31.73.65,1.49,1.12,2.58,0,0,0-.08,0-.1s-.16-.44-.18-.49L82,21.3l-.24-.56c-.08-.18-.14-.37-.22-.55L81.44,20l-.07-.12S81.29,19.75,81.23,19.77Z"/><path class="cls-1" d="M12.85,34.3a3.13,3.13,0,0,1-.05-2.93l.05,2.93Z"/><text class="cls-2" transform="matrix(1.38, 0.45, -0.31, 0.95, 37.73, 68.96)">J</text><text class="cls-2" transform="translate(40.55 69.84) rotate(14.11) scale(1.45 1)"> </text><text class="cls-2" transform="translate(41.93 70.18) rotate(11.65) scale(1.45 1)"> </text><text class="cls-2" transform="matrix(1.43, 0.23, -0.16, 0.99, 43.35, 70.47)"> </text><text class="cls-2" transform="translate(44.8 70.73) rotate(5.16) scale(1.45 1)">U</text><text class="cls-2" transform="translate(48.04 70.99) rotate(1.12) scale(1.45 1)"> </text><text class="cls-2" transform="matrix(1.45, -0.03, 0.02, 1, 49.47, 71.01)"> </text><text class="cls-2" transform="translate(50.91 70.98) rotate(-3.72) scale(1.45 1)"> </text><text class="cls-2" transform="translate(52.41 70.92) rotate(-8.14) scale(1.45 1)">M</text><text class="cls-2" transform="matrix(1.41, -0.31, 0.22, 0.98, 56.11, 70.34)"> </text><text class="cls-2" transform="matrix(1.4, -0.37, 0.26, 0.97, 57.51, 70.03)"> </text><text class="cls-2" transform="translate(58.9 69.65) rotate(-17.33) scale(1.45 1)"> </text><text class="cls-2" transform="translate(60.33 69.23) rotate(-21.12) scale(1.45 1)">P</text><text class="cls-2" transform="translate(63.16 68.11) rotate(-24.84) scale(1.45 1)"> </text><text class="cls-2" transform="matrix(1.29, -0.66, 0.46, 0.89, 64.45, 67.51)"> </text><text class="cls-2" transform="translate(65.72 66.85) rotate(-29.54) scale(1.45 1)"> </text><text class="cls-2" transform="translate(67.02 66.13) rotate(-32.95) scale(1.45 1)">E</text><text class="cls-2" transform="matrix(1.18, -0.84, 0.58, 0.81, 69.27, 64.64)"> </text><text class="cls-2" transform="translate(70.4 63.81) rotate(-38.56) scale(1.45 1)"> </text><text class="cls-2" transform="translate(71.52 62.92) rotate(-40.87) scale(1.45 1)"> </text><text class="cls-2" transform="translate(72.67 61.95) rotate(-44.67) scale(1.45 1)">R</text><text class="cls-2" transform="matrix(0.96, -1.08, 0.75, 0.66, 74.87, 59.73)"> </text><text class="cls-3" transform="matrix(0.67, -1.38, 0.9, 0.43, 22.8, 24.78)">O</text><text class="cls-3" transform="matrix(0.76, -1.33, 0.87, 0.5, 23.96, 22.44)"> </text><text class="cls-3" transform="matrix(0.82, -1.3, 0.85, 0.53, 24.53, 21.45)"> </text><text class="cls-3" transform="matrix(0.91, -1.24, 0.81, 0.59, 25.1, 20.5)">N</text><text class="cls-3" transform="matrix(0.99, -1.17, 0.76, 0.65, 26.67, 18.39)"> </text><text class="cls-3" transform="translate(27.4 17.52) rotate(-47.41) scale(1.53 1)"> </text><text class="cls-3" transform="translate(28.14 16.7) rotate(-44.19) scale(1.53 1)">L</text><text class="cls-3" transform="matrix(1.16, -1, 0.66, 0.75, 29.59, 15.31)"> </text><text class="cls-3" transform="translate(30.45 14.56) rotate(-38.68) scale(1.53 1)"> </text><text class="cls-3" transform="matrix(1.23, -0.91, 0.59, 0.81, 31.33, 13.85)">I</text><text class="cls-3" transform="translate(32.26 13.17) rotate(-34.07) scale(1.53 1)"> </text><text class="cls-3" transform="translate(33.18 12.55) rotate(-31.87) scale(1.53 1)"> </text><text class="cls-3" transform="matrix(1.35, -0.72, 0.47, 0.88, 34.11, 11.94)">N</text><text class="cls-3" transform="translate(36.46 10.71) rotate(-24.45) scale(1.53 1)"> </text><text class="cls-3" transform="matrix(1.42, -0.58, 0.38, 0.93, 37.48, 10.25)"> </text><text class="cls-3" transform="translate(38.5 9.81) rotate(-19.06) scale(1.53 1)">E</text><text class="cls-3" transform="translate(40.57 9.11) rotate(-15.86) scale(1.53 1)"> </text><text class="cls-3" transform="matrix(1.49, -0.36, 0.24, 0.97, 41.65, 8.8)"> </text><text class="cls-3" transform="matrix(1.5, -0.31, 0.2, 0.98, 42.74, 8.54)"> </text><text class="cls-3" transform="matrix(1.51, -0.25, 0.16, 0.99, 43.84, 8.31)"> </text><text class="cls-3" transform="translate(44.96 8.13) rotate(-7.21) scale(1.53 1)"> </text><text class="cls-3" transform="translate(46.05 7.97) rotate(-4.14) scale(1.53 1)">T</text><text class="cls-3" transform="translate(48.19 7.83) rotate(-1.06) scale(1.53 1)"> </text><text class="cls-3" transform="translate(49.33 7.81) rotate(1.08) scale(1.53 1)"> </text><text class="cls-3" transform="translate(50.44 7.81) rotate(4.47) scale(1.53 1)">R</text><text class="cls-3" transform="translate(52.97 8.03) rotate(7.82) scale(1.53 1)"> </text><text class="cls-3" transform="translate(54.09 8.18) rotate(9.93) scale(1.53 1)"> </text><text class="cls-3" transform="translate(55.19 8.35) rotate(13.27) scale(1.53 1)">A</text><text class="cls-3" transform="translate(57.59 8.94) rotate(16.65) scale(1.53 1)"> </text><text class="cls-3" transform="translate(58.69 9.27) rotate(18.82) scale(1.53 1)"> </text><text class="cls-3" transform="matrix(1.42, 0.58, -0.38, 0.93, 59.74, 9.6)">V</text><text class="cls-3" transform="translate(62 10.54) rotate(25.62) scale(1.53 1)"> </text><text class="cls-3" transform="translate(63.01 11.03) rotate(27.78) scale(1.53 1)"> </text><text class="cls-3" transform="matrix(1.31, 0.79, -0.51, 0.86, 64, 11.53)">E</text><text class="cls-3" transform="matrix(1.27, 0.86, -0.56, 0.83, 65.86, 12.66)"> </text><text class="cls-3" transform="translate(66.79 13.29) rotate(36.33) scale(1.53 1)"> </text><text class="cls-3" transform="matrix(1.18, 0.97, -0.64, 0.77, 67.71, 13.96)">L</text><path class="cls-1" d="M36.92,14.78a1.87,1.87,0,0,0-1.42.16,23.32,23.32,0,0,0-6,5.6,23.06,23.06,0,0,0-3.12,5.14c-.12.3-.31,1.08-.41,1.38,0,.06.12-.13.15-.06a22.49,22.49,0,0,1,4.22-6.77A22,22,0,0,1,36.92,14.78Z"/><path class="cls-1" d="M60,12.67c-.5-.22-1-.41-1.53-.61L58,11.89a5.36,5.36,0,0,0-1.59-.3c-.11,0-.39.25-.47.18.26.07.75.09,1,.18l.94.34q.93.35,1.85.76a33.7,33.7,0,0,1,3.57,1.84q.59.35,1.17.73c.47.3.92.64,1.37,1s.71.58,1.06.9c0,0,.28.21.31.25,2.15,2.49.22-.16-.21-.61a4.47,4.47,0,0,0-.57-.46c-.7-.53-1.43-1.06-2.17-1.54s-1.43-.88-2.16-1.3c-.58-.34-1.14-.69-1.74-1Z"/><path class="cls-1" d="M44.76,11.74a28.07,28.07,0,0,1,10.93-.08A19.14,19.14,0,0,0,44.76,11.74Z"/><path class="cls-1" d="M37.59,14.09c.08,0,.21-.07.23-.05.17.19-.24.15-.21.34a35.81,35.81,0,0,1,6.49-2.5,2,2,0,0,0-1,0,23.65,23.65,0,0,0-4,1.4c-.21.1-.34.35-.8.13,0,0-.51.26-.77.4C37.51,13.82,37.58,14.06,37.59,14.09Z"/><path class="cls-1" d="M49.24,10.58a3.38,3.38,0,0,0-1.91.15h0a4.56,4.56,0,0,0,1.91-.15Z"/><path class="cls-1" d="M40.61,12.5c.89-.33,1-.4,1.61-.6,0,0,0,0,0,0-.58.14-1,.33-1.64.52A.08.08,0,0,0,40.61,12.5Z"/><path class="cls-1" d="M47.33,10.76a6.17,6.17,0,0,0-1.66.29,4.86,4.86,0,0,0,1.67-.3Z"/><path class="cls-1" d="M49.32,10.59a.63.63,0,0,0,.59,0,.72.72,0,0,0-.59,0Z"/><path class="cls-1" d="M56.3,11.68l-.08.09a.66.66,0,0,0,.15,0s0,0,.07-.08Z"/><path class="cls-1" d="M60.07,12.89h0"/><path class="cls-1" d="M53,63.82a12.22,12.22,0,0,0,4.27-.68,30.71,30.71,0,0,0,8.23-3.77,3.35,3.35,0,0,0,1.09-1h0c-1.56.8-2.87,1.64-4.43,2.31a34.1,34.1,0,0,1-8.67,2.75c-.19,0-.33.31-.52.37Z"/><path class="cls-1" d="M70.17,55.08a23.58,23.58,0,0,0,3.94-4.59,4.48,4.48,0,0,0,.83-1.59c-.46.18-.79.27-1,.6a25.7,25.7,0,0,1-3.75,5.18s0,.13-.07.2Z"/><path class="cls-4" d="M48.29,64.06a19.4,19.4,0,0,0-2.77-.42,26.79,26.79,0,0,1-5.34-1.58c-.16-.08-4.47-1.79-4.77-1.61,1.48,1.08,7.49,3.1,9.41,3.36a28,28,0,0,0,3.47.24Z"/><path class="cls-4" d="M48.08,64.1a10.61,10.61,0,0,0,2.6-.29c0-.07,1.16.35,1.16.29l-3.24.15Z"/><path class="cls-1" d="M70.18,55.08a1.32,1.32,0,0,0-1.12,1.13h0a2.6,2.6,0,0,0,1.12-1.13Z"/><path class="cls-5" d="M75.52,47.46c-.63,0-.58.62-.37,1.06Z"/><path class="cls-1" d="M66.59,58.4a2.94,2.94,0,0,0,1.18-1h0a1.56,1.56,0,0,0-1.18,1Z"/><path class="cls-4" d="M52.18,63.92a1.47,1.47,0,0,0-1-.12c.33.05.7.25,1,.11Z"/><path class="cls-1" d="M69.06,56.21c-.29,0-.51.13-.55.56.33-.09.4-.35.54-.56Z"/><path class="cls-4" d="M53,63.83a1,1,0,0,0-.81.09h0a1.27,1.27,0,0,0,.81-.09Z"/><path class="cls-1" d="M67.77,57.4c.13-.06.49-.22.56-.44-.26-.15-.6.27-.55.45Z"/><path class="cls-1" d="M3.33,58.12,1.68,47.69,0,37.14l0-.32.32,0c7.88-1.22,15.78-2.33,23.67-3.5S39.8,31.05,47.71,30l11.86-1.57,11.85-1.64q11.84-1.7,23.67-3.5l.27,0,0,.27,3.15,21,.06.43-.43.06L74.41,48.46,50.62,51.8,26.91,55ZM3.39,58l23.8-3.63,23.68-3.58,23.59-3.42,23.61-3.28-.37.49-2.83-21,.31.23q-11.86,1.57-23.71,3.26L59.63,28.84,47.8,30.65Q36,32.48,24.12,34.15c-7.9,1.08-15.8,2.22-23.71,3.26L.69,37,2.05,47.47Z"/><text class="cls-6" transform="translate(10.13 51.36) rotate(-7.94) scale(0.94 1)">★</text><text class="cls-7" transform="translate(17.25 50.36) rotate(-7.94) scale(0.9 1)"><tspan xml:space="preserve">  </tspan><tspan class="cls-8" x="3.83" y="0">A F R I C A</tspan></text><text class="cls-7" transform="translate(77.84 41.91) rotate(-7.94) scale(1.17 1)"><tspan xml:space="preserve">  </tspan></text><text class="cls-9" transform="translate(82.29 41.29) rotate(-7.94) scale(0.94 1)">★</text><text class="cls-10" transform="translate(89.41 40.29) rotate(-7.94) scale(1.17 1)"><tspan xml:space="preserve">  </tspan></text><path class="cls-4" d="M3.86,57A3.86,3.86,0,0,1,6,56.93v0a3,3,0,0,1-2.1.06Z"/><path class="cls-4" d="M10.25,56.49a3.28,3.28,0,0,1-2,.25v0a6.4,6.4,0,0,1,2-.25Z"/><path class="cls-4" d="M6,56.93a1.19,1.19,0,0,1,1,0c-.35.26-.7.07-1,0Z"/><path class="cls-4" d="M8.25,56.74a.58.58,0,0,1-.62.06.56.56,0,0,1,.62,0Z"/><path class="cls-11" d="M26.24,30.33a4.53,4.53,0,0,1,2.27-.28v0a3.53,3.53,0,0,1-2.27.28Z"/><path class="cls-11" d="M33.17,29.15a3.92,3.92,0,0,1-2.17.47v0a7.66,7.66,0,0,1,2.17-.47Z"/><path class="cls-11" d="M28.52,30.05a1.39,1.39,0,0,1,1.12-.14c-.38.3-.75.15-1.12.12Z"/><path class="cls-11" d="M31,29.62a.69.69,0,0,1-.68.13.65.65,0,0,1,.67-.11Z"/><path class="cls-11" d="M48.47,50.27a6.05,6.05,0,0,1,3.08.28v0a4.72,4.72,0,0,1-3.08-.28Z"/><path class="cls-11" d="M57.95,50.67a5.23,5.23,0,0,1-3,0v0a10.22,10.22,0,0,1,3,0Z"/><path class="cls-11" d="M51.55,50.55a1.85,1.85,0,0,1,1.52.14c-.58.3-1,0-1.51-.16Z"/><path class="cls-11" d="M54.95,50.68a.92.92,0,0,1-.93,0,.87.87,0,0,1,.92,0Z"/><path class="cls-11" d="M.63,44.73a8.9,8.9,0,0,1,3.21,4.89l0,0A7,7,0,0,1,.68,44.7Z"/><path class="cls-11" d="M11.18,58.82c-1.48-1-2.94-2-3.53-4.18l0,0c1.25,1.28,2.73,2.25,3.54,4.17Z"/><path class="cls-11" d="M3.84,49.62c.68.55,1.54.88,1.58,2.41-1.13-.17-1.19-1.48-1.54-2.45Z"/><path class="cls-11" d="M7.64,54.65c-.42-.21-1-.22-1.06-1.34.74.11.92.68,1,1.38Z"/><path class="cls-11" d="M84.25,48.29a8.6,8.6,0,0,1,4.67-1.11v0a6.72,6.72,0,0,1-4.67,1.11Z"/><path class="cls-11" d="M98.31,44.17A7.26,7.26,0,0,1,94,45.68v0a14.14,14.14,0,0,1,4.36-1.51Z"/><path class="cls-11" d="M88.92,47.18c.68-.35,1.29-.88,2.3-.55-.64.76-1.52.49-2.31.51Z"/><path class="cls-11" d="M94,45.68a1.3,1.3,0,0,1-1.37.43A1.24,1.24,0,0,1,94,45.72Z"/><path class="cls-11" d="M8.33,51.41c-.64.17-1.54-.46-2.37-.93"/><path class="cls-11" d="M35,32.22a11.82,11.82,0,0,1-7.05.67V33A9.25,9.25,0,0,1,35,32.28Z"/><path class="cls-11" d="M13.69,35.46c2-1,4-1.92,6.61-1.37V34c-2.15.59-4.17,1.56-6.61,1.37Z"/><path class="cls-11" d="M27.91,32.89c-1,.39-2,1.08-3.48.33,1-1,2.3-.43,3.48-.27Z"/><path class="cls-11" d="M20.29,34.09a1.76,1.76,0,0,1,2.07-.36,1.71,1.71,0,0,1-2.07.3Z"/><path class="cls-4" d="M92.85,25a3.86,3.86,0,0,1-2.1,0v0a3,3,0,0,1,2.1,0Z"/><path class="cls-4" d="M86.45,25.32a3.28,3.28,0,0,1,2-.2v0a6.4,6.4,0,0,1-2,.2Z"/><path class="cls-4" d="M90.75,25a1.19,1.19,0,0,1-1,0c.36-.25.7-.06,1,0Z"/><path class="cls-4" d="M88.46,25.12a.58.58,0,0,1,.63,0,.56.56,0,0,1-.62,0Z"/><path class="cls-11" d="M47.3,51.65a11.82,11.82,0,0,1-7.05.67v.06a9.25,9.25,0,0,1,7.06-.67Z"/><path class="cls-11" d="M26,54.89c2-1,4-1.92,6.61-1.37v-.06C30.47,54,28.45,55,26,54.83Z"/><path class="cls-11" d="M40.24,52.32c-1,.39-2,1.08-3.48.33,1-1,2.3-.43,3.48-.27Z"/><path class="cls-11" d="M32.62,53.52a1.76,1.76,0,0,1,2.07-.36,1.71,1.71,0,0,1-2.07.3Z"/><path class="cls-11" d="M98.17,24.42a11.82,11.82,0,0,1-7.08.24v.06a9.25,9.25,0,0,1,7.08-.24Z"/><path class="cls-11" d="M76.73,26.37c2.07-.85,4.14-1.67,6.68-1v-.06c-2.19.45-4.25,1.3-6.68,1Z"/><path class="cls-11" d="M91.08,24.67c-1.05.33-2,1-3.5.12,1.06-1,2.32-.29,3.49-.06Z"/><path class="cls-11" d="M83.41,25.41a1.76,1.76,0,0,1,2.09-.24,1.71,1.71,0,0,1-2.08.17Z"/><path class="cls-11" d="M71.7,49.58a7,7,0,0,1,4.38-1v0a5.51,5.51,0,0,1-4.38,1Z"/><path class="cls-11" d="M84.73,45.85a5.61,5.61,0,0,1-4,1.39v0c1.28-.55,2.41-1.33,4-1.4Z"/><path class="cls-11" d="M76.08,48.61c.59-.34,1.09-.86,2.16-.48-.47.76-1.4.45-2.17.44Z"/><path class="cls-11" d="M80.74,47.25c-.28.25-.46.63-1.26.39.31-.5.76-.47,1.27-.35Z"/><path class="cls-11" d="M91.4,46.53a16.22,16.22,0,0,1,2.51-2.43v0a12.51,12.51,0,0,1-2.51,2.43Z"/><path class="cls-11" d="M99.06,38.82a15.18,15.18,0,0,1-2.41,2.51v0a30.12,30.12,0,0,1,2.41-2.51Z"/><path class="cls-11" d="M93.91,44.1a4.86,4.86,0,0,1,1.24-1.2,4.59,4.59,0,0,1-1.23,1.18Z"/><path class="cls-11" d="M96.65,41.33a2.56,2.56,0,0,1-.75.76,2.26,2.26,0,0,1,.74-.74Z"/><g class="cls-12"><path class="cls-11" d="M46.67,23.65a1.51,1.51,0,0,1-.45.2c-.77.06-1.55,0-2.31.15a14.72,14.72,0,0,0-1.63.59,2,2,0,0,1-1.68-.18c-.54.62-1.09,1.24-1.62,1.88a.58.58,0,0,0-.1.41,1.06,1.06,0,0,1-.83,1.19c-.62.2-.83.73-1.15,1.16a8.56,8.56,0,0,0-.84,1.51.81.81,0,0,0-.08.59,2.75,2.75,0,0,1,0,2.41,2,2,0,0,0,.41,1.5,3.92,3.92,0,0,1,1,1.19,2.92,2.92,0,0,0,1,1.14c.16.12.34.22.49.35a1.34,1.34,0,0,0,1.58.3c.4-.18,1,0,1.43,0a12.26,12.26,0,0,0,1.4-.36,5.4,5.4,0,0,1,1.16-.25.76.76,0,0,1,.61.36c.2.6.64.51,1.07.46s.83.13.84.66a2.67,2.67,0,0,1-.15,1.22.84.84,0,0,0,.27,1.14,4.36,4.36,0,0,1,1.26,2.12,9.09,9.09,0,0,1,.27,1.57,1,1,0,0,1-.13.46,6.9,6.9,0,0,0-.58,1.43,2.25,2.25,0,0,0,.2,1.35,7.24,7.24,0,0,1,1,3,2.68,2.68,0,0,0,.41,1.06,4.25,4.25,0,0,1,.92,2.38c0,.52.46.74,1,.63.73-.14,1.48-.16,2.19-.33a2.33,2.33,0,0,0,1.1-.64c.6-.65,1.12-1.38,1.65-2.09a.62.62,0,0,0,.14-.45c-.15-.55.14-.75.58-.93a.9.9,0,0,0,.48-1.2c0-.07-.08-.12-.1-.19a.94.94,0,0,1,.39-1.32c.39-.22.74-.53,1.13-.76a1.22,1.22,0,0,0,.75-1.47c0-.25,0-.51-.07-.76a8.05,8.05,0,0,0-.25-.83,3.1,3.1,0,0,1-.11-.3,3.7,3.7,0,0,1-.23-1.4A3.51,3.51,0,0,1,60,41.08c.72-.79,1.55-1.48,2.32-2.23a9.47,9.47,0,0,0,1.93-3.26V56.52H35.72V23.65Zm16.88,21.8A10.12,10.12,0,0,1,62,46.83c-.57.31-.76.48-.63,1.17a1.34,1.34,0,0,1,0,.88,1.63,1.63,0,0,0-.21,1.43c.09.39.22.73.65.76a.79.79,0,0,0,.9-.61c.25-.93.52-1.86.79-2.79.1-.36.23-.71.34-1.07l.14,0Z"/><path class="cls-1" d="M46.67,23.65H47c.52.43.56.9.08,1.68l1.32.48c.24.08.61.07.71.23.37.59,1,.55,1.54.85.31.18.56.07.61-.34.08-.67.6-.89,1.21-.59.45.22,1,.31,1.42.51.92.39,1.86-.08,2.8.11.43.09.63.23.65.6a3.86,3.86,0,0,1-.13.86h-.15l-.56-.76a.87.87,0,0,0,.14.54c.54,1,1.11,1.95,1.59,3A10.27,10.27,0,0,0,59,32.62a4.92,4.92,0,0,0,1.22,1.46.39.39,0,0,1,.15.15c.14.34.66.4.56,1-.07.38.79.51,1.52.3.58-.17,1.19-.25,1.78-.37v.44a9.47,9.47,0,0,1-1.93,3.26c-.76.75-1.6,1.44-2.32,2.23a3.51,3.51,0,0,0-.82,1.51,3.7,3.7,0,0,0,.23,1.4,3.1,3.1,0,0,0,.11.3,8.05,8.05,0,0,1,.25.83c0,.25,0,.51.07.76A1.22,1.22,0,0,1,59,47.35c-.39.23-.73.54-1.13.76a.94.94,0,0,0-.39,1.32c0,.07.07.12.1.19a.9.9,0,0,1-.48,1.2c-.44.17-.73.38-.58.93a.62.62,0,0,1-.14.45c-.54.71-1.05,1.44-1.65,2.09a2.33,2.33,0,0,1-1.1.64c-.71.18-1.46.19-2.19.33-.55.1-1-.12-1-.63a4.25,4.25,0,0,0-.92-2.38,2.68,2.68,0,0,1-.41-1.06,7.24,7.24,0,0,0-1-3,2.25,2.25,0,0,1-.2-1.35,6.9,6.9,0,0,1,.58-1.43,1,1,0,0,0,.13-.46,9.09,9.09,0,0,0-.27-1.57,4.36,4.36,0,0,0-1.26-2.12.84.84,0,0,1-.27-1.14A2.67,2.67,0,0,0,47,38.88c0-.53-.3-.73-.84-.66s-.87.15-1.07-.46a.76.76,0,0,0-.61-.36,5.4,5.4,0,0,0-1.16.25,12.26,12.26,0,0,1-1.4.36c-.47.06-1-.14-1.43,0a1.34,1.34,0,0,1-1.58-.3c-.16-.12-.33-.22-.49-.35a2.92,2.92,0,0,1-1-1.14,3.92,3.92,0,0,0-1-1.19,2,2,0,0,1-.41-1.5,2.75,2.75,0,0,0,0-2.41.81.81,0,0,1,.08-.59,8.56,8.56,0,0,1,.84-1.51c.33-.42.53-1,1.15-1.16a1.06,1.06,0,0,0,.83-1.19.58.58,0,0,1,.1-.41c.53-.63,1.08-1.25,1.62-1.88a2,2,0,0,0,1.68.18A14.72,14.72,0,0,1,43.91,24c.76-.13,1.54-.09,2.31-.15A1.51,1.51,0,0,0,46.67,23.65Z"/><path class="cls-11" d="M64.2,35.15c-.59.12-1.2.2-1.78.37-.73.21-1.59.08-1.52-.3.1-.58-.42-.64-.56-1a.39.39,0,0,0-.15-.15A4.92,4.92,0,0,1,59,32.62a10.27,10.27,0,0,1-.74-1.85c-.48-1-1.06-2-1.59-3a.87.87,0,0,1-.14-.54l.56.76h.15a3.86,3.86,0,0,0,.13-.86c0-.36-.22-.51-.65-.6-.94-.19-1.88.28-2.8-.11-.46-.2-1-.29-1.42-.51-.61-.3-1.13-.08-1.21.59,0,.41-.3.52-.61.34-.5-.3-1.17-.26-1.54-.85-.1-.16-.47-.14-.71-.23l-1.32-.48c.48-.78.44-1.25-.08-1.68H64.2Z"/><path class="cls-1" d="M63.55,45.45l.35,1.17-.14,0c-.11.36-.24.71-.34,1.07-.27.93-.54,1.86-.79,2.79a.79.79,0,0,1-.9.61c-.43,0-.56-.36-.65-.76a1.63,1.63,0,0,1,.21-1.43,1.34,1.34,0,0,0,0-.88c-.12-.69.07-.86.63-1.17A10.12,10.12,0,0,0,63.55,45.45Z"/></g></g></g></svg>