<svg xmlns="http://www.w3.org/2000/svg" width="20.404" height="26.78" viewBox="0 0 20.404 26.78">
  <path id="Icon_ionic-md-unlock" data-name="Icon ionic-md-unlock" d="M24.6,12.161H23.328V9.61a6.376,6.376,0,1,0-12.752,0H13a3.953,3.953,0,1,1,7.907,0h0v2.55H9.3a2.558,2.558,0,0,0-2.55,2.55V27.464a2.558,2.558,0,0,0,2.55,2.55H24.6a2.558,2.558,0,0,0,2.55-2.55V14.711A2.558,2.558,0,0,0,24.6,12.161Zm-7.651,11.6a2.55,2.55,0,1,1,2.55-2.55A2.558,2.558,0,0,1,16.952,23.765Z" transform="translate(-6.75 -3.234)" fill="rgba(0,0,0,0.8)"/>
</svg>
