<svg xmlns="http://www.w3.org/2000/svg" width="24" height="24.266" viewBox="0 0 24 24.266">
  <path id="Icon_awesome-arrow-alt-circle-right" data-name="Icon awesome-arrow-alt-circle-right" d="M12.562.563a12.065,12.065,0,0,1,12,12.133,12.065,12.065,0,0,1-12,12.133A12.065,12.065,0,0,1,.562,12.7,12.065,12.065,0,0,1,12.562.563ZM6.95,14.848h5.613v3.469a.58.58,0,0,0,.992.416l5.531-5.621a.586.586,0,0,0,0-.827L13.554,6.658a.58.58,0,0,0-.992.416v3.469H6.95a.586.586,0,0,0-.581.587v3.131A.586.586,0,0,0,6.95,14.848Z" transform="translate(24.562 24.829) rotate(180)" fill="#fff"/>
</svg>
