<svg xmlns="http://www.w3.org/2000/svg" width="16.2" height="16.549" viewBox="0 0 16.2 16.549">
  <path id="Icon_material-date-range" data-name="Icon material-date-range" d="M9.9,10.447H8.1V12.1H9.9Zm3.6,0H11.7V12.1h1.8Zm3.6,0H15.3V12.1h1.8Zm1.8-5.792H18V3H16.2V4.655H9V3H7.2V4.655H6.3A1.723,1.723,0,0,0,4.509,6.31L4.5,17.894a1.731,1.731,0,0,0,1.8,1.655H18.9a1.737,1.737,0,0,0,1.8-1.655V6.31A1.737,1.737,0,0,0,18.9,4.655Zm0,13.239H6.3v-9.1H18.9Z" transform="translate(-4.5 -3)" fill="rgba(0,0,0,0.8)"/>
</svg>
