<svg xmlns="http://www.w3.org/2000/svg" width="56.473" height="36.701" viewBox="0 0 56.473 36.701">
  <g id="Icon_ionic-ios-people" data-name="Icon ionic-ios-people" transform="translate(-2.215 -7.748)">
    <path id="Path_8" data-name="Path 8" d="M37.447,35.985c-1.409-.5-3.71-.528-4.729-.918a6.681,6.681,0,0,1-2.189-1.019c-.365-.44-.365-3.585-.365-3.585A5.791,5.791,0,0,0,31.41,28.7a19.57,19.57,0,0,0,.6-3.459s.83.352,1.157-1.308c.277-1.434.8-2.188.667-3.245s-.729-.8-.729-.8.729-1.069.729-4.7c0-3.748-2.83-7.433-8.125-7.433s-8.138,3.7-8.138,7.433c0,3.635.717,4.7.717,4.7s-.591-.252-.729.8.377,1.811.667,3.245c.327,1.673,1.157,1.308,1.157,1.308a19.759,19.759,0,0,0,.6,3.459,5.791,5.791,0,0,0,1.245,1.761s0,3.144-.365,3.585a6.43,6.43,0,0,1-2.188,1.006c-1.006.39-3.308.44-4.729.943A8.877,8.877,0,0,0,8.191,44.45h35A8.859,8.859,0,0,0,37.447,35.985Z" transform="translate(4.714 0)" fill="#484141"/>
    <path id="Path_9" data-name="Path 9" d="M15.862,27.131s3.006-.1,4.2-1.17c-1.95-2.956-.893-6.4-1.3-9.622s-2.226-5.132-5.874-5.132h-.05c-3.522,0-5.421,1.912-5.823,5.132s.717,7.043-1.283,9.622c1.195,1.082,4.213,1.044,4.213,1.044h0a6.37,6.37,0,0,1-.126,2.113,3.176,3.176,0,0,1-1.509.692,29.183,29.183,0,0,0-3.258.906,5.3,5.3,0,0,0-2.843,4.679h10.1c.277-1.006,2.176-2.8,4.025-3.748a8.446,8.446,0,0,1,3.107-.654s.478-.755-1.094-1.044a10.722,10.722,0,0,1-2.415-.843C15.7,28.829,15.862,27.131,15.862,27.131Z" transform="translate(0 2.729)" fill="#484141"/>
    <path id="Path_10" data-name="Path 10" d="M28.009,27.131s-3.006-.1-4.2-1.17c1.95-2.956.893-6.4,1.3-9.622s2.226-5.132,5.874-5.132h.05c3.522,0,5.421,1.912,5.823,5.132s-.717,7.043,1.283,9.622c-1.195,1.082-4.213,1.044-4.213,1.044h0a6.37,6.37,0,0,0,.126,2.113,3.176,3.176,0,0,0,1.509.692,29.183,29.183,0,0,1,3.258.906,5.3,5.3,0,0,1,2.843,4.679h-10.1c-.277-1.006-2.176-2.8-4.025-3.748a8.446,8.446,0,0,0-3.107-.654s-.478-.755,1.094-1.044a10.722,10.722,0,0,0,2.415-.843C28.172,28.829,28.009,27.131,28.009,27.131Z" transform="translate(17.033 2.729)" fill="#484141"/>
  </g>
</svg>
