<?xml version="1.0" encoding="iso-8859-1"?>
<!-- Generator: Adobe Illustrator 19.0.0, SVG Export Plug-In . SVG Version: 6.00 Build 0)  -->
<svg version="1.1" id="Layer_1" xmlns="http://www.w3.org/2000/svg" xmlns:xlink="http://www.w3.org/1999/xlink" x="0px" y="0px"
	 viewBox="0 0 503.588 503.588" style="enable-background:new 0 0 503.588 503.588;" xml:space="preserve">
<g>
	<g>
		<path d="M499.312,375.728h-23.256v-260.76c0-17.776-14.72-30.384-32.492-30.384H59.556c-17.784,0-32.016,12.604-32.016,30.384
			v260.756H3.8c-2.172,0-3.8-0.204-3.8,1.968v3.664c0,19.724,15.904,37.648,35.62,37.648h431.86
			c19.728,0,36.108-17.924,36.108-37.648v-3.664C503.592,375.524,501.484,375.728,499.312,375.728z M246.008,96.676
			c2.912-2.952,8.18-2.952,11.092,0c1.492,1.452,2.32,3.5,2.32,5.548c0,2.084-0.828,4.092-2.32,5.584
			c-1.46,1.456-3.464,2.28-5.544,2.28s-4.092-0.824-5.548-2.28c-1.5-1.496-2.324-3.504-2.324-5.584
			C243.688,100.136,244.512,98.128,246.008,96.676z M452.444,359.988h-401.3V119.996h401.3V359.988z"/>
	</g>
</g>
<g>
</g>
<g>
</g>
<g>
</g>
<g>
</g>
<g>
</g>
<g>
</g>
<g>
</g>
<g>
</g>
<g>
</g>
<g>
</g>
<g>
</g>
<g>
</g>
<g>
</g>
<g>
</g>
<g>
</g>
</svg>
