<svg xmlns="http://www.w3.org/2000/svg" width="60" height="60" viewBox="0 0 60 60">
  <g id="Group_293" data-name="Group 293" transform="translate(-1016 -414)">
    <circle id="Ellipse_46" data-name="Ellipse 46" cx="30" cy="30" r="30" transform="translate(1016 414)" fill="#fff"/>
    <path id="Icon_awesome-hand-pointer" data-name="Icon awesome-hand-pointer" d="M19.743,10.576v4.231a1.762,1.762,0,0,1-.047.4L18.286,21.2a1.763,1.763,0,0,1-1.716,1.359H7.4a1.763,1.763,0,0,1-1.426-.726L.337,14.081a1.763,1.763,0,1,1,2.851-2.074l1.395,1.918V1.763a1.763,1.763,0,0,1,3.525,0v8.814h.353V8.814a1.763,1.763,0,1,1,3.525,0v1.763h.353V9.519a1.763,1.763,0,0,1,3.525,0v1.058h.353a1.763,1.763,0,1,1,3.525,0ZM8.461,14.1H8.109v4.231h.353Zm3.878,0h-.353v4.231h.353Zm3.878,0h-.353v4.231h.353Z" transform="translate(1036.129 432.719)" fill="rgba(0,0,0,0.8)"/>
  </g>
</svg>
