<svg xmlns="http://www.w3.org/2000/svg" width="36" height="33.6" viewBox="0 0 36 33.6">
  <g id="Group_287" data-name="Group 287" transform="translate(-1191.28 -1092.2)">
    <path id="Icon_ionic-ios-heart" data-name="Icon ionic-ios-heart" d="M21.615,3.938h-.06a6.827,6.827,0,0,0-5.7,3.12,6.827,6.827,0,0,0-5.7-3.12H10.1a6.784,6.784,0,0,0-6.72,6.78A14.605,14.605,0,0,0,6.243,18.68a50.26,50.26,0,0,0,9.612,9.258,50.26,50.26,0,0,0,9.612-9.258,14.605,14.605,0,0,0,2.868-7.962A6.784,6.784,0,0,0,21.615,3.938Z" transform="translate(1193.425 1093.063)" fill="#996a4d"/>
    <rect id="Rectangle_306" data-name="Rectangle 306" width="36" height="33.6" transform="translate(1191.28 1092.2)" fill="none"/>
  </g>
</svg>
