<svg xmlns="http://www.w3.org/2000/svg" width="69.638" height="55.931" viewBox="0 0 69.638 55.931">
  <g id="Group_289" data-name="Group 289" transform="translate(-83 -1120.035)">
    <path id="Icon_ionic-md-tv" data-name="Icon ionic-md-tv" d="M65.529,5.344H8.573A6.287,6.287,0,0,0,2.25,11.558V48.845A6.287,6.287,0,0,0,8.573,55.06H24.389v6.215H49.7V55.06H65.514a6.26,6.26,0,0,0,6.292-6.215l.031-37.287A6.263,6.263,0,0,0,65.529,5.344Zm0,43.5H8.573V11.558H65.514V48.845Z" transform="translate(80.801 1114.691)" fill="#484141"/>
    <path id="Icon_awesome-wifi" data-name="Icon awesome-wifi" d="M28.756,7.815a21.059,21.059,0,0,0-28.526,0A.72.72,0,0,0,.215,8.856l1.551,1.539a.735.735,0,0,0,1.015.017,17.377,17.377,0,0,1,23.427,0,.736.736,0,0,0,1.015-.017l1.551-1.539a.72.72,0,0,0-.016-1.041ZM14.493,16.743a2.9,2.9,0,1,0,2.9,2.9A2.9,2.9,0,0,0,14.493,16.743Zm9.179-3.786a13.9,13.9,0,0,0-18.358,0,.716.716,0,0,0-.026,1.049l1.56,1.539a.739.739,0,0,0,1,.036,10.2,10.2,0,0,1,13.293,0,.739.739,0,0,0,1-.036l1.56-1.539A.716.716,0,0,0,23.673,12.957Z" transform="translate(98.938 1135.53) rotate(45)" fill="#484141"/>
  </g>
</svg>
