<svg xmlns="http://www.w3.org/2000/svg" width="30" height="24" viewBox="0 0 30 24">
  <path id="Icon_awesome-door-open" data-name="Icon awesome-door-open" d="M29.25,21H25.5V5.318A2.287,2.287,0,0,0,23.25,3H18V6h4.5V24h6.75a.75.75,0,0,0,.75-.75v-1.5A.75.75,0,0,0,29.25,21ZM14.636.047l-9,2.332A1.545,1.545,0,0,0,4.5,3.887V21H.75a.75.75,0,0,0-.75.75v1.5A.75.75,0,0,0,.75,24H16.5V1.555A1.513,1.513,0,0,0,14.636.047ZM12.375,13.5c-.621,0-1.125-.672-1.125-1.5s.5-1.5,1.125-1.5S13.5,11.172,13.5,12,13,13.5,12.375,13.5Z" transform="translate(0 0)" fill="#996a4d"/>
</svg>
