<svg xmlns="http://www.w3.org/2000/svg" width="25" height="25" viewBox="0 0 25 25">
  <g id="Group_291" data-name="Group 291" transform="translate(-13431 -1300)">
    <g id="Group_290" data-name="Group 290">
      <g id="Ellipse_81" data-name="Ellipse 81" transform="translate(13431 1300)" fill="#fff" stroke="#707070" stroke-width="1">
        <circle cx="12.5" cy="12.5" r="12.5" stroke="none"/>
        <circle cx="12.5" cy="12.5" r="12" fill="none"/>
      </g>
    </g>
    <path id="Icon_awesome-plus" data-name="Icon awesome-plus" d="M14.434,8.357h-5v-5a1.11,1.11,0,0,0-1.11-1.11H7.217a1.11,1.11,0,0,0-1.11,1.11v5h-5A1.11,1.11,0,0,0,0,9.467v1.11a1.11,1.11,0,0,0,1.11,1.11h5v5a1.11,1.11,0,0,0,1.11,1.11h1.11a1.11,1.11,0,0,0,1.11-1.11v-5h5a1.11,1.11,0,0,0,1.11-1.11V9.467A1.11,1.11,0,0,0,14.434,8.357Z" transform="translate(13435.721 1302.485)"/>
  </g>
</svg>
