<svg xmlns="http://www.w3.org/2000/svg" width="29.818" height="13.667" viewBox="0 0 29.818 13.667">
  <path id="Icon_ionic-ios-recording" data-name="Icon ionic-ios-recording" d="M24.122,10.266h-.006A6.839,6.839,0,0,0,19.3,21.944H12.773A6.839,6.839,0,0,0,7.958,10.266H7.946a6.833,6.833,0,0,0,0,13.667H24.122a6.833,6.833,0,0,0,0-13.667ZM28.955,17.1a4.839,4.839,0,1,1-4.839-4.858A4.853,4.853,0,0,1,28.955,17.1Zm-21,4.858A4.858,4.858,0,1,1,12.791,17.1,4.857,4.857,0,0,1,7.952,21.957Z" transform="translate(-1.125 -10.266)" fill="#996a4d"/>
</svg>
