<svg xmlns="http://www.w3.org/2000/svg" viewBox="0 0 135 123.35"><defs><style>.cls-1,.cls-4,.cls-5{fill:#773305;}.cls-2{fill:#b76f3d;}.cls-3{fill:#8c5226;}.cls-4{font-size:5.57px;}.cls-4,.cls-5{font-family:AgencyFB-Bold, Agency FB;font-weight:700;}.cls-5{font-size:5.29px;}</style></defs><title>資產 11</title><g id="圖層_2" data-name="圖層 2"><g id="圖層_1-2" data-name="圖層 1"><path class="cls-1" d="M116.28,59.61l-.14.07a2.61,2.61,0,0,1-2.33.38,2.83,2.83,0,0,1-1.12-2.94c.5-1.81,2-3.21,2.67-5a1.23,1.23,0,0,0,.1-.61c-.06-.39-.45-.62-.8-.81-1.75-.93-3.83-1.87-5.61-1a5.53,5.53,0,0,0-1.87,1.72c-1.51,2-2.73,4.27-4.75,5.72a8.07,8.07,0,0,1-4.31,1.5c-1.84.09-2.29-1.74-1-2.86l2.43-2.06a6.58,6.58,0,0,0,1.78-2c1-2.14-1.66-2.57-3.48-1.78a5.75,5.75,0,0,0-2.93,2.58,18,18,0,0,0-.85,3.11,4.87,4.87,0,0,1-2.31,2.62c-1,.55-2.79.71-3.64-.45s2.22-3.28,1.8-4.7-2.33-1.38-3.65-.88-2.84,1.23-4,.48a6.37,6.37,0,0,0-1-.68,2,2,0,0,0-1.58.22c-2.52,1.23-4,3.92-6.08,5.75a1.14,1.14,0,0,1-.53.3c-.42.06-.79-.36-.83-.78a4.79,4.79,0,0,1,0-1.2,5.47,5.47,0,0,0,0-1c0-.69.08-1.4-.51-1.82a2.56,2.56,0,0,0-2.88.25c-1,.69-2.62,2.8-3.65,2.19a3.91,3.91,0,0,0-5,.68c-.27.29,0,0-.37-.59C59,55,58.69,54.84,58.2,54.84a3.34,3.34,0,0,0-1.84.55c-2.22,1.26-3.73,3.19-5.32,5.06-.31.36-.64,1-1.24.59s-.34-1-.2-1.43c.54-1.82,1.19-3.62,1.71-5.44.21-.73,1.2-1.78.4-2.15s-1.18.94-1.62,1.68A27.27,27.27,0,0,1,47,58.43a13.11,13.11,0,0,1-5.54,3.87c-1.21.37-1.26.15-1.42-.71a3.47,3.47,0,0,1,0-1.48,14.19,14.19,0,0,1,3.16-6c.43-.53,1.29-1.4.79-1.79-.69-.54-1.43.42-2,.91a25.8,25.8,0,0,1-3.53,2.85c-.68.46-1.56.84-2.28,1.25a50.31,50.31,0,0,1-4.76,2.73c-.44.19-1.81,1.12-2.31.65s.37-1.77.58-2.36a25,25,0,0,0,1.75-5.26c.07-.57.9-2.32.15-2.56s-.8,1.68-1.11,2.16a3.22,3.22,0,0,0-.23.57l-3,7.43c-.89,2.17-2.35,2.91-4.86,4.33C16.56,68.3,12,72.63,7,77.67,4,80.69,1,84.49.11,88.81a8.7,8.7,0,0,0,.27,3.83,4.16,4.16,0,0,0,2.27,2.3,6.83,6.83,0,0,0,4.78-.32,15.07,15.07,0,0,0,3.85-3.12C16.81,86,21.54,77,25.18,69.83a25.16,25.16,0,0,1,7.42-9.36,36.45,36.45,0,0,1,4.94-3.12c.24-.14,1.07-.4,1.24-.26s-.16,1.05-.28,1.55a13.93,13.93,0,0,0-.37,1.74,9.11,9.11,0,0,0,0,1.86,2.08,2.08,0,0,0,1,1.59c1.4.9,2,.15,3.06-.44,1.72-1,3.5-2.65,5-3.68-.1.07-.19.58-.22.7a6.86,6.86,0,0,0-.15,1,1.41,1.41,0,0,0,.58,1.49,2.89,2.89,0,0,0,2.93-.33c1.72-.92,2.56-3.49,3.85-4.77.79-.79,2-1.77,3.19-1.23a1,1,0,0,1,.65,1,1.6,1.6,0,0,1-.25.58l-1.42,2.39A15.53,15.53,0,0,0,55,63.31a5.21,5.21,0,0,0-.2,3.06c.05.2.17.43.38.42s.3-.19.38-.35c1.66-3.38,2.94-7.46,6-9.87a2.89,2.89,0,0,1,2.31-.32c.49.32,0,1.63-.15,2.08-.41,1.05-.93,2.07-1.35,3.11-.21.52-.12.72.22,1.52s1.17-.07,1.49-.66c1-1.7,1.54-3.89,2.81-5.44.67-.82,2.14-2.94,3.16-3.06,1.42-.17.52,3,.41,3.82-.21,1.67-.16,3.37,1.52,3.15s2.51-2,3.49-3.17a32.53,32.53,0,0,1,3.38-3.56,2.59,2.59,0,0,1,1.48-.61,1.26,1.26,0,0,1,1,1.4,5.92,5.92,0,0,1-.49,1.76A143.35,143.35,0,0,1,65,86.59c-.6.9.41,2.41,1.27,1.67a15.64,15.64,0,0,0,3.12-4.08c1.23-2.26,1.55-3.06,2.45-4.69,1.79-3.24,3.34-6.44,4.89-9.8.92-2,1.71-4.13,2.58-6.07,1.91-4.25,3.49-8.37,7.29-10.24.43-.21,1-.36,1.34,0a1,1,0,0,1,.2.66c0,1.38-1.88,3.53-1.58,4.88.24,1.1,2.2,1.27,3.36,1.14a6.11,6.11,0,0,0,1.74-.46A5.9,5.9,0,0,0,92.95,59c.38-.29.92-.92,1.43-.89s1,1,1.44,1.34c2.77,1.95,6.11,0,8.12-2.08,1.4-1.44,2.55-3.11,4-4.52a5.49,5.49,0,0,1,1.83-1.3,3.05,3.05,0,0,1,3,.43c.15.12.14.07.18.26a1.5,1.5,0,0,1,0,.67,13.22,13.22,0,0,1-1.2,3,8.26,8.26,0,0,0-.85,2.37,2.79,2.79,0,0,0,.65,2.35,3.27,3.27,0,0,0,2.54.74,12.6,12.6,0,0,0,5.26-1.83C125,56.44,129.8,52,135,48.21A174.61,174.61,0,0,1,116.28,59.61ZM99.34,51c.34,0,.88.2.87.55a2.54,2.54,0,0,1-.64,1.17,6.81,6.81,0,0,1-2.64,1.89c-.45.2-.83.08-.86-.29C95.86,52.1,98.54,50.91,99.34,51ZM15.28,81.32c-1.71,2-3.27,4.08-5.07,6-.85.89-5.25,5.45-6.39,4.05a5.44,5.44,0,0,1-.63-3.27,8.85,8.85,0,0,1,1.43-4.2,16.9,16.9,0,0,1,1.17-1.59A106.77,106.77,0,0,1,20.42,67.92c1.29-1.07,2.72-2,4.4-3.17A54,54,0,0,1,15.28,81.32Z"/><path class="cls-2" d="M78.93,8.11a3.54,3.54,0,0,1,3.3-.72,48.94,48.94,0,0,1,17.62,9.25,57.89,57.89,0,0,1,11,10.94c.51.71,1,1.46,1.44,2.19a2.07,2.07,0,0,1,.15.89A56,56,0,0,0,97.7,16.35C92,12.51,86.11,9.16,78.93,8.11Z"/><path class="cls-2" d="M31.93,22A73,73,0,0,0,17.29,45.36a11.31,11.31,0,0,1,1-5.38,83.79,83.79,0,0,1,5.44-10.35,3.45,3.45,0,0,1,2.66-2c.41,0,.49-.47.56-.83h0l2.88-3.26-.14-.15-1,.47C29.41,22.41,31,22.89,31.93,22Z"/><path class="cls-3" d="M26.91,26.81l0,0,0,0Z"/><path class="cls-2" d="M86.93,111.62c-2.35,1.75-5.73,2.53-8.61,3a53.64,53.64,0,0,1-18.73-.19,6.5,6.5,0,0,1-2.9-.94l0,0a62.82,62.82,0,0,0,10.4,1c6.22-.18,12.7-.64,18.66-2.63a8,8,0,0,1,1.21-.21Z"/><path class="cls-2" d="M59.33,7.84c-8.55,2-16.4,6-23.92,11.08C41.86,12.47,50.17,9,59.33,7.84Z"/><path class="cls-2" d="M47.07,110.1a33.16,33.16,0,0,1-11.4-5.34A12,12,0,0,1,32.73,102a3.6,3.6,0,0,1,2.47.76c3.66,2.67,7.28,5.37,11.55,7,.13,0,.2.22.31.34Z"/><path class="cls-2" d="M95.95,107.64c1.3-1.58,3.33-2.13,4.83-3.48,3-2.75,6-5,8.42-8.33.23-.31,5.47-7.31,6.19-7.22-1.84,3.62-9.79,13.15-13.16,15.52a20.68,20.68,0,0,1-6.29,3.5Z"/><path class="cls-2" d="M76.9,6.91c-.19,0-.53,0-.55.1-.21.69.64.18.72.71a66.16,66.16,0,0,0-16.2-.18c.68-.57,1.46-.38,2.2-.45,3.32-.31,6.63-.77,10-.32.53.07,1.48.8,1.85-.48a13.94,13.94,0,0,1,2,.29Z"/><path class="cls-1" d="M34.32,45c-.34.88-.52,1.66-1.5,1.69a1.16,1.16,0,0,1-1.12-1.39c.06-.73.2-1.69,1.24-1.63C33.72,43.74,34.09,44.17,34.32,45Z"/><path class="cls-2" d="M95.95,107.64a18.66,18.66,0,0,1-4.11,2.64c-.07-.13-.13-.57-.2-.7,1.44-.65,2.87-.68,4.31-1.32Z"/><path class="cls-2" d="M48.64,9.63c1.18-1.21,2.75-1.36,4.29-1.57V8c-1.24,1.06-2.79,1.24-4.3,1.56Z"/><path class="cls-2" d="M69.17,6.09h-4V6l4-.27Z"/><path class="cls-2" d="M52.94,8.06a11.76,11.76,0,0,1,3.86-.93A9.27,9.27,0,0,1,52.92,8Z"/><path class="cls-2" d="M47.05,110.11a6.57,6.57,0,0,1,3.09,1.24l0,0a3.89,3.89,0,0,1-3.09-1.24Z"/><path class="cls-2" d="M30.38,99.58c.83.23,1.08,1,1.43,1.58-.21-.23-.49-.4-.72-.62A9.24,9.24,0,0,1,30.38,99.58Z"/><path class="cls-2" d="M56.69,113.48a4.09,4.09,0,0,1-3.09-.93l0,0a11.13,11.13,0,0,1,3.09.93Z"/><path class="cls-2" d="M88.53,111c.44-.74,1.25-.52,1.88-.74a2.15,2.15,0,0,1-1.9.72Z"/><path class="cls-2" d="M50.14,111.36c.53.09,1.1.07,1.52.61-.42.35-1.3-.35-1.51-.63Z"/><path class="cls-2" d="M48.63,9.61a1.4,1.4,0,0,1-1.25.74,1.54,1.54,0,0,1,1.27-.73Z"/><path class="cls-2" d="M33.08,19.39l-.36.22c-.07-.08-.09-.19-.06-.22a.89.89,0,0,1,.35-.25C33.08,19.24,33,19.29,33.08,19.39Z"/><path class="cls-2" d="M34.14,19.51c.11.08.14.23.22.27-.1.09-.16.23-.36.23,0,0-.12-.1-.19-.15Z"/><path class="cls-2" d="M26.87,26.81c-.18,0-.38,0-.41-.23,0-.06.12-.19.18-.18C26.91,26.43,26.88,26.63,26.87,26.81Z"/><polygon class="cls-3" points="26.91 26.81 26.87 26.84 26.87 26.81 26.91 26.81"/><path class="cls-2" d="M86.94,111.64a2.57,2.57,0,0,1,1.59-.59l0,0a1.46,1.46,0,0,1-1.59.59Z"/><path class="cls-2" d="M33.24,21.07a.21.21,0,0,1-.22-.18,1.08,1.08,0,0,1,.29-.28s.17.13.17.14S33.32,21,33.24,21.07Z"/><path class="cls-2" d="M53.6,112.55c-.22.24-1,.19-1-.31a.94.94,0,0,1,.93.33Z"/><path class="cls-2" d="M35,105.15a48.37,48.37,0,0,1-10-8.23,8.34,8.34,0,0,1-1.73-3,3.6,3.6,0,0,1,2.25,1.27c3,3.39,5,6.81,8.84,9.35.11.08.64.59.6.51Z"/><path class="cls-2" d="M108.32,100.5a16.85,16.85,0,0,1-2.83,3.78l-.34-.27c1.06-1.17,2.24-2.06,3.3-3.23Z"/><path class="cls-2" d="M62.32,116.81a6.57,6.57,0,0,1,3.31.32v0a5.12,5.12,0,0,1-3.31-.33Z"/><path class="cls-2" d="M43.36,111.38c.86,0,1.3.62,1.82,1.11Z"/><path class="cls-2" d="M72.52,117.33a5.69,5.69,0,0,1-3.23,0v0a11.13,11.13,0,0,1,3.23,0Z"/><path class="cls-2" d="M102.4,106.06c.22-.83,1.05-.85,1.6-1.24a3.2,3.2,0,0,1-1.62,1.22Z"/><path class="cls-2" d="M65.63,117.13a2,2,0,0,1,1.63.16c-.63.31-1.12,0-1.62-.18Z"/><path class="cls-2" d="M101,107.07a2.57,2.57,0,0,1,1.36-1h0a2.48,2.48,0,0,1-1.36,1Z"/><path class="cls-2" d="M69.29,117.31a1,1,0,0,1-1,0,.94.94,0,0,1,1,.06Z"/><path class="cls-2" d="M113.67,86.77"/><path class="cls-2" d="M118.18,81.44a12,12,0,0,1-1.47,4.49l-.41-.15c.63-1.45,1.37-2.78,2.09-4.11Z"/><path class="cls-2" d="M115,89c-.17-.84.57-1.22.89-1.81A3.2,3.2,0,0,1,115,89Z"/><path class="cls-2" d="M112.67,31.33C115,36.27,117,40.64,118.06,46a3.47,3.47,0,0,0,0-2.23,41.17,41.17,0,0,0-2.91-9.24Z"/><path class="cls-2" d="M117.66,40.5c.32,1.1.67,2.26,1.15,3.91,0,0,0-.11,0-.14s-.16-.66-.18-.74c-.06-.24-.13-.47-.2-.7s-.17-.57-.25-.85-.14-.56-.22-.84a1.85,1.85,0,0,0-.09-.25l-.08-.18C117.81,40.66,117.74,40.48,117.66,40.5Z"/><path class="cls-2" d="M16.54,49.2A4.55,4.55,0,0,1,17,45l-.45,4.23Z"/><text class="cls-4" transform="matrix(1.25, 0.73, -0.5, 0.86, 42.81, 101.72)">E</text><text class="cls-4" transform="translate(45.69 103.38) rotate(27.24) scale(1.45 1)"> </text><text class="cls-4" transform="translate(47.26 104.18) rotate(25.12) scale(1.45 1)"> </text><text class="cls-4" transform="translate(48.87 104.94) rotate(23.02) scale(1.45 1)"> </text><text class="cls-4" transform="matrix(1.36, 0.49, -0.34, 0.94, 50.55, 105.67)">S</text><text class="cls-4" transform="translate(54.19 106.94) rotate(16.32) scale(1.45 1)"> </text><text class="cls-4" transform="matrix(1.4, 0.36, -0.25, 0.97, 55.86, 107.43)"> </text><text class="cls-4" transform="matrix(1.42, 0.31, -0.21, 0.98, 57.59, 107.86)"> </text><text class="cls-4" transform="translate(59.36 108.26) rotate(9.22) scale(1.45 1)">T</text><text class="cls-4" transform="matrix(1.44, 0.16, -0.11, 0.99, 62.59, 108.76)"> </text><text class="cls-4" transform="translate(64.36 108.96) rotate(4.34) scale(1.45 1)">.</text><text class="cls-4" transform="translate(65.93 109.07) rotate(2.42) scale(1.45 1)"> </text><text class="cls-4" transform="translate(67.7 109.15) rotate(0.38) scale(1.45 1)"> </text><text class="cls-4" transform="matrix(1.45, -0.04, 0.03, 1, 69.44, 109.16)"> </text><text class="cls-4" transform="translate(71.23 109.1) rotate(-3.69) scale(1.45 1)"> </text><text class="cls-4" transform="matrix(1.44, -0.17, 0.12, 0.99, 73.05, 109.01)">2</text><text class="cls-4" transform="matrix(1.43, -0.25, 0.17, 0.98, 76.72, 108.54)"> </text><text class="cls-4" transform="matrix(1.42, -0.3, 0.21, 0.98, 78.44, 108.23)"> </text><text class="cls-4" transform="matrix(1.41, -0.35, 0.24, 0.97, 80.17, 107.86)"> </text><text class="cls-4" transform="translate(81.94 107.45) rotate(-17.27) scale(1.45 1)">0</text><text class="cls-4" transform="matrix(1.36, -0.51, 0.35, 0.94, 85.68, 106.25)"> </text><text class="cls-4" transform="translate(87.33 105.63) rotate(-22.47) scale(1.45 1)"> </text><text class="cls-4" transform="translate(88.93 104.96) rotate(-23.89) scale(1.45 1)"> </text><text class="cls-4" transform="matrix(1.29, -0.67, 0.46, 0.89, 90.61, 104.23)">2</text><text class="cls-4" transform="matrix(1.25, -0.74, 0.51, 0.86, 93.86, 102.5)"> </text><text class="cls-4" transform="translate(95.4 101.6) rotate(-32.53) scale(1.45 1)"> </text><text class="cls-4" transform="translate(96.86 100.66) rotate(-34.49) scale(1.45 1)"> </text><text class="cls-4" transform="translate(98.34 99.64) rotate(-36.66) scale(1.45 1)">1</text><text class="cls-5" transform="matrix(0.98, -1.18, 0.77, 0.64, 35.78, 33.17)">O</text><text class="cls-5" transform="translate(38.23 30.28) rotate(-46.15) scale(1.53 1)"> </text><text class="cls-5" transform="matrix(1.11, -1.06, 0.69, 0.72, 39.35, 29.11)"> </text><text class="cls-5" transform="translate(40.49 27.97) rotate(-39.74) scale(1.53 1)">N</text><text class="cls-5" transform="matrix(1.24, -0.9, 0.58, 0.81, 43.45, 25.56)"> </text><text class="cls-5" transform="matrix(1.28, -0.84, 0.55, 0.83, 44.76, 24.61)"> </text><text class="cls-5" transform="translate(46.09 23.71) rotate(-30.24) scale(1.53 1)">L</text><text class="cls-5" transform="translate(48.64 22.24) rotate(-27) scale(1.53 1)"> </text><text class="cls-5" transform="translate(50.09 21.5) rotate(-24.72) scale(1.53 1)"> </text><text class="cls-5" transform="matrix(1.42, -0.59, 0.38, 0.92, 51.55, 20.83)">I</text><text class="cls-5" transform="matrix(1.44, -0.53, 0.34, 0.94, 53.1, 20.19)"> </text><text class="cls-5" transform="translate(54.64 19.62) rotate(-17.92) scale(1.53 1)"> </text><text class="cls-5" transform="matrix(1.48, -0.38, 0.25, 0.97, 56.14, 19.1)">N</text><text class="cls-5" transform="translate(59.84 18.19) rotate(-10.58) scale(1.53 1)"> </text><text class="cls-5" transform="translate(61.47 17.89) rotate(-8.35) scale(1.53 1)"> </text><text class="cls-5" transform="matrix(1.53, -0.14, 0.09, 1, 63.04, 17.63)">E</text><text class="cls-5" transform="translate(66.19 17.37) rotate(-1.99) scale(1.53 1)"> </text><text class="cls-5" transform="translate(67.81 17.31) rotate(0.17) scale(1.53 1)"> </text><text class="cls-5" transform="translate(69.44 17.31) rotate(2.33) scale(1.53 1)"> </text><text class="cls-5" transform="translate(71.08 17.38) rotate(4.49) scale(1.53 1)"> </text><text class="cls-5" transform="matrix(1.52, 0.18, -0.12, 0.99, 72.7, 17.51)"> </text><text class="cls-5" transform="translate(74.31 17.67) rotate(9.72) scale(1.53 1)">T</text><text class="cls-5" transform="translate(77.37 18.22) rotate(12.8) scale(1.53 1)"> </text><text class="cls-5" transform="matrix(1.48, 0.39, -0.26, 0.97, 78.96, 18.58)"> </text><text class="cls-5" transform="matrix(1.45, 0.48, -0.31, 0.95, 80.52, 18.96)">R</text><text class="cls-5" transform="matrix(1.42, 0.57, -0.37, 0.93, 84, 20.14)"> </text><text class="cls-5" transform="translate(85.52 20.74) rotate(23.73) scale(1.53 1)"> </text><text class="cls-5" transform="matrix(1.36, 0.7, -0.46, 0.89, 87.03, 21.37)">A</text><text class="cls-5" transform="matrix(1.32, 0.78, -0.51, 0.86, 90.21, 23.03)"> </text><text class="cls-5" transform="matrix(1.29, 0.83, -0.54, 0.84, 91.61, 23.85)"> </text><text class="cls-5" transform="matrix(1.24, 0.9, -0.59, 0.81, 92.98, 24.69)">V</text><text class="cls-5" transform="matrix(1.18, 0.97, -0.63, 0.77, 95.83, 26.79)"> </text><text class="cls-5" transform="matrix(1.15, 1.02, -0.66, 0.75, 97.08, 27.82)"> </text><text class="cls-5" transform="matrix(1.09, 1.08, -0.7, 0.71, 98.33, 28.89)">E</text><text class="cls-5" transform="matrix(1.03, 1.14, -0.74, 0.67, 100.54, 31.11)"> </text><text class="cls-5" transform="matrix(0.98, 1.17, -0.77, 0.64, 101.63, 32.32)"> </text><text class="cls-5" transform="translate(102.69 33.55) rotate(53.15) scale(1.53 1)">L</text><path class="cls-2" d="M59.17,24a2.72,2.72,0,0,0-2.06-.28,33.86,33.86,0,0,0-10.39,5.78,33.49,33.49,0,0,0-6.21,6.14c-.28.38-.81,1.41-1.06,1.8-.05.08.21-.14.23,0A32.66,32.66,0,0,1,48,29.41,32,32,0,0,1,59.17,24Z"/><path class="cls-2" d="M92.45,29.22c-.63-.49-1.29-.93-1.94-1.4l-.57-.4a7.78,7.78,0,0,0-2.13-1c-.15,0-.64.22-.73.08.34.19,1,.39,1.36.61l1.2.81q1.19.83,2.33,1.72a48.93,48.93,0,0,1,4.38,3.85q.71.7,1.39,1.44c.55.59,1.07,1.22,1.58,1.87s.8,1.07,1.18,1.63c0,0,.31.4.34.46,2.15,4.27.36-.15-.08-.94a6.49,6.49,0,0,0-.64-.84c-.79-1-1.64-2-2.51-2.94S95.89,32.45,95,31.6c-.69-.67-1.37-1.37-2.1-2Z"/><path class="cls-2" d="M71.29,22.52a40.76,40.76,0,0,1,15.43,3.74A27.79,27.79,0,0,0,71.29,22.52Z"/><path class="cls-2" d="M60.36,23.31c.12,0,.33,0,.35,0,.17.32-.39.13-.41.4a52,52,0,0,1,10-1.24,2.89,2.89,0,0,0-1.39-.37,34.33,34.33,0,0,0-6.2.55c-.33.07-.6.38-1.17-.1,0,0-.8.18-1.23.29C60.34,22.9,60.35,23.26,60.36,23.31Z"/><path class="cls-2" d="M78,22.47A4.9,4.9,0,0,0,75.26,22h0a6.61,6.61,0,0,0,2.75.46Z"/><path class="cls-2" d="M65.17,22.13c1.37-.16,1.53-.22,2.48-.28,0,0,0,0,0-.05-.86,0-1.59.1-2.5.15A.12.12,0,0,0,65.17,22.13Z"/><path class="cls-2" d="M75.26,22a9,9,0,0,0-2.44-.18,7.05,7.05,0,0,0,2.45.17Z"/><path class="cls-2" d="M78.12,22.52a.92.92,0,0,0,.81.28,1,1,0,0,0-.82-.27Z"/><path class="cls-2" d="M87.57,26.51l-.15.1a1,1,0,0,0,.2.1s.08-.05.12-.08Z"/><path class="cls-2" d="M92.45,29.54h0"/><path class="cls-2" d="M64.53,98.78a17.74,17.74,0,0,0,6.26.55,44.59,44.59,0,0,0,12.92-2.42,4.86,4.86,0,0,0,1.88-1h0c-2.49.57-4.61,1.3-7,1.7a49.51,49.51,0,0,1-13.18.82c-.28,0-.57.33-.86.34Z"/><path class="cls-2" d="M91.81,92.52A34.23,34.23,0,0,0,99,87.44a6.51,6.51,0,0,0,1.73-1.95,2.52,2.52,0,0,0-1.61.5A37.32,37.32,0,0,1,92,92c-.08,0-.11.17-.17.25Z"/><path class="cls-2" d="M57.83,97.47c-1.09-.82-2.56-.91-3.75-1.57-2.43-1.33-4.85-2.31-7-4.11-.2-.17-5.67-4.1-6.15-4,1.71,2,9.46,7,12.07,8a40.66,40.66,0,0,0,4.8,1.57Z"/><path class="cls-2" d="M57.52,97.45c1.14.55,2.7.28,3.76.5,0-.09,1.51.91,1.54.82l-4.62-.93Z"/><path class="cls-2" d="M91.83,92.53a1.92,1.92,0,0,0-2,1.19h0a3.78,3.78,0,0,0,2-1.19Z"/><path class="cls-2" d="M102,83.67c-.9-.19-1,.67-.9,1.36Z"/><path class="cls-2" d="M85.6,95.94a4.26,4.26,0,0,0,2-1h0a2.27,2.27,0,0,0-2,1Z"/><path class="cls-2" d="M63.36,98.63A2.14,2.14,0,0,0,62,98.11c.44.19.9.6,1.4.51Z"/><path class="cls-2" d="M89.85,93.73c-.39-.17-.76,0-1,.59.49,0,.69-.36,1-.6Z"/><path class="cls-2" d="M64.52,98.8a1.47,1.47,0,0,0-1.17-.16h0a1.84,1.84,0,0,0,1.17.16Z"/><path class="cls-2" d="M87.61,94.94c.2,0,.76-.13.95-.42-.31-.3-.95.17-.93.43Z"/></g></g></svg>