<svg xmlns="http://www.w3.org/2000/svg" viewBox="0 0 251 251"><defs><style>.cls-1{fill:#fff;stroke:#f7f6f2;stroke-miterlimit:10;}.cls-2{fill:#292929;}</style></defs><title>資產 25</title><g id="圖層_2" data-name="圖層 2"><g id="圖層_2-2" data-name="圖層 2"><circle class="cls-1" cx="125.5" cy="125.5" r="125"/><path class="cls-2" d="M112.29,73.22h1.29c2,1.68,2.2,3.51.32,6.58,1.77.64,3.45,1.28,5.15,1.86.93.32,2.37.26,2.76.88,1.44,2.29,4.06,2.16,6,3.33,1.21.72,2.19.29,2.37-1.32.31-2.62,2.35-3.49,4.73-2.32,1.75.86,3.74,1.22,5.54,2,3.6,1.53,7.29-.3,11,.44,1.7.34,2.45.91,2.56,2.33a15.09,15.09,0,0,1-.5,3.37l-.58.05-2.21-3a3.41,3.41,0,0,0,.55,2.1c2.09,3.85,4.34,7.62,6.23,11.57,1.11,2.31,1.22,4.84,2.9,7.22,1.47,2.08,2.58,4.28,4.79,5.72a1.53,1.53,0,0,1,.6.6c.54,1.34,2.58,1.57,2.19,3.84-.26,1.47,3.1,2,6,1.18,2.27-.65,4.64-1,7-1.43V120c-1.92,4.61-3.95,9.17-7.57,12.75-3,2.95-6.25,5.63-9.06,8.72a13.75,13.75,0,0,0-3.2,5.89c-.38,1.67.54,3.65.91,5.49a12.14,12.14,0,0,0,.44,1.19,31.51,31.51,0,0,1,1,3.25c.2,1,.13,2,.26,3,.39,3-.29,4.21-2.94,5.75-1.53.89-2.88,2.11-4.42,3-2.28,1.27-2.29,3.08-1.53,5.17.09.26.29.48.39.74a3.54,3.54,0,0,1-1.88,4.69c-1.71.68-2.87,1.5-2.28,3.63a2.43,2.43,0,0,1-.53,1.77c-2.09,2.77-4.12,5.62-6.47,8.17a9.14,9.14,0,0,1-4.32,2.51c-2.79.69-5.73.76-8.57,1.3-2.17.41-4.1-.45-4-2.48.23-3.75-2-6.37-3.6-9.31a10.49,10.49,0,0,1-1.59-4.14c-.28-4.33-1.94-8.07-4-11.81a8.8,8.8,0,0,1-.78-5.27c.32-1.94,1.51-3.73,2.29-5.61a4,4,0,0,0,.51-1.81,35.59,35.59,0,0,0-1.06-6.13,17.07,17.07,0,0,0-4.94-8.31c-1.22-1.05-2.13-2.41-1-4.46.71-1.33.61-3.18.59-4.79,0-2.09-1.17-2.85-3.27-2.59-1.69.21-3.4.57-4.18-1.79a3,3,0,0,0-2.38-1.42,21.13,21.13,0,0,0-4.55,1,48,48,0,0,1-5.47,1.4c-1.86.24-4-.56-5.6.16-2.61,1.21-4.32.33-6.18-1.16-.61-.49-1.31-.87-1.93-1.35-1.61-1.24-3.15-2.38-4.06-4.47-.79-1.81-2.52-3.28-4-4.66-1-.91-2.21-4.54-1.6-5.85a10.76,10.76,0,0,0,.18-9.43,3.17,3.17,0,0,1,.3-2.32A33.5,33.5,0,0,1,74,94.36c1.28-1.65,2.09-3.73,4.51-4.52,1.91-.63,3.63-2.06,3.26-4.67a2.28,2.28,0,0,1,.41-1.61c2.07-2.48,4.22-4.9,6.34-7.34a7.64,7.64,0,0,0,6.56.7c2.16-.65,4.18-1.95,6.37-2.33,3-.51,6-.37,9-.6A5.93,5.93,0,0,0,112.29,73.22Z"/><path class="cls-2" d="M178.36,158.54c-2.27,2-4,4.16-6.25,5.4s-3,1.89-2.48,4.58c.2,1.13.45,2.66-.11,3.45a6.38,6.38,0,0,0-.8,5.59c.35,1.53.86,2.86,2.55,3a3.1,3.1,0,0,0,3.54-2.4c1-3.65,2-7.28,3.07-10.91.41-1.41.88-2.79,1.33-4.19l.53.09Z"/><path class="cls-2" d="M178.36,158.54l1.38,4.57-.53-.09c-.45,1.4-.92,2.78-1.33,4.19-1,3.63-2.09,7.26-3.07,10.91a3.1,3.1,0,0,1-3.54,2.4c-1.69-.09-2.2-1.43-2.55-3a6.38,6.38,0,0,1,.8-5.59c.56-.79.31-2.32.11-3.45-.49-2.69.27-3.36,2.48-4.58S176.09,160.56,178.36,158.54Z"/></g></g></svg>