<svg xmlns="http://www.w3.org/2000/svg" viewBox="0 0 251 251"><defs><style>.cls-1{fill:#fff;stroke:#f7f6f2;stroke-miterlimit:10;}.cls-2{fill:#202b36;}</style></defs><title>資產 26</title><g id="圖層_2" data-name="圖層 2"><g id="圖層_2-2" data-name="圖層 2"><circle class="cls-1" cx="125.5" cy="125.5" r="125"/><path class="cls-2" d="M157.72,152c1.25.68,2.16.25,2.94-.82a1.35,1.35,0,0,1,.86-.52,3.68,3.68,0,0,1,3.46,2.71c.94,0,1.83,0,2.73,0a8,8,0,0,1,6.3,2.88,1,1,0,0,0,.41.22c.78.28,1.79.05,2.08,1.29.36,1.53.66,3-.28,4.41-1.17,1.7-2.64,3.21-3.69,5-.47.8-.21,2-.34,3-.31,2.39-.62,4.78-1,7.16a3.76,3.76,0,0,1-.69,1.85,4.35,4.35,0,0,1-2.15,1.57,10.29,10.29,0,0,0-6,3.53c-.38.41-.17,1.5,0,2.24a4.72,4.72,0,0,1-2,4.54c-.59.44-.73,1.49-1.06,2.27-.45,1.09-.67,2.39-1.41,3.22-.49.54-1.75.54-2.64.49s-1.62-.51-2.63-.58l.69.84c.7.84,1.79,1.6,2,2.54a2.94,2.94,0,0,1-1.38,2.41,12.4,12.4,0,0,1-3.63.68c0,.87.29,1.94-.11,2.58-.24.38-1.57.07-2.62.07a13.33,13.33,0,0,0,.71,1.56,3.12,3.12,0,0,1-.39,4.29c-.88.89-.58,1.92.95,2.47s1.58.94.59,2.15a3.39,3.39,0,0,0-.27,4.3l-1.26,2c-.52-.45-1.21-1.11-2-1.68a6.18,6.18,0,0,0-1.37-.6c-1-.4-2.57-3.8-2.31-5l-2.44-2.12.14-.24,1.48.5c-.47-2.18-.86-4.15-1.34-6.11a1,1,0,0,0-.77-.62c-1.31,0-1.13-1-1.29-1.74s-.42-1.67-.57-2.52a10.13,10.13,0,0,1-.23-2.38,24,24,0,0,0-.35-7.6c-.59-2.41-.3-5-.41-7.56-.1-2.24-.25-4.47-.33-6.71-.1-2.95-1.72-4.7-4.25-6a10.69,10.69,0,0,1-3.9-3c-1.36-1.94-2.11-4.29-3.28-6.37a39.36,39.36,0,0,0-3.06-4.48,2.94,2.94,0,0,1,0-3.57c.36-.4.68-.85,1.13-1.42-1.83-.5-1.62-1.41-1.12-2.7.7-1.82,2.09-3.06,3.26-4.48.83-1,1.12-4.88.37-6.16-.18-.31-.57-.66-.52-.93.23-1.15-.45-1.87-1.31-1.7-.71.14-1.25,1.12-2,1.89l-5.07-3.32L114,131.15c-2.62-.21-5.08-.86-6.76-3.25a1.84,1.84,0,0,0-2.49-.58,3.22,3.22,0,0,1-2.38.13c-2.62-1.35-5.15-2.89-7.69-4.38-.85-.5-.83-1.15-.63-2.12a5.61,5.61,0,0,0-.41-3.23c-.55-1.21-1.69-2.14-2.29-3.33a40.27,40.27,0,0,1-2.78-6.6c-.31-1.07-.52-1.79-1.77-2a3.49,3.49,0,0,0-.3,3.15c.83,2.12,1.35,4.36,2.08,6.52a17.46,17.46,0,0,1,.87,2.1c-.6-1.17-2.39-1.56-2-3.42.08-.44-.63-1.08-1.07-1.56a6.61,6.61,0,0,0-1.22-.82c1.14-.41,1.44-1.3.88-1.89-1.48-1.59-.87-3.58-1.37-5.34a3.76,3.76,0,0,0-1.13-1.88,3.93,3.93,0,0,1-1.58-4.78.94.94,0,0,0-.09-.69c-.86-1.3-.33-2.46.22-3.68a32.35,32.35,0,0,1,5.06-7.29c.52-.61.53-1.65.88-2.87l1.57,1.08c1.53-1.12,1.58-2.65-.13-4.1C87.92,79,87.92,79,89,78.27l.3-2.4L88,76.94c1.94-2.56,1.06-5.08,1.29-7.24l-2.07-.45.33,1.21c-.55-.48-.91-.63-1-.88a2.12,2.12,0,0,0-2-1.53,5.82,5.82,0,0,1-3.6-1.15,2.28,2.28,0,0,0-2.14.32c-1.16,1.07-2.66.71-3.84,1.48l-.2-.5L78,66.79c-.92-.53-5.47,1.58-7.07,2.53a32.25,32.25,0,0,1-7.45,2.87l4.23-2.5L64,69.22l1-1.49-2.13.34-.08-.45,2.05-.41-1.68-.62A18.3,18.3,0,0,1,69.81,64a28.57,28.57,0,0,0,3.63-1.36l-.15-.4H68.78c.49-1,3.13-2.25,4-1.74,1.41.78,2.44.23,3.43-.48l-1.59-2.14c4.57-1,8.74-2.21,13-2.87,1.84-.29,3.85.48,5.78.77s4.12.59,6.17,1c.65.11,1.25.64,1.88.64a23.4,23.4,0,0,0,3.05-.39l7-.84c.48,1.34,1.77.42,2.69.63s2,.09,3,.23c1.16.15,2.3.42,3.67.68l-1.4.69v.41a24.82,24.82,0,0,0,3.37,0c1.06-.15,1.7,0,1.78,1.28.32-.13.62-.16.77-.33,1.86-2,2.08-1.94,4.81-1.17a19.43,19.43,0,0,0,4.74.37c.23,0,.48-.58.92-1.16l.18,1.79L140.51,57,139,56.07c.74-1.37,2.08-1.73,3.43-2.08v0L142,56.42l-.31-.09.64,1.73,2.12-1.14-1.14,2.28.46.39c1.26-.77,2.84-1.29,3.71-2.37,1.13-1.41,1.82-.71,2.64-.36-.42.81-.71,1.43-1.05,2-.12.21-.33.46-.53.5-1.32.26-2.64.46-4,.67-.2,0-.53-.1-.61,0-1.29,1.54-2.88,1.37-4.57.89l2.28,1.28L136,63.64l.79.34c-3.46,1.14-6.17,2.67-8.17,5.47,1.47.5,1.14,1.46.4,2.6,1.87-.29,3.2-.09,4.49,1.21.88.88,2.51,1,3.86,1.49-.2.44-.49,1.09-.79,1.74-.44,1-.06,2.68.67,3s2.26-.8,2.57-1.76a8.5,8.5,0,0,0,.36-1.36,2.38,2.38,0,0,1,1.86-2,8.24,8.24,0,0,0,2.63-1.65c1-.87,1.2-2,.39-2.69L147.7,66c.14-.21.19-.52.37-.66.56-.44,4.4.27,4.87.82a14.54,14.54,0,0,0,1.33,1.18L153,69.64c2.29,1.58,4.05,0,6-1.44.15,1.49,1.13,2.7.18,4.23-.2.33.45,1.42,1,1.89a27.52,27.52,0,0,0,3,2.14c0,1.68-.8,2.48-2.37,2.57a2.09,2.09,0,0,0-1.19.35C158,80.84,156,80.86,154,80.54c-2.75-.44-4.79,1.07-6.93,2.3a9.48,9.48,0,0,0-2.4,2.17c2.31-1.41,4.52-3,7.36-2.65l.2.54-2.28.75c1,1.36.65,4.12,3.64,3.64l-5.37,2.11L148,89l3.17-1.75c-.49-.1-1-.37-1.35-.25a61.49,61.49,0,0,0-5.88,2.21A3.47,3.47,0,0,0,142.11,91a2.11,2.11,0,0,1-2.05,1.58,3.47,3.47,0,0,0-3.07,2c-.19.47-.9.72-1.57.84l-.47,1.66-.37,0-.21-1.53-.26-.07a6.68,6.68,0,0,0-.72,2.28c.19,2.71-1.66,3.82-3.55,5-1.2.73-2.38,1.51-3.51,2.34-1.48,1.1-1.7,2.64-1.43,4.37s.72,3.5-.51,5.34a5,5,0,0,1-1.51-3.83c.08-2.2-.29-2-2.15-2.78-2.12-.93-4-.38-6.22-.45l.68,1.38a9.63,9.63,0,0,1-2.15-.43c-1.16-.56-3.32.14-4.55.53-3,1-3.5,3.26-4.26,5.84s-1.35,4.88,0,7.41a3.26,3.26,0,0,0,3.51,1.91c2.4-.06,3.41-1.29,4.35-3.28.67-1.42,2.4-1,3.77-.87l-3.35,7.65c1.17,0,2.21,0,3.25,0a14.19,14.19,0,0,1,1.56-.11,1.76,1.76,0,0,1,1.57,2.44c-.24.85-.37,1.74-.67,2.57-.7,1.91.57,3.09,1.63,4.27a1.77,1.77,0,0,0,1.69.24c1.83-1.19,3.27-.82,4.61,1.25.78-1.23,1.4-2.21,2-3.18.19-.29.4-.66.69-.78,1.38-.6,2.8-1.12,4-1.61a5.17,5.17,0,0,0-.46,4.06l.69.07.22-2.39c1.34-1.26,2-1.27,3.4.19.07.08.14.21.22.22a33.15,33.15,0,0,0,4.6.22c.77-.06,1.45-.63,2,.38a1,1,0,0,0,.67.37c1.1.2,1.56.67.58,1.8a3.19,3.19,0,0,1,3.58,2.06,3.28,3.28,0,0,0,3.19,1.66c3.1-.22,4.9,1.15,5.79,4.16.13.43.47.81.6,1.24a1.77,1.77,0,0,1,0,1.23c-.76,1.16-1.63,2.24-2.64,3.6l1.89-.54.53.74Z"/><path class="cls-2" d="M160.43,55.6l1.83-.18-.7,2.19L165.75,60l-2.52,1.71c-.92-1-1.78-2.43-3.4-.68a7.09,7.09,0,0,1,1,1.27c.19.4.35,1.1.14,1.32a1.87,1.87,0,0,1-1.43.47,7.15,7.15,0,0,1-1.77-.71l-.25.33,1.37,1.67c-2.92.19-4-2.2-5.6-3.37,1.47-2,3.58-2.17,6-1.29V60l-2-.53c.49-.89.17-1.72-1-2.26-.22-.1-.35-.37-.55-.53-.74-.58-1.05-1.43-2.57-.86s-3.6.07-5.43,0a15.24,15.24,0,0,1-2.15-.48l2.21-.44-2.16-.83,5-2.36.19.4c-1.72,1.22-1.79,1.39-1.08,2.88a4.61,4.61,0,0,1,3.88-2.88,1.42,1.42,0,0,1,1.12.2c.16.17-.06.71-.15,1.45.76-.15,1.48-.32,2.21-.43.46-.07,1.11-.26,1.37,0A25,25,0,0,1,160.43,55.6Z"/><path class="cls-2" d="M156.61,46.68h3.24l-1.11-1.46,2.81.47c.93-.26,1.54-.46,2.16-.59s1.29-.19,1.94-.27l0-.39-5.08.35-.15-.24a8.63,8.63,0,0,1,2.33-1c2.23-.24,4.49-.34,6.74-.39a68.27,68.27,0,0,1,8.78.3L164,46.37l1.13.21,0,.24c-1.17.34-2.36.64-3.5,1.05a16.94,16.94,0,0,0-1.55.91,2.51,2.51,0,0,1-1,.23c-2,0-4.09,0-6.57,0l2.85-1.26,1.8.58.3-.33c-.21-.29-.43-.57-.62-.87a1.77,1.77,0,0,1-.13-.48Z"/><path class="cls-2" d="M120.5,56.1l4.84-.35,0-.44h-4V55l2.16-.4v-.34h-1.71c2.82-2.54,5.95-.81,8.9-1.09l-.12,1c1.35,0,1.55-2.53,3.36-1.28l-1.19,2.21,1.51,1c-.95.26-2.1-.24-2.41,1.08a2,2,0,0,1-1.34,0c-1.58-.8-3-.14-4.52.23A6.29,6.29,0,0,1,120.5,56.1Z"/><path class="cls-2" d="M117.15,54.71l-.6-1c.65-1.57,7.69-2.95,9.8-1.85Z"/><path class="cls-2" d="M157.56,84l4.33-4.77.38.32-1.62,1.73,2.74.93c-.5,1.84-.5,1.83-2.7,1.8C159.75,84,158.82,84,157.56,84Z"/><path class="cls-2" d="M130.42,121.66a3,3,0,0,1-3.9-1c-1.21-1.53-3.19-1.25-4.56-2.38-.36-.3-1.58.44-2.4.7C121.43,116.93,124.51,117.68,130.42,121.66Z"/><path class="cls-2" d="M148.26,50.48a5.3,5.3,0,0,1,.8-1.24c.36-.32.66-.73,1.24.15.9,1.36,2.56.7,3.92.66,1.11,0,2.22-.19,3.6-.31C156.86,50.93,150.23,51.25,148.26,50.48Z"/><path class="cls-2" d="M156.66,46.64c-1,.12-2,.24-3,.35-.48.05-1,.06-1.43.09l-.08-.42,1.35-.56-1.37-.58c2.72-1.37,4.2-1.21,5.83.52l-1.34.64Z"/><path class="cls-2" d="M137.13,123.85a10.24,10.24,0,0,1-3.2.75c-.59,0-1.1-1.16-1.81-2C135.07,122.22,135.07,122.22,137.13,123.85Z"/><path class="cls-2" d="M128.81,50.09c1.44-.57,2.78-1.43,4.45-.17.49.37,1.84-.39,3-.69l1.08.73C134.65,51.05,131.71,50.05,128.81,50.09Z"/><path class="cls-2" d="M143.46,60.94l2.89,2.21-4.66.56Z"/><path class="cls-2" d="M141,51.8c-1.73,2.88-2.3,3-4,1.39Z"/><path class="cls-2" d="M149.12,221.42l4.56,2.67C151.48,224.79,150,223.69,149.12,221.42Z"/><path class="cls-2" d="M142.38,54c.31-2,1.49-2.53,4.9-2.19L142.37,54Z"/><path class="cls-2" d="M157.77,152v-2.09h2.3c.08,1.81-1.35,1.67-2.34,2Z"/><path class="cls-2" d="M88.7,83.19l-2.28-3C89,80.78,89.09,80.88,88.7,83.19Z"/><path class="cls-2" d="M145,49c-2.11,1.65-2.55,1.68-3.18.5Z"/></g></g></svg>