<svg xmlns="http://www.w3.org/2000/svg" viewBox="0 0 251 251"><defs><style>.cls-1{fill:#fff;stroke:#f7f6f2;stroke-miterlimit:10;}.cls-2{fill:#202b36;}</style></defs><title>資產 23</title><g id="圖層_2" data-name="圖層 2"><g id="圖層_2-2" data-name="圖層 2"><circle class="cls-1" cx="125.5" cy="125.5" r="125"/><path class="cls-2" d="M145.81,167.06a2.21,2.21,0,0,0-1-.91,6.8,6.8,0,0,1-3.55-4.7c-.48-1.77-1.05-3.54-2.93-4.44a.82.82,0,0,1-.3-1,8.49,8.49,0,0,0,.37-3.71,13.13,13.13,0,0,0-.2-3.18c-.5-1.45-.88-2.92-1.23-4.4-.19-.81-.51-1.13-1.34-.44s-1.47,1.45-2.7,1c-.58-.23-1-.5-.68-1.08,1.08-2.23-.77-3.5-1.71-5-.67-1.06-1.66-1.93-1.92-3.23-.13-.66-.39-.83-1.06-.52a9.52,9.52,0,0,1-4.42.94c-.78,0-1.41.21-1.49,1.15a1.66,1.66,0,0,1-.88,1.37c-2.47,1.29-4.22,3.41-6.18,5.29a5.67,5.67,0,0,1-2,1.1,1.25,1.25,0,0,0-.93,1.66c.56,2-.19,3.95-.54,5.85-.31,1.66-1.75,2.84-3.05,3.93a.82.82,0,0,1-1.11-.18,3,3,0,0,1-.87-1c-1.61-5.12-4.81-9.67-5.47-15.13a5.8,5.8,0,0,1,0-2.27,1.14,1.14,0,0,0-.34-1.26c-.38-.27-.59.25-.87.42a3.1,3.1,0,0,1-4.2-1.73c-.07-.26-.07-.26.7-.76-1.31-.94-2.79-1.67-3.65-3.17a2.23,2.23,0,0,0-2.53-1.09A30.1,30.1,0,0,1,79,130c-.78-.18-1.31-.52-1.45-1.34s-.45-1.2-1.33-.64a3,3,0,0,1-2.8.25c-2.12-.84-4.2-1.75-5.21-4-.28-.64-.58-1.32-1.37-1.55a1.56,1.56,0,0,0-1.7.27,1.27,1.27,0,0,0-.25,1.65,8.3,8.3,0,0,0,4.17,4.54c.74.34.59,1,.56,1.6-.07,1.17.2,1.35,1.53,1.41,2.66.11,3.64-2,5.29-3.23.5.28.28.68.27,1a2.54,2.54,0,0,0,2.06,2.81,4.07,4.07,0,0,1,2,1.07c1.07,1.08.84,1.81.17,3.11s-2.32,1.63-2.4,3.35c0,.42-1.34,1.19-2.06,1.8a11.16,11.16,0,0,1-4.55,2.06,1.7,1.7,0,0,0-1.35,1.12,1.5,1.5,0,0,1-1,.87q-5.09,2-10.19,3.87c-1.21.45-2,0-2.2-1.27s-1-2.69-.73-4.17a1.12,1.12,0,0,0-.26-.85c-1.59-1.63-2-4.15-4-5.45a2.92,2.92,0,0,1-1.12-2.43,4.88,4.88,0,0,0-1.86-3.66,11.58,11.58,0,0,1-1.86-2.87c-.1-.17-.1-.43-.23-.56-2-2-2.22-4.64-2.79-7.18a3.37,3.37,0,0,1,.12-1.89c.73-2.35,2.24-4.48,2-7.14-.13-1.35-1-2-2.1-1.18-1.37,1-2.51,1.08-3.82-.05-.59-.51-1.36-.8-1.86.26-.08.18-.41.28-.65.34-.83.19-3.72-1.31-4.11-2.09-.29-.58-.39-1.29-1.11-1.57-.08,0-.21-.16-.19-.22.63-2.19-1.11-4.36,0-6.57a1.56,1.56,0,0,1,2.46-.34,4.55,4.55,0,0,0,6,.38,5.25,5.25,0,0,1,5.87.12c2,1.19,4.08,1.08,6.19,1a1.88,1.88,0,0,0,1.81-1.43,2,2,0,0,0-1-2.09c-.21-.14-.44-.26-.64-.41s-.6-.34-.46-.7.55-.3.79-.18c1.42.7,3.17.3,4.46,1.39.08.06.19.15.27.13,2.27-.44,3.4,1.44,4.92,2.47a1,1,0,0,0,1.46-.16c.53-.46.93-.31,1.22.24a3.5,3.5,0,0,0,1.46,1.71c.24.12.39.47.1.6-1.18.55-.89,1.86-1.46,2.74a1.56,1.56,0,0,0,.84,2.39,4.84,4.84,0,0,1,1.29.79c1.32,1.12,2.75.82,4.19.3a.81.81,0,0,0,.55-1c-.1-1.64-.19-3.27-1.38-4.58a1.3,1.3,0,0,1-.07-1.57c.25-.51.69-.32,1.07-.24s1.1.37,1.17-.21a2,2,0,0,0-1.12-1.82c-.5-.29-.8.2-.92.7,0,.12-.16.22-.45.41.35-2.18-1.67-3-2.34-4.61,0-.09-.14-.19-.13-.27.08-.69-1.94-1-.37-2,.69-.44.91-1.43,2-1.53s1.41-1,1.43-2A.69.69,0,0,0,71,91c-1.35-.19-2.62-.36-3.88.57-.76.56-2,1.21-1.88-.87a1.84,1.84,0,0,0-1.29-1.57c-1.72-.71-2.11-4.67-.58-5.81.77-.57,1,.56,1.68.57.06-1.94,1.87-2.48,3-3.57.67-.63,3.66-.09,4.68.63,1.25.88,2.39,1.73,4.17.76a3,3,0,0,1,3.42.34c1,.84,2.18.23,3.16-.06.75-.22.44-1-.23-1.36-1-.51-1.67-.8-.45-2,.42-.43,1.53-1.74.7-3.08-.38-.62.14-1.11.92-1.18C87.4,74,90.12,72.77,93,72c1.21-.31,2.09-1.41,3.66-1,1.18.28,1.72.68,1.77,1.79,0,.76.29.93,1.11,1s2.16-.23,2.48,1.23c.08.37.54.19.81.12a9.35,9.35,0,0,0,1.88-1c.71-.35,1.11-1,2.17.35A51.52,51.52,0,0,1,111,81.21a1.27,1.27,0,0,0,.29.32c1.58-1.28,2.93,1.7,4.63.21.5-.44,1.07.46,1.58.88,1,.84,1.44,2.68,3.36,2a.32.32,0,0,1,.28.08c1.74,2.11,3,0,4.34-.56,1.16-.51,2.16-1.4,3.33-1.84a3.74,3.74,0,0,1,3.74.91c.58.47,3.9,1.2,4.57.88s1-.72.61-1.46a2.25,2.25,0,0,1,.49-2.66,1.43,1.43,0,0,1,2.08-.47,9.27,9.27,0,0,0,2,.71,2.54,2.54,0,0,1,2,1.87,1.94,1.94,0,0,0,2.74,1.2,5.29,5.29,0,0,1,5.79,1.52,3.83,3.83,0,0,0,3,.78,6.66,6.66,0,0,0,4.53-1.49,2.21,2.21,0,0,1,2.76-.37,16,16,0,0,0,3.42,1,2.17,2.17,0,0,0,2.32-1.52,10.25,10.25,0,0,1,1.72-3.53,1,1,0,0,0,.13-1.38c-1.15-1.21,0-1.68.74-2,3.07-1.49,7.8-.64,8.6,3.6a7.21,7.21,0,0,0,.26.88c.66,2,1,4.18,3.75,4.7a2.82,2.82,0,0,1,2,2.14c.35,1.45,1.17,1.77,2.52,1.08.59-.3,1.18-.59,1.78-.86.37-.16.79-.39,1.14,0a1.22,1.22,0,0,1,.27,1.42c-1,1.4-1,3.21-1.91,4.64-.43.66-.76,1-1.68.88s-1.66.31-1.49,1.51a4.29,4.29,0,0,1-.69,3.43c-1.37,1.9-1.75,4.47-4.24,5.6-.78.35-.19,1,.21,1.49a8.65,8.65,0,0,1,2.25,5.21,2.34,2.34,0,0,1-1.6,2.47c-.23.1-.5.12-.73.2-2.65.92-2.68.91-2.28-1.86.14-.94-.78-1.85.11-2.87.24-.27-.56-.91-1.3-.89-1.06,0-1.5-.37-1.07-1.51.57-1.53-.34-2.48-2-2.13a3.83,3.83,0,0,0-1.75.9,2.39,2.39,0,0,1-1.8.85c.32-.91,0-2,1-2.64a.53.53,0,0,0,0-.91c-.4-.28-1-.42-1.24,0-.64,1-2,1.24-2.57,2.34a1.41,1.41,0,0,1-1.31.64c-.44,0-.84.1-.91.61a.79.79,0,0,0,.7.87,1.58,1.58,0,0,1,1.39,1.36c.15.79.76.51,1.14.09,1.24-1.38,2.49-.09,3.68.08.58.08.3,1-.28,1.06-1.31.15-2,1.08-2.89,1.85s-1.88,1.39-.19,2.74c1.21,1,1.35,3,2.49,4.28a1.64,1.64,0,0,1-.06,1.59c-.66.78-1,1.19.37,1.39.58.08.17.53.08.84-.39,1.45-1.53,2.49-2.13,3.8a16.78,16.78,0,0,1-5.62,6.67c-1.27.92-2.78.88-4.1,1.53a37.35,37.35,0,0,1-4.17,1.41c-1,.35-1.27,1-.59,1.88s-.17,1.52-.53,2.14a1.58,1.58,0,0,1-1.83.8,1.14,1.14,0,0,1-.93-.9,1.31,1.31,0,0,1,.84-1.49c1.37-.44,1-1.45.61-2.09a1.73,1.73,0,0,0-2.32-.37,8.61,8.61,0,0,0-1.82,1.33c-1.55,1.49-1.55,2.18-.34,4a10.51,10.51,0,0,0,2.07,2.23,6.73,6.73,0,0,1,2.2,5.77,2.76,2.76,0,0,1-1.82,2.75c-1.59.56-2.52,2-3.91,2.83-.29.17-.51.58-.92.38s-.31-.61-.29-1c0-.77.31-1.52-1.06-1.38-.51.05-1.14-.76-1.42-1.44a2.81,2.81,0,0,0-2.46-2c-.81,0-.77-1.56-1.58-.82-.4.36-.31,1.24-.5,1.87s-.45,1.14-.66,1.71c-.37,1-.37,1,.68,1.56.33.16.08.44.16.64.54,1.35.61,2.81,2.35,3.61s3.18,2.22,2.75,4.61c-.19,1.06.94,1.77,1.17,2.77.09.38.7.68.38,1.06s-.83.08-1.23-.14a2.4,2.4,0,0,0-.44-.13Z"/><path class="cls-2" d="M153.75,167.44c0-1.17.63-1.69,2-1.39.72.16,1.31.22,1.43-.77.08-.66.63-.92,1.21-1a3.4,3.4,0,0,0,2.47-1.62,2.46,2.46,0,0,1,.83-.86,8.8,8.8,0,0,0,3.39-3c.49-.65,1-1.05,1.47,0a3,3,0,0,0,.93,1c1.54,1.17,1.55,1.16.31,2.58a2.65,2.65,0,0,0,.14,3.94c.88.83,1,1.19-.39,1.26-.21,0-.59.25-.59.39,0,2-2.35,3.2-2,5.37.07.4,0,1.13-.34,1-.9-.37-1.72,1-2.54,0a2.35,2.35,0,0,0-2.56-.76,3.81,3.81,0,0,1-4.19-2.23A9.85,9.85,0,0,1,153.75,167.44Z"/><path class="cls-2" d="M192.14,115.68c-1.08,1.66-3.14,2.42-4.17,1.42-.29.91-.55,1.76-.84,2.6-.2.59-.49,1.19-1.22,1.17s-.7-.69-.93-1.19c-.36-.8-.16-2.37-2.06-1.6,1-1.63,2.79-2.1,3.93-3.31a7.32,7.32,0,0,1,5.92-2.1c1.09,0,1.2-1.2,1.65-1.93.21-.33.14-.81.48-1.09s.42-.31.64,0c.52.71.71.8,1.28.25,1.35-1.31,2.67-2.66,2.44-4.82a3.06,3.06,0,0,1,1.33-2.91c.45-.33.94-.37,1.12.2.53,1.75,1.52,3.47.09,5.32-.92,1.19-.79,2.78-1.07,4.19-.24,1.2-.28,1.91-1.86,2.28-1.76.42-3.89.31-5.19,2.24C193,117.36,192.58,116.12,192.14,115.68Z"/><path class="cls-2" d="M149.48,177.15a4.06,4.06,0,0,1-3.7-1.14,21.4,21.4,0,0,1-4.58-5.42c-1.62-2.8-3.32-5.64-6-7.63a5.21,5.21,0,0,1-.88-.84c-.39-.46-1-1-.56-1.61s.89.2,1.34.18c2.71-.15,3.73,2.36,5.55,3.57a26,26,0,0,0,5.18,2.79l0,0c.62,1.09.24,2.49,1.42,3.5.65.56.73,1.32,1.68.43.4-.38.91.07,1,.53s1.22,1.16.59,1.5c-1.46.79-.86,2-1,3.08a10.45,10.45,0,0,0,0,1.07Z"/><path class="cls-2" d="M185.75,169.89c1.42-.07,2.69-1.17,4.26-.45.68.32,1.14.62,1.14,1.4a3.21,3.21,0,0,0,.56,1.7c.54.9,1,1,1.77.22a18.89,18.89,0,0,1,1.75-1.47,1.78,1.78,0,0,1,2-.24,12.42,12.42,0,0,0,2.87,1,1.31,1.31,0,0,1,1.11,1.44c0,2.44,0,4.89,0,7.33,0,.86-.26,1.43-1.11.57s-1.8-.38-2.73-.3c-.39,0-.86.15-1.1-.29a.74.74,0,0,1,.29-.95c1.62-1.11.65-2.31-.15-3-1.65-1.5-4.11-1.36-6-2.53-1.89,1.54-1.43-1.22-2.43-1.32.74-1.65-.77-1.61-1.58-2.09A1,1,0,0,1,185.75,169.89Z"/><path class="cls-2" d="M171,173.1c-.05,1-.12,2-.15,3,0,.71-.39,1.07-1.05,1s-.61-.67-.51-1.21c.15-.81.32-1.58-.69-2.08-.41-.21-.37-.8-.14-1.25a19.56,19.56,0,0,0,1.28-3.88,2.44,2.44,0,0,1,2.79-1.74c1.57.22,3.19.92,4.62-.46a.56.56,0,0,1,.54,0c.26.19.1.47,0,.68a2.31,2.31,0,0,1-2.26,1.27c-1.22-.06-2.44-.05-3.66-.1-.47,0-.94-.07-1.19.44a.94.94,0,0,0,.23,1.12,1.06,1.06,0,0,0,1.35.28,14.1,14.1,0,0,1,2.08-.44c.42-.09.84-.18,1,.34.12.36.47.78.09,1.13s-.7-.07-1.06-.16c-.7-.17-1.47.3-1.15,1s.46,1.78,1.24,2.38c.19.15.49.34.5.52,0,.72.41,1.72-.45,2a1.49,1.49,0,0,1-1.83-1c-.38-1-.84-1.91-1.26-2.86Z"/><path class="cls-2" d="M149.48,177.15a11.07,11.07,0,0,1,4.64,1.31,1.58,1.58,0,0,0,1.33.11c1.94-1,3.71.64,5.6,0,0,.89-.8.55-1,1,.1.09.18.22.24.21a5.39,5.39,0,0,1,2.75.75,5.54,5.54,0,0,0,3.41.1,1.51,1.51,0,0,1,.6-.09c.56.14,1.47,0,1.54.67s-.82.52-1.31.64c-2.08.5-4.06-.43-6.12-.45-2.75,0-5.37-1.06-8.11-1.19-1.65-.08-3.06-1-4.74-1.6a3.91,3.91,0,0,0,1.2-1.46Z"/><path class="cls-2" d="M172.53,148.25a6.07,6.07,0,0,0-.15.84c0,.58.33,1.46-.5,1.46s-.95-.95-1.07-1.63c0-.22.45-.49.15-.79-1.82-1.79-.53-3.78-.35-5.68.07-.73.27-1.57,1.23-1.39.7.13,1.74-.26,1.8,1.33,0,1.14.12,2-.72,2.86-.68.71,0,2.12,1,2.24a2.46,2.46,0,0,1,2.16,3.07c-.17,1.22-1,.51-1.07.38-.31-.54-.24-1.28-1-1.59C173.49,149.13,172.77,149.36,172.53,148.25Z"/><path class="cls-2" d="M200.62,100.24c0,.49.82.77.2,1.22-.31.22-.64.61-1.07.47s-.23-.71-.33-1.07c-.38-1.34.15-2,1.45-2.59s.95-1.86,1.09-2.92c.07-.5-.46-1.23.3-1.44s.9.55,1.24,1c1.44,1.79,2.3,2.14,3.81,1.52.32.41-.11.89.11,1.29.57,1-.18,1.25-.9,1.39s-1.27.22-1.56.81c-.5,1-1.15,1.16-2,.5C202.24,99.85,201.48,100.14,200.62,100.24Z"/><path class="cls-2" d="M173.13,159.23c-.48-1.6.65-3.42,2.21-3.24,1.86.22,2.55-.73,2.93-2.25,1,.66,2,3.45,1.53,4.51-.15.36-.2,1.16-1,.65-.27-.17-.36,0-.32.27.09.57.21,1.31-.62,1.21a2.23,2.23,0,0,1-1.91-1.32c-.19-.45.41-1.37-.51-1.3s-2-.1-2.06,1.35C173.38,159.15,173.22,159.19,173.13,159.23Z"/><path class="cls-2" d="M110.81,157c.05-.28.13-.73.21-1.17s-.25-1.29.39-1.48,1,.52,1.38,1a19.05,19.05,0,0,1,1.12,2,1.61,1.61,0,0,1-.19,2.09,1.8,1.8,0,0,1-1.8.55c-.82-.26-.84-1.06-1-1.74C110.86,157.87,110.86,157.51,110.81,157Z"/><path class="cls-2" d="M173.75,154.13c.42-.5.18-.64-.24-.79-1.13-.41-.61-1.43-.36-1.91s1.09,0,1.42.28a1.92,1.92,0,0,0,1.53.8c-.1.76,1,1.21.66,1.89s-1.19.61-1.79.93S173.7,155,173.75,154.13Z"/><path class="cls-2" d="M170.18,133.76a5,5,0,0,1,1.51-3,.76.76,0,0,1,1-.21.74.74,0,0,1,.32.92,20.75,20.75,0,0,1-.92,2.87c-.19.42-.29,1.3-1,1.1S170.23,134.54,170.18,133.76Z"/></g></g></svg>