<svg xmlns="http://www.w3.org/2000/svg" width="35.253" height="28.202" viewBox="0 0 35.253 28.202">
  <path id="dice" d="M32.609,10.576h-6.54a4.466,4.466,0,0,1-.936,4.92L17.626,23v2.557A2.644,2.644,0,0,0,20.27,28.2H32.609a2.644,2.644,0,0,0,2.644-2.644V13.22A2.644,2.644,0,0,0,32.609,10.576ZM26.439,20.711a1.322,1.322,0,1,1,1.322-1.322A1.322,1.322,0,0,1,26.439,20.711ZM23.885,10.427,14.25.792a2.7,2.7,0,0,0-3.822,0L.792,10.427a2.7,2.7,0,0,0,0,3.822l9.636,9.636a2.7,2.7,0,0,0,3.822,0l9.636-9.636a2.7,2.7,0,0,0,0-3.823ZM5.288,13.66A1.322,1.322,0,1,1,6.61,12.338,1.322,1.322,0,0,1,5.288,13.66Zm7.051,7.051a1.322,1.322,0,1,1,1.322-1.322A1.322,1.322,0,0,1,12.338,20.711Zm0-7.051a1.322,1.322,0,1,1,1.322-1.322A1.322,1.322,0,0,1,12.338,13.66Zm0-7.051A1.322,1.322,0,1,1,13.66,5.288,1.322,1.322,0,0,1,12.338,6.61Zm7.051,7.051a1.322,1.322,0,1,1,1.322-1.322A1.322,1.322,0,0,1,19.389,13.66Z" fill="#fff"/>
</svg>
