<svg xmlns="http://www.w3.org/2000/svg" viewBox="0 0 251 251"><defs><style>.cls-1{fill:#fff;stroke:#f7f6f2;stroke-miterlimit:10;}.cls-2{fill:#202b36;}</style></defs><title>資產 24</title><g id="圖層_2" data-name="圖層 2"><g id="圖層_2-2" data-name="圖層 2"><circle class="cls-1" cx="125.5" cy="125.5" r="125"/><path class="cls-2" d="M115.81,153.18l2.69-1.78c-.66,2.15,1.14,3.84-.51,5.79-.74.87,1.14,4.31,2.44,5.06-2.52,3.2-3.89,3.94-7.51,2.46a7.6,7.6,0,0,0-7.32.69c-.69.49-.77,1.85-1.34,3.37-.92-.2-2.16-.49-3.41-.72-1.66-.3-3.36-.44-5-.85-2.23-.56-4.41-1.3-6.58-2,.92-3.56,2.06-6.53,2.32-9.57.12-1.42.8-4.08-2.11-4.62-.43-.08-1.09-.69-1.1-1.07-.11-3.69-3.38-3.56-5.56-4.77-1-.58-2-1.33-3.32-2.23,4-2.62,7.63,0,11.38-1.15l-.9-4.2a8.61,8.61,0,0,1,1.41.71,4,4,0,0,0,5.37-.42,5.18,5.18,0,0,1,2.39-1.15,3.18,3.18,0,0,0,2.62-2.82,7.06,7.06,0,0,1,1.38-2.25c1.6,1,2.6,1.69,3.65,2.29,2.38,1.37,4.38,3.36,7.11,4.16,2.34.68,4.64,1.51,6.94,2.31a2.33,2.33,0,0,1,1.27.78c.44.83-1.89,4.5-2.52,5.18-1.69,1.84-3.12,3.91-4.65,5.89Z"/><path class="cls-2" d="M132.46,101.61c.44-.51,1.19-1,1.26-1.53a4.41,4.41,0,0,1,1.65-3.52c.72-.56.45-2.38.68-4,1.07-.51,1.57-1.39-.27-2.66a3,3,0,0,1-.78-1.8c-.21-1.19-.27-2.41-.39-3.62-.28-2.62.8-3.77,3.44-3.86a12.81,12.81,0,0,0,2.55-.6L140,78.06c.42-1.16.75-2.12,1.12-3.06.45-1.13.52-2.23,2.19-2.82a5.85,5.85,0,0,0,3.24-3.71c.57-2.77,2-3.34,4.5-3l.56-1.55c2-1.53,5.4,2.37,6-2,2,.56,3.86,1.06,5.73,1.66a3.42,3.42,0,0,1,2.78,2.86,45.68,45.68,0,0,0,2.2,6.58,35.85,35.85,0,0,0-5.21,1.54c-1.41.65-2,1.89-1.83,3.69.08.84-1.09,2.06-2,2.67a35.24,35.24,0,0,1-5.26,2.79c-2.9,1.32-4.1,3.82-4.4,6.67-.18,1.75,0,3.69,2.57,4.25,1.22.27,2.26,1.41,3.4,2.17-1.78,2.21-3,4.52-5.87,5-.37.06-.73,1.05-.85,1.66-.44,2.25-.77,4.51-1.16,6.77-.22,1.25-.8,1.81-2.23,1.62a5,5,0,0,0-2.89.58c-.74.41-1.21,1.33-1.79,2l.43.49-3.35.41c-.11-1.67-1.86-2.92-.58-4.71.09-.12-.49-.7-.73-1.08-1.53-2.34-3.07-4.67-4.56-7a3,3,0,0,1-.18-1.13Z"/><path class="cls-2" d="M66.85,185.57,65.39,184c1.3-1.26,2.06-2.58.68-3.6l4-10.2c-.77-1.3-2.05-2.41-4.37-1.28-.39.19-1.1-.22-1.64-.4-.76-.25-1.51-.55-2.56-.94l-1.35-3.36c1.51-.89,2.93-1.76,4.39-2.56a2.15,2.15,0,0,1,1.12-.12c2,.15,4.1.31,6.14.5,3,.28,6,.91,8.91.8,4.17-.15,7.43,2.54,11.24,3.06,2.95.41,5.78,1.46,8.8,1.46a7.39,7.39,0,0,1,2.43.95,9.85,9.85,0,0,1-2,1.91c-3.65,1.94-7.5,3.44-9.69,7.43-1.4,2.55-1.61,3.22.05,5-1,1.52-1.75,3.15-3,4.24a27,27,0,0,1-6.08,4.29c-1.32.65-3.18.09-4.69.47a30.4,30.4,0,0,0-6.25,2.28c-1.34.68-2.29.52-3-.95a7.25,7.25,0,0,0-2.18-3c-2.11-1.36-2.26-1.61-.44-3.38A12.4,12.4,0,0,0,66.85,185.57Z"/><path class="cls-2" d="M181.39,59.71c-.63,1.32-2.45,2.58-.93,4.16a26.15,26.15,0,0,0,4.08,2.85c-2.5,1.6-2.16,3-.14,4.68a3.83,3.83,0,0,1,1.07,3c-.29,2.62,1.23,4.14,2.9,5.91l-1.07,1.5,5.43,3.33c-2,1.89-3.79,3.65-5.64,5.37-.56.52-1.27.87-1.85,1.37a10.47,10.47,0,0,1-6,2.57,58.2,58.2,0,0,0-7.62,1.73c-1.95.47-3.45-.73-5.1-1.16-3.58-.93-3.36-3.05-3.34-5.58a2.82,2.82,0,0,0-.33-.86c-1.16-3.13-1-3,1.73-4.78,2-1.31,3.63-3.19,5.47-4.76,1-.81,2-1.48,3.26-2.37,0-1.59-.76-2.67-2.8-3.13-.87-.2-2.19-1.59-2.09-2.27.46-3.31-1.37-5.56-3.35-8.36,1.67.11,3,.09,4.34.32,1.88.33,2.72-.93,3.2-2.22a4.53,4.53,0,0,1,6-2.67C179.45,58.73,180.27,59.15,181.39,59.71Z"/><path class="cls-2" d="M124,117.82l5.78,1.93c.22.07.62.08.65.18.82,3.74,2.72.87,4.08.6a34.68,34.68,0,0,0,4.1-1.31c0,2.53,4.85,3.27,2.64,6.25l2.65,7.46-9.49,3.81a11.18,11.18,0,0,0,5.52,6.6L136.69,147l.32.31a17.76,17.76,0,0,0-2.44.47,14.59,14.59,0,0,1-8.92.17,35.1,35.1,0,0,0-5.49-.62l1.47-5c-2.14-1.07-5.71-.85-6.14-4.93.05-.09.61-.86.54-.92-1.88-1.68-.3-3.79-.74-5.62,3.1-1.23,4.25-4,3.13-7.82,1.71-1.66,4.73,1.83,6-1.62Z"/><path class="cls-2" d="M155.6,58.09,157.08,60l1.56-1,.24,1.1,4.47-1.34L163,57.38l3.81,1.09c1.25-2.62,4.49-2.13,6.8-3.49l-2.16,2.88.55.58,3.62-3,1,1.74c.42-.39.81-.8,1.25-1.16.6-.49,1.23-.94,2.07-1.57l.38,3c2.61-3.14,4.7-.46,6.92-.3l0,.68-4.52.3,3.25,2-.23.54c-1.61-.71-3.29-1.31-4.82-2.17a5.07,5.07,0,0,0-7.05,2.74c-.51,1.72-1.31,2.77-3.27,1.82-.28-.13-.67-.39-.85-.29-2.86,1.52-4.78-.41-7.07-1.59-1-.51-2.7.37-4.25.64.51,1.85-.22,2.31-2,2.23-1.42-.07-3.55-1.24-3.92,1.55-2.71-.45-4,.88-4.91,3.7a6.48,6.48,0,0,1-3.51,3.29c-1.27.52-1.25,1.14-1.49,2.13-.28,1.18-1.08,2.22-1.43,3.39a11.66,11.66,0,0,0,0,2.86c-.35,0-1.19.15-2,.18-2.08.06-3.44,1.16-3.47,3.2a31.28,31.28,0,0,0,.45,6c.13.74,1.09,1.33,1.79,2.13-1.67.36-1.82,1.19-1,2.6.29.51-.11,1.55-.44,2.22-.56,1.11-1.31,2.13-2.34,3.73-1.17,0-2.25-.83-1.93-3a2.94,2.94,0,0,0-.55.07c-.2,2.39-1.69,3.52-3.85,4.06a2.88,2.88,0,0,0-1.14.75c-4.24,4-6.24,3-10.78-.26,1.5-.83,2.83-1.67,1.2-3.6-.29-.34.59-1.67.88-2.43l-2.45-.21,0-.42,1.49-.75c-2.5-1.05-1.5-3.13-1.51-4.68,0-.67,1.6-1.49,2.59-2,1.29-.67,2.71-1.09,5.07-2l-1.85-.74c5.56.8,8.07-5,12.2-6.14,1.39-1,2.65-1.51,3.39-2.45a14.6,14.6,0,0,0,2.41-4.37c.92-2.79,3.34-3.15,5.58-4l-.95-.23L152.08,62l-1.84-.62,0-.36h2.16Z"/><path class="cls-2" d="M169.11,128.19c1.22,2.44,2.3,4.47,3.2,6.58.13.32-.55,1.06-1,1.51-1.37,1.52-3.43,2.65-2.5,6-3-2.77-6-1.77-8.91-1.92-2.49-.13-4.85-2.18-7.33-3.24a9.7,9.7,0,0,0-4-.75,18.3,18.3,0,0,0-2.69-1.61c-1.63-.64-3-1.41-3.47-3.27-.6-2.55-1.31-5.07-1.77-7.64-.25-1.4.38-2.39,2-2.82,2.51-.68,4.91-1.79,7.44-2.4,1-.24,2.24.34,3.37.59a16.47,16.47,0,0,0,2.63.66c3.67.18,7.34.17,11,.42a3.22,3.22,0,0,1,2.29,1.38C170.5,123.85,171.89,126.21,169.11,128.19Z"/><path class="cls-2" d="M120.71,164.07c-.37-.33-.77-1-1.14-.94-1.24,0-2.37,0-2.35-1.57a23.48,23.48,0,0,1,.54-2.6,19.56,19.56,0,0,0,0-2.4l4.7-1.69,1.77,1.86c.63-2.06,1.65-2.73,3.83-2.39,1.09.17,2.48-1.55,3.73-2.42a2.51,2.51,0,0,1,3.66.35,2.53,2.53,0,0,0,1.62.8c2.19,0,2.4,1.4,2.52,3a4,4,0,0,1-.42.23c-1.25.49-3.41.77-3.58,1.52a10.53,10.53,0,0,0,.44,5.46c.3.9,1.85,1.34,2.71,2.12a18.13,18.13,0,0,1,2.16,2.46c.9,1.17,1.73,2.38,2.57,3.59a4.49,4.49,0,0,0,4.61,1.93c.89,1.1,1.31,2,2,2.43,2.22,1.37,4.58,2.5,6.8,3.86a2,2,0,0,1,.59,1.9c-1.06-.67-2.19-1.27-3.18-2s-2-.69-2.38.48-.51,2.8.09,3.4c1.24,1.25,1.52,1.64,0,2.93-1.23,1-1.75,2.88-2.64,4.48-2.16-1.33-.3-2.64.11-3,1.32-1,1-1.83.34-2.94-1-1.65-1-4.13-3.73-4.32-.34-2.83-3.47-2.51-4.9-4.28-1-1.19-3.23-1.23-4.5-2.29-2.81-2.36-6.17-4.22-7.59-8A5.39,5.39,0,0,0,127,163.5C123.62,161.55,123.57,161.63,120.71,164.07Z"/><path class="cls-2" d="M80.4,124.93c2.59-.62,5.62-.34,5.07-4.26-1.6-.46-2.48-1.48-.93-3.41l-6.24.6c1.89-2.54,3-4.47-.54-5.35l.83-1.94-.29-.31-2,1.42-.33-.21,4.1-8.85,5.69-.41.66.67-4.6,2.52.85.76h6.73l.47.54-5,6.37c3.75-.66,4.84,1.65,5.55,4.42.09.36.31.93.55,1,2.88.56,2.76,3.54,4.21,5.24.39.46.06,1.54.06,2.5a5.71,5.71,0,0,1,2-.3c.91.19,2.22.49,2.49,1.11s-.44,1.8-1,2.52a26.45,26.45,0,0,1-2.89,2.74l2.25.68c-1.87,2.11-4.39,1.48-6.7,1.64a59.91,59.91,0,0,0-7.47.5,76,76,0,0,0-8.16,2.55c1.55-1.46,2.87-2.89,4.38-4.06s4.19.75,5.12-1.64L77,130.49C78.94,128.92,83.24,129,80.4,124.93Z"/><path class="cls-2" d="M58.34,189.84a27.18,27.18,0,0,1,.37-3.82c.36-1.55-.22-2.42-1.44-3.27-.34-.24-.36-1.47-.07-2,1.93-3.29,3.67-6.58,2.93-10.61-.08-.42.45-.95.78-1.59,1.3,2.14,3,1.33,4.54,1.29a9.14,9.14,0,0,1,2.2.4c-.92,2.62-1.58,4.63-2.34,6.61A21,21,0,0,1,64,179.28l-.72-.14,1,2.22a19,19,0,0,0-.36,3.7C64.38,188.65,62,190.86,58.34,189.84Z"/><path class="cls-2" d="M138.42,148.66l-.15-2.34c3.79-2.19,7.87-3.81,12.77-2l.26,2.57-.55-.16c-.39.82-.72,1.67-1.18,2.45a7.89,7.89,0,0,1-1.56,2.19c-3,2.43-9.58,2-12.5-.58-.48-.42-1.51-.34-2.28-.3-1.69.09-3.37.36-5.06.43-.36,0-.74-.53-1-.75Z"/><path class="cls-2" d="M62.3,123.62l.61-3.41,4.77-.31c1.33.29,2.19,1.94,4.37.69,1.21-.69,3.13,3.39,2.28,5.29-.75,1.69-1.56,3.22-4,3.06a8.4,8.4,0,0,0-3.86,1.14c-3.12,1.5-3.09,1.55-6,0l4.42-5.47Z"/><path class="cls-2" d="M168.91,144.57a8.21,8.21,0,0,0-6.38.16c-2.89,1.2-6.11,4.07-9.69,1.31-.44-.34-1-1.09-.85-1.51s.88-.77,1.41-1.06,1.52-.43,2-.92c2-2.2,3-2.37,5.66-.75a1.36,1.36,0,0,0,.86.22,30.92,30.92,0,0,1,4.38-.84,4,4,0,0,1,2.58,1.05C169.21,142.58,168.91,143.64,168.91,144.57Z"/><path class="cls-2" d="M118.39,124.32c-.39,1.9-3,2.34-1.46,4.27.05.06-.72,1.11-1,1.07-3.18-.57-2.15,1.17-1.15,3.16l-6-1.4c-.11-3.75,2.37-5.91,5.49-7.31C115.37,123.63,116.92,124.21,118.39,124.32Z"/><path class="cls-2" d="M130.65,111.27c-3.07,1.18-4,3.32-4.47,6.08-3.92-.35-3.37-3.81-4.1-5.66,1.87-1.6,3.46-3,5.11-4.34a7.41,7.41,0,0,1,1.65-.77c0,.53.24,1.17,0,1.57C128,109.79,128.43,110.73,130.65,111.27Z"/><path class="cls-2" d="M125.44,176.45c2.32,2.76.77,5.63.86,8.09l-3.58,1.3-.76-7.5Z"/><path class="cls-2" d="M137,190.56l9.91-.68a27.12,27.12,0,0,1-.35,4.4,2.17,2.17,0,0,1-1.9.95c-2.57-1.15-5-2.54-7.55-3.84Z"/><path class="cls-2" d="M75,116.19l1.81,3.1c-1.55,2.05-3.15,1.51-4.53-.06l-2.5.81-.23-.56C71.34,118.32,72.12,115.62,75,116.19Z"/><path class="cls-2" d="M134.09,116.79l-2.93-1.94c1.43-.93,2.57-1.7,3.75-2.4.16-.09.74.15.76.29a2.73,2.73,0,0,1-.06,1.49A26.54,26.54,0,0,1,134.09,116.79Z"/><path class="cls-2" d="M124,174.79a10.05,10.05,0,0,1-.63-3.19c.08-.61,1.14-1.11,1.76-1.65.29.62.91,1.29.81,1.84a15.23,15.23,0,0,1-1.19,3.05Z"/></g></g></svg>