<svg xmlns="http://www.w3.org/2000/svg" viewBox="0 0 251 251"><defs><style>.cls-1{fill:#fff;stroke:#f7f6f2;stroke-miterlimit:10;}.cls-2{fill:#202b36;}</style></defs><title>資產 27</title><g id="圖層_2" data-name="圖層 2"><g id="圖層_2-2" data-name="圖層 2"><circle class="cls-1" cx="125.5" cy="125.5" r="125"/><path class="cls-2" d="M116.36,153.84c-1.87,1.91-3.61,5.14-5.48,5.22-2.54.11-2.29-4-4-6a11.92,11.92,0,0,0-10.22-4.13c-5.19.26-10.68,1.31-15,4-4,2.43-7.57,4-12.19,3.51-2.48-.24-4.26,1.85-6.29,3-3.68,2-6.37.37-9-1.94-1-.91-.86-1.9.06-2.88,1.75-1.87,1.58-4.2.82-6.27-2-5.56-2.91-11.45-5.73-16.83-1.13-2.16.21-5.56.22-8.39,0-7.15,5.85-8.73,10.74-11,3.73-1.72,8.11-2,11.88-3.65,1.42-4.89,3.61-8.52,8-11.17,2.36-1.44,3.27-4.85,6.12-6.38,2-1.08,3.43-1.31,5.14.4,2.24,2.24,3.79,2.33,5.18-1.23,1-2.61,2.19-6,6.23-5.76.26,0,.73-.12.76-.24,1.11-6.19,4.11-.84,6-.78s3.8.61,5.73.62c2.65,0,2.76,1.27,1.68,3.19-.61,1.08-1.22,2.16-1.86,3.23-1.43,2.37-.61,4.08,1.75,5.46a61.13,61.13,0,0,1,6.15,4c3.62,2.74,5.07,2.54,6.5-1.33s.76-7.71,1.63-11.51c.55-2.41.72-6.32,2.67-6.38,2.57-.09,2.38,3.84,3,6.06a9.81,9.81,0,0,0,3.54,5.83c3.08,2.45,2.38,7.1,3.55,10.72.71,2.19,1.09,4.18,3.43,5.24s3.37,3.28,4.79,5.33c2.9,4.2,5.15,8.9,8.84,12.54.54.53,1.62.44,1.6,1.63-.16,9.11,0,18.13-6.84,25.67A30.21,30.21,0,0,0,149.23,166c-.59,2.2-1.78,3.37-4,3.49a6.19,6.19,0,0,0-4.17,1.64c-1.75,1.7-3.37,2.11-5.91,1-2.76-1.18-6,.5-9.13-.88-2.85-1.26-5.38-2.22-5.24-5.94.06-1.51-.62-3-2.24-3-5.09-.21-4.33-2.84-2.74-6C116.13,155.64,116.88,155,116.36,153.84Z"/><path class="cls-2" d="M129.7,63.55c0-2.49,0-5,0-7.48s1-3.62,3.57-2.32c4.42,2.21,9.79,2.95,12.13,8.31.35.79,1.88,1.05,2.84,1.59s1.78,1,1.66,2.14c-.51,5.2,1.49,7.85,6.93,9,1.43.3,2.45,1.08,2.07,2.52-.3,1.16-1.24,2.4-2.74,2-3.62-1-7.51-1.19-10-5.1-3.28-5.22-5.33-5.17-9.08-.63-1.46,1.77-3.25,1.84-5.26,1.37-2.18-.51-2.19-2.21-2.2-3.9,0-2.49,0-5,0-7.47Z"/><path class="cls-2" d="M213.12,158.41c2.32,1.12,2.93,3.46,4.12,4.5,2.17,1.91,1.75,7.74,7.28,5.53,1.58-.63,1.56,1.58.8,2.14-4.51,3.29-6.26,10-12.93,10.6A2.16,2.16,0,0,0,211,182c-1.32,1.82-6.4,3.09-12.77,12.47-2.09,3.08-5.23,4.21-9.15,2.65-2.43-1-2.89-1.89-1.14-3.79a18.53,18.53,0,0,1,6.63-4.93,24.64,24.64,0,0,0,10.11-7.76c1.13-1.41,1.82-3,4.29-1.81,1.23.57,3.37,1,4.63-.58,1.45-1.8-.79-2.22-1.43-3.24a1.24,1.24,0,0,1,.38-1.81c4.14-3,3-6.67,1.31-10.41A6.7,6.7,0,0,1,213.12,158.41Z"/><path class="cls-2" d="M134.39,178.52c1.78,1.06,3.81.75,5.85.36a1.44,1.44,0,0,1,1.72.8c.89,2.25-.67,4-1.48,5.77a4.31,4.31,0,0,1-4.11,2.24c-1.95,0-2.73-1.62-3.18-3.28a28.26,28.26,0,0,1-.84-4C132.2,179.12,132.7,178.23,134.39,178.52Z"/></g></g></svg>