<svg xmlns="http://www.w3.org/2000/svg" width="21" height="21" viewBox="0 0 21 21">
  <g id="fav_brown" transform="translate(-1128 -818)">
    <rect id="Rectangle_332" data-name="Rectangle 332" width="21" height="21" transform="translate(1128 818)" fill="none" opacity="0.21"/>
    <path id="Icon_ionic-ios-heart" data-name="Icon ionic-ios-heart" d="M18.721,3.938h-.05a5.744,5.744,0,0,0-4.8,2.625,5.744,5.744,0,0,0-4.8-2.625h-.05a5.707,5.707,0,0,0-5.654,5.7,12.288,12.288,0,0,0,2.413,6.7,42.286,42.286,0,0,0,8.087,7.789,42.286,42.286,0,0,0,8.087-7.789,12.288,12.288,0,0,0,2.413-6.7A5.707,5.707,0,0,0,18.721,3.938Z" transform="translate(1124.625 814.466)" fill="#996a4d"/>
  </g>
</svg>
