<svg xmlns="http://www.w3.org/2000/svg" width="21" height="21" viewBox="0 0 21 21">
  <g id="fav_white" transform="translate(-1124 -834)">
    <path id="Icon_ionic-ios-heart-empty" data-name="Icon ionic-ios-heart-empty" d="M18.721,3.938h-.05a5.744,5.744,0,0,0-4.8,2.625,5.744,5.744,0,0,0-4.8-2.625h-.05a5.707,5.707,0,0,0-5.654,5.7,12.288,12.288,0,0,0,2.413,6.7,42.286,42.286,0,0,0,8.087,7.789,42.286,42.286,0,0,0,8.087-7.789,12.288,12.288,0,0,0,2.413-6.7A5.707,5.707,0,0,0,18.721,3.938Zm2.1,11.57a38.718,38.718,0,0,1-6.946,6.845A38.776,38.776,0,0,1,6.929,15.5a10.89,10.89,0,0,1-2.14-5.861,4.283,4.283,0,0,1,4.25-4.286h.045a4.232,4.232,0,0,1,2.075.545A4.411,4.411,0,0,1,12.694,7.34a1.418,1.418,0,0,0,2.373,0A4.455,4.455,0,0,1,16.6,5.9a4.232,4.232,0,0,1,2.075-.545h.045a4.283,4.283,0,0,1,4.25,4.286A11.028,11.028,0,0,1,20.821,15.508Z" transform="translate(1120.625 830.466)" fill="#996a4d"/>
    <rect id="Rectangle_331" data-name="Rectangle 331" width="21" height="21" transform="translate(1124 834)" fill="none" opacity="0.21"/>
  </g>
</svg>
