<svg xmlns="http://www.w3.org/2000/svg" width="45" height="43" viewBox="0 0 45 43">
  <g id="Group_278" data-name="Group 278" transform="translate(-664.239 -3708.611)">
    <path id="Icon_simple-instagram" data-name="Icon simple-instagram" d="M14.493,0c-3.937,0-4.429.018-5.975.087A10.687,10.687,0,0,0,5,.761,7.1,7.1,0,0,0,2.432,2.432,7.072,7.072,0,0,0,.761,5,10.656,10.656,0,0,0,.087,8.518C.014,10.064,0,10.556,0,14.493s.018,4.429.087,5.975a10.694,10.694,0,0,0,.674,3.518,7.108,7.108,0,0,0,1.672,2.568A7.087,7.087,0,0,0,5,28.225a10.7,10.7,0,0,0,3.518.674c1.546.072,2.037.087,5.975.087s4.429-.018,5.975-.087a10.725,10.725,0,0,0,3.518-.674,7.407,7.407,0,0,0,4.239-4.239,10.694,10.694,0,0,0,.674-3.518c.072-1.546.087-2.037.087-5.975s-.018-4.429-.087-5.975A10.718,10.718,0,0,0,28.225,5a7.113,7.113,0,0,0-1.672-2.568A7.061,7.061,0,0,0,23.986.761,10.662,10.662,0,0,0,20.468.087C18.922.014,18.43,0,14.493,0Zm0,2.609c3.868,0,4.33.019,5.858.086a7.985,7.985,0,0,1,2.69.5,4.769,4.769,0,0,1,2.751,2.75,8,8,0,0,1,.5,2.69c.069,1.529.085,1.988.085,5.858s-.018,4.33-.089,5.858a8.156,8.156,0,0,1-.508,2.69,4.6,4.6,0,0,1-1.086,1.669,4.522,4.522,0,0,1-1.667,1.082,8.061,8.061,0,0,1-2.7.5c-1.539.069-1.992.085-5.869.085s-4.331-.018-5.869-.089a8.218,8.218,0,0,1-2.7-.508,4.488,4.488,0,0,1-1.666-1.086,4.4,4.4,0,0,1-1.087-1.667,8.225,8.225,0,0,1-.507-2.7c-.054-1.522-.074-1.992-.074-5.85s.019-4.331.074-5.871a8.216,8.216,0,0,1,.507-2.7A4.3,4.3,0,0,1,4.222,4.238,4.287,4.287,0,0,1,5.888,3.153,8.022,8.022,0,0,1,8.57,2.645c1.54-.054,1.993-.072,5.869-.072l.054.036Zm0,4.442a7.442,7.442,0,1,0,7.442,7.442A7.442,7.442,0,0,0,14.493,7.051Zm0,12.273a4.831,4.831,0,1,1,4.831-4.831A4.83,4.83,0,0,1,14.493,19.324ZM23.969,6.757A1.739,1.739,0,1,1,22.23,5.019,1.74,1.74,0,0,1,23.969,6.757Z" transform="translate(672.34 3716.507)" fill="#faf9f2"/>
    <rect id="Rectangle_300" data-name="Rectangle 300" width="45" height="43" transform="translate(664.239 3708.611)" fill="none"/>
  </g>
</svg>
