<svg xmlns="http://www.w3.org/2000/svg" viewBox="0 0 170.33 139.6"><defs><style>.cls-1,.cls-10,.cls-11,.cls-6,.cls-7,.cls-9{fill:#3c8c09;}.cls-2{font-size:7.59px;}.cls-2,.cls-3{fill:#0ec12b;font-family:AgencyFB-Bold, Agency FB;font-weight:700;}.cls-3{font-size:6.17px;}.cls-4{fill:#23b709;}.cls-5{fill:#f98800;}.cls-10,.cls-6,.cls-7,.cls-9{font-size:12.98px;}.cls-10,.cls-6{font-family:AdobeMingStd-Light-B5pc-H, Adobe Ming Std;}.cls-11,.cls-7,.cls-9{font-family:BaskOldFace, Baskerville Old Face;}.cls-8{font-size:22.36px;}.cls-9{letter-spacing:0em;}.cls-10{letter-spacing:0em;}.cls-11{font-size:30.08px;letter-spacing:0em;}.cls-12{fill:#fff;}.cls-13{opacity:0.2;}</style></defs><title>資產 23</title><g id="圖層_2" data-name="圖層 2"><g id="圖層_1-2" data-name="圖層 1"><path class="cls-1" d="M88.15,1.56A4.15,4.15,0,0,1,91.87.25a57.47,57.47,0,0,1,21.82,8.17c5.22,3.2,10.19,6.61,14.38,11.08.7.74,1.34,1.55,2,2.33a2.41,2.41,0,0,1,.3,1A65.59,65.59,0,0,0,111.16,8.4C104,4.77,96.65,1.74,88.15,1.56Z"/><path class="cls-1" d="M35.53,24.44A85,85,0,0,0,21.88,53.53a13.14,13.14,0,0,1,.34-6.37A97.46,97.46,0,0,1,27,34.4a4,4,0,0,1,2.8-2.68c.48-.08.5-.62.53-1h0l2.87-4.19-.18-.16-1.14.7C32.65,25.22,34.57,25.55,35.53,24.44Z"/><path class="cls-1" d="M30.38,30.67l0,0,0,0Z"/><path class="cls-1" d="M112.37,120.21c-2.48,2.36-6.3,3.75-9.58,4.69A63.08,63.08,0,0,1,81,127.37a7.65,7.65,0,0,1-3.5-.67v0a73.89,73.89,0,0,0,12.23-.35c7.2-1.1,14.67-2.56,21.31-5.73a9.42,9.42,0,0,1,1.38-.42Z"/><path class="cls-1" d="M65.33,4.06c-9.65,3.54-18.19,9.35-26.2,16.26C45.69,11.93,54.85,6.71,65.33,4.06Z"/><path class="cls-1" d="M65.83,124.17a39,39,0,0,1-14-4.55A14.08,14.08,0,0,1,48,116.84a4.23,4.23,0,0,1,3,.53c4.64,2.56,9.24,5.17,14.44,6.48.15,0,.27.23.4.35Z"/><path class="cls-1" d="M122.29,114.3c1.28-2,3.57-2.94,5.11-4.72,3.13-3.62,6.2-6.6,8.59-10.86.22-.39,5.31-9.24,6.15-9.25-1.61,4.45-9.48,16.62-13.06,19.86-2.13,1.92-4.07,3.8-6.81,5Z"/><path class="cls-1" d="M85.61.46c-.22.06-.61.1-.63.2-.15.83.77.12.94.72A77.79,77.79,0,0,0,67.08,3.5c.7-.75,1.65-.65,2.49-.84C73.38,1.83,77.16.82,81.12.86c.63,0,1.84.72,2.08-.82a16.4,16.4,0,0,1,2.38,0Z"/><path class="cls-1" d="M122.29,114.3a21.84,21.84,0,0,1-4.4,3.65c-.1-.14-.24-.64-.33-.78,1.58-1,3.24-1.2,4.82-2.15Z"/><path class="cls-1" d="M53.16,7.66c1.2-1.57,3-2,4.76-2.43l0,0c-1.28,1.4-3.07,1.84-4.77,2.43Z"/><path class="cls-1" d="M76.51.62l-4.66.58,0-.11L76.44.2Z"/><path class="cls-1" d="M57.93,5.23A13.81,13.81,0,0,1,62.28,3.6c-1.41.67-2.73,1.57-4.37,1.61Z"/><path class="cls-1" d="M65.81,124.19a7.72,7.72,0,0,1,3.77,1l0,0a4.57,4.57,0,0,1-3.77-1Z"/><path class="cls-1" d="M44.92,114.4c1,.14,1.39,1,1.9,1.62-.28-.24-.62-.39-.92-.61C45.36,115,45.28,114.72,44.92,114.4Z"/><path class="cls-1" d="M77.5,126.7a4.81,4.81,0,0,1-3.72-.63l0,0a13.08,13.08,0,0,1,3.73.63Z"/><path class="cls-1" d="M114.16,119.31c.4-.91,1.37-.78,2.08-1.13a2.53,2.53,0,0,1-2.1,1.11Z"/><path class="cls-1" d="M69.58,125.19a2.36,2.36,0,0,1,1.86.49c-.44.46-1.56-.22-1.84-.51Z"/><path class="cls-1" d="M53.14,7.64a1.64,1.64,0,0,1-1.34,1,1.81,1.81,0,0,1,1.37-1Z"/><path class="cls-1" d="M36.48,21.2l-.39.3c-.09-.08-.13-.21-.1-.24a1,1,0,0,1,.37-.34C36.46,21,36.43,21.09,36.48,21.2Z"/><path class="cls-1" d="M37.73,21.19c.14.07.2.24.29.29-.1.11-.15.29-.38.32,0,0-.15-.1-.25-.15Z"/><path class="cls-1" d="M30.34,30.68c-.21,0-.44.1-.5-.2,0-.07.11-.23.18-.24C30.33,30.23,30.32,30.47,30.34,30.68Z"/><polygon class="cls-1" points="30.38 30.67 30.34 30.72 30.34 30.68 30.38 30.67"/><path class="cls-1" d="M112.4,120.23a3,3,0,0,1,1.76-.91l0,0a1.72,1.72,0,0,1-1.76.92Z"/><path class="cls-1" d="M36.91,23.12a.24.24,0,0,1-.28-.17,1.27,1.27,0,0,1,.29-.37.72.72,0,0,1,.21.14C37.17,22.89,37,23,36.91,23.12Z"/><path class="cls-1" d="M73.77,126.07c-.23.32-1.08.36-1.15-.22a1.11,1.11,0,0,1,1.13.25Z"/><path class="cls-1" d="M51,120.19a56.69,56.69,0,0,1-12.76-8.09,9.72,9.72,0,0,1-2.45-3.27,4.23,4.23,0,0,1,2.8,1.15c4,3.49,6.83,7.16,11.63,9.55.14.07.83.6.76.5Z"/><path class="cls-1" d="M135.64,104.26a19.63,19.63,0,0,1-2.75,4.79l-.43-.27c1.06-1.51,2.3-2.7,3.36-4.21Z"/><path class="cls-1" d="M84.53,129.75a7.73,7.73,0,0,1,3.89-.1v0a6,6,0,0,1-3.89.1Z"/><path class="cls-1" d="M61.71,126.19c1-.14,1.6.53,2.28,1Z"/><path class="cls-1" d="M96.45,128.89a6.69,6.69,0,0,1-3.75.43v0a13.08,13.08,0,0,1,3.75-.44Z"/><path class="cls-1" d="M129.55,111.55c.13-1,1.1-1.13,1.68-1.66a3.74,3.74,0,0,1-1.71,1.65Z"/><path class="cls-1" d="M88.42,129.65a2.36,2.36,0,0,1,1.92,0c-.69.45-1.3.13-1.91,0Z"/><path class="cls-1" d="M128.12,112.92c.39-.55.73-1.15,1.43-1.37h0a2.9,2.9,0,0,1-1.43,1.37Z"/><path class="cls-1" d="M92.69,129.32a1.18,1.18,0,0,1-1.17.11,1.11,1.11,0,0,1,1.16-.08Z"/><path class="cls-1" d="M139.88,87.61"/><path class="cls-1" d="M144.35,80.79a14,14,0,0,1-1.06,5.41l-.5-.12c.52-1.76,1.19-3.42,1.83-5.06Z"/><path class="cls-1" d="M141.73,89.94c-.32-.95.49-1.5.78-2.23a3.73,3.73,0,0,1-.81,2.23Z"/><path class="cls-1" d="M130.72,23.59c3.37,5.38,6.4,10.14,8.37,16.19a4,4,0,0,0-.29-2.58c-1.36-3.64-2.53-7-4.71-10.28Z"/><path class="cls-1" d="M137.83,33.48c.53,1.23,1.11,2.52,1.9,4.37,0,0,0-.13,0-.16s-.28-.75-.31-.83c-.11-.26-.22-.53-.34-.79s-.28-.63-.41-1-.24-.63-.38-.94a2.15,2.15,0,0,0-.14-.27l-.12-.2C138,33.64,137.93,33.44,137.83,33.48Z"/><path class="cls-1" d="M21.56,58.07a5.28,5.28,0,0,1-.09-5l.09,5Z"/><text class="cls-2" transform="matrix(1.38, 0.45, -0.31, 0.95, 63.89, 116.76)">J</text><text class="cls-2" transform="matrix(1.41, 0.35, -0.24, 0.97, 68.68, 118.25)"> </text><text class="cls-2" transform="matrix(1.42, 0.29, -0.2, 0.98, 71.07, 118.85)"> </text><text class="cls-2" transform="matrix(1.43, 0.23, -0.16, 0.99, 73.45, 119.33)"> </text><text class="cls-2" transform="matrix(1.44, 0.13, -0.09, 0.99, 75.95, 119.77)">U</text><text class="cls-2" transform="matrix(1.45, 0.03, -0.02, 1, 81.43, 120.2)"> </text><text class="cls-2" transform="matrix(1.45, -0.03, 0.02, 1, 83.87, 120.24)"> </text><text class="cls-2" transform="matrix(1.45, -0.09, 0.07, 1, 86.29, 120.18)"> </text><text class="cls-2" transform="matrix(1.43, -0.21, 0.14, 0.99, 88.89, 120.08)">M</text><text class="cls-2" transform="matrix(1.41, -0.31, 0.22, 0.97, 95.18, 119.09)"> </text><text class="cls-2" transform="matrix(1.4, -0.37, 0.26, 0.96, 97.56, 118.56)"> </text><text class="cls-2" transform="matrix(1.38, -0.43, 0.3, 0.95, 99.91, 117.93)"> </text><text class="cls-2" transform="matrix(1.35, -0.52, 0.36, 0.93, 102.32, 117.22)">P</text><text class="cls-2" transform="matrix(1.31, -0.61, 0.42, 0.91, 107.16, 115.3)"> </text><text class="cls-2" transform="matrix(1.29, -0.66, 0.46, 0.89, 109.36, 114.28)"> </text><text class="cls-2" transform="matrix(1.26, -0.71, 0.5, 0.87, 111.53, 113.17)"> </text><text class="cls-2" transform="matrix(1.22, -0.79, 0.55, 0.84, 113.73, 111.95)">E</text><text class="cls-2" transform="matrix(1.18, -0.84, 0.58, 0.81, 117.55, 109.41)"> </text><text class="cls-2" transform="matrix(1.13, -0.9, 0.63, 0.78, 119.49, 108.01)"> </text><text class="cls-2" transform="matrix(1.09, -0.95, 0.66, 0.75, 121.37, 106.51)"> </text><text class="cls-2" transform="matrix(1.03, -1.02, 0.71, 0.71, 123.33, 104.87)">R</text><text class="cls-2" transform="matrix(0.96, -1.08, 0.75, 0.66, 127.06, 101.11)"> </text><text class="cls-3" transform="matrix(0.67, -1.38, 0.9, 0.44, 38.51, 41.94)">O</text><text class="cls-3" transform="matrix(0.77, -1.33, 0.87, 0.5, 40.49, 37.97)"> </text><text class="cls-3" transform="matrix(0.83, -1.3, 0.84, 0.54, 41.45, 36.3)"> </text><text class="cls-3" transform="matrix(0.91, -1.24, 0.8, 0.59, 42.42, 34.69)">N</text><text class="cls-3" transform="matrix(1, -1.17, 0.76, 0.65, 45.1, 31.12)"> </text><text class="cls-3" transform="matrix(1.04, -1.13, 0.73, 0.68, 46.35, 29.66)"> </text><text class="cls-3" transform="matrix(1.11, -1.07, 0.69, 0.72, 47.62, 28.24)">L</text><text class="cls-3" transform="matrix(1.17, -1, 0.65, 0.76, 50.11, 25.87)"> </text><text class="cls-3" transform="matrix(1.2, -0.96, 0.62, 0.78, 51.56, 24.62)"> </text><text class="cls-3" transform="matrix(1.24, -0.91, 0.59, 0.81, 53.06, 23.43)">I</text><text class="cls-3" transform="matrix(1.28, -0.86, 0.56, 0.83, 54.64, 22.27)"> </text><text class="cls-3" transform="matrix(1.31, -0.81, 0.52, 0.85, 56.23, 21.2)"> </text><text class="cls-3" transform="matrix(1.36, -0.72, 0.47, 0.88, 57.82, 20.17)">N</text><text class="cls-3" transform="matrix(1.4, -0.63, 0.41, 0.91, 61.78, 18.11)"> </text><text class="cls-3" transform="matrix(1.43, -0.58, 0.37, 0.93, 63.55, 17.32)"> </text><text class="cls-3" transform="matrix(1.46, -0.5, 0.32, 0.95, 65.3, 16.58)">E</text><text class="cls-3" transform="matrix(1.48, -0.42, 0.27, 0.96, 68.78, 15.41)"> </text><text class="cls-3" transform="matrix(1.5, -0.36, 0.23, 0.97, 70.65, 14.89)"> </text><text class="cls-3" transform="matrix(1.51, -0.3, 0.2, 0.98, 72.5, 14.44)"> </text><text class="cls-3" transform="matrix(1.52, -0.25, 0.16, 0.99, 74.38, 14.06)"> </text><text class="cls-3" transform="matrix(1.53, -0.19, 0.12, 0.99, 76.29, 13.75)"> </text><text class="cls-3" transform="matrix(1.53, -0.11, 0.07, 1, 78.15, 13.5)">T</text><text class="cls-3" transform="matrix(1.54, -0.03, 0.02, 1, 81.78, 13.27)"> </text><text class="cls-3" transform="matrix(1.54, 0.03, -0.02, 1, 83.73, 13.23)"> </text><text class="cls-3" transform="matrix(1.53, 0.12, -0.08, 1, 85.62, 13.24)">R</text><text class="cls-3" transform="matrix(1.52, 0.21, -0.14, 0.99, 89.91, 13.61)"> </text><text class="cls-3" transform="matrix(1.51, 0.27, -0.17, 0.98, 91.82, 13.88)"> </text><text class="cls-3" transform="matrix(1.5, 0.35, -0.23, 0.97, 93.68, 14.17)">A</text><text class="cls-3" transform="matrix(1.47, 0.44, -0.29, 0.96, 97.79, 15.18)"> </text><text class="cls-3" transform="matrix(1.46, 0.5, -0.32, 0.95, 99.63, 15.73)"> </text><text class="cls-3" transform="matrix(1.42, 0.58, -0.38, 0.93, 101.42, 16.31)">V</text><text class="cls-3" transform="matrix(1.39, 0.67, -0.43, 0.9, 105.26, 17.91)"> </text><text class="cls-3" transform="matrix(1.36, 0.72, -0.47, 0.88, 107.01, 18.75)"> </text><text class="cls-3" transform="matrix(1.32, 0.79, -0.52, 0.86, 108.68, 19.61)">E</text><text class="cls-3" transform="matrix(1.27, 0.86, -0.56, 0.83, 111.84, 21.53)"> </text><text class="cls-3" transform="matrix(1.24, 0.91, -0.59, 0.81, 113.41, 22.6)"> </text><text class="cls-3" transform="matrix(1.19, 0.98, -0.64, 0.77, 114.96, 23.71)">L</text><path class="cls-1" d="M62.48,25a3.2,3.2,0,0,0-2.42.27A39.59,39.59,0,0,0,49.9,34.77a39,39,0,0,0-5.31,8.7c-.21.51-.52,1.83-.7,2.34,0,.11.2-.22.26-.1a38.06,38.06,0,0,1,7.18-11.47A37.43,37.43,0,0,1,62.48,25Z"/><path class="cls-1" d="M101.77,21.46c-.85-.38-1.74-.69-2.6-1l-.76-.29a9.15,9.15,0,0,0-2.7-.51c-.19,0-.66.43-.81.3.45.12,1.28.15,1.72.31l1.59.58q1.58.6,3.14,1.29a57.39,57.39,0,0,1,6.07,3.12q1,.6,2,1.23c.8.52,1.57,1.08,2.32,1.67s1.21,1,1.8,1.52c0,0,.47.36.52.42,3.65,4.22.37-.27-.35-1a7.6,7.6,0,0,0-1-.77c-1.19-.9-2.43-1.8-3.69-2.61s-2.44-1.49-3.68-2.21c-1-.57-1.95-1.16-3-1.67Z"/><path class="cls-1" d="M75.82,19.87a47.93,47.93,0,0,1,18.59-.14A32.68,32.68,0,0,0,75.82,19.87Z"/><path class="cls-1" d="M63.63,23.86c.14,0,.36-.12.4-.09.29.32-.4.26-.35.57a61,61,0,0,1,11-4.23,3.39,3.39,0,0,0-1.68,0,40.32,40.32,0,0,0-6.88,2.38c-.35.17-.57.6-1.36.21,0,0-.86.44-1.32.67C63.49,23.4,63.6,23.8,63.63,23.86Z"/><path class="cls-1" d="M83.43,17.91a5.76,5.76,0,0,0-3.25.25h0a7.78,7.78,0,0,0,3.25-.25Z"/><path class="cls-1" d="M68.76,21.16c1.51-.56,1.67-.68,2.74-1,0,0,0,0,0-.06-1,.24-1.78.56-2.79.88A.14.14,0,0,0,68.76,21.16Z"/><path class="cls-1" d="M80.19,18.22a10.53,10.53,0,0,0-2.83.49,8.29,8.29,0,0,0,2.83-.5Z"/><path class="cls-1" d="M83.58,17.94a1.08,1.08,0,0,0,1,.08,1.22,1.22,0,0,0-1-.07Z"/><path class="cls-1" d="M95.45,19.78l-.14.16a1.13,1.13,0,0,0,.25.06s.08-.08.12-.13Z"/><line class="cls-1" x1="101.85" y1="21.82" x2="101.82" y2="21.81"/><path class="cls-1" d="M89.81,108.07a20.85,20.85,0,0,0,7.27-1.15,52.33,52.33,0,0,0,14-6.39,5.69,5.69,0,0,0,1.86-1.64h0c-2.66,1.35-4.87,2.77-7.52,3.91-4.69,2-9.67,4-14.74,4.65-.33,0-.56.53-.88.62Z"/><path class="cls-1" d="M119,93.27a40,40,0,0,0,6.7-7.78,7.58,7.58,0,0,0,1.41-2.69c-.79.3-1.35.46-1.69,1a43.53,43.53,0,0,1-6.37,8.77c-.08.08-.08.22-.12.34Z"/><path class="cls-4" d="M81.82,108.48c-1.47-.63-3.16-.31-4.71-.71-3.14-.82-6.16-1.24-9.08-2.68-.27-.13-7.61-3-8.11-2.73,2.52,1.83,12.74,5.24,16,5.69a47.82,47.82,0,0,0,5.9.41Z"/><path class="cls-4" d="M81.46,108.54c1.46.3,3.14-.45,4.42-.5,0-.11,2,.6,2,.49l-5.51.26Z"/><path class="cls-1" d="M119,93.27a2.24,2.24,0,0,0-1.91,1.91h0A4.42,4.42,0,0,0,119,93.27Z"/><path class="cls-5" d="M128.12,80.36c-1.08,0-1,1-.64,1.79Z"/><path class="cls-1" d="M112.93,98.89a5,5,0,0,0,2-1.7h0a2.66,2.66,0,0,0-2,1.7Z"/><path class="cls-4" d="M88.43,108.23a2.52,2.52,0,0,0-1.73-.2c.55.09,1.19.42,1.73.18Z"/><path class="cls-1" d="M117.14,95.18c-.49-.08-.86.21-.94.94.55-.16.68-.6.92-.95Z"/><path class="cls-4" d="M89.8,108.09a1.73,1.73,0,0,0-1.37.15v0a2.16,2.16,0,0,0,1.37-.14Z"/><path class="cls-1" d="M114.94,97.19c.22-.11.83-.37,1-.75-.44-.25-1,.46-.94.75Z"/><path class="cls-1" d="M5.39,98.38l-2.7-17.7L0,62.85l0-.29.29,0,40.27-5.87,40.3-5.6,40.31-5.56,40.27-5.84.27,0,0,.27L167,75.39l.06.43-.43.06L126.26,81.7,85.87,87.38Zm.06-.08L86.12,86.41l40.19-5.76L166.51,75l-.37.49L161.21,40l.31.23-40.3,5.6L80.95,51.68,40.68,57.52.38,63.1l.25-.33,2.44,17.7Z"/><text class="cls-6" transform="matrix(0.93, -0.13, 0.14, 0.99, 16.9, 86.92)">★</text><text class="cls-7" transform="matrix(0.9, -0.12, 0.14, 0.99, 29, 85.24)"><tspan xml:space="preserve">  </tspan><tspan class="cls-8" x="6.49" y="0">A F R I C A</tspan></text><text class="cls-9" transform="matrix(1.17, -0.16, 0.14, 0.99, 132.03, 70.92)"><tspan xml:space="preserve">  </tspan></text><text class="cls-10" transform="matrix(0.93, -0.13, 0.14, 0.99, 139.6, 69.87)">★</text><text class="cls-11" transform="matrix(1.17, -0.16, 0.14, 0.99, 151.7, 68.19)"><tspan xml:space="preserve">  </tspan></text><path class="cls-4" d="M6.27,96.49a6.59,6.59,0,0,1,3.56-.1v0a5.14,5.14,0,0,1-3.56.1Z"/><path class="cls-4" d="M17.14,95.65a5.61,5.61,0,0,1-3.41.43v0a10.93,10.93,0,0,1,3.41-.43Z"/><path class="cls-4" d="M9.83,96.39a2,2,0,0,1,1.76,0c-.59.44-1.18.13-1.75,0Z"/><path class="cls-4" d="M13.73,96.07a1,1,0,0,1-1.06.1,1,1,0,0,1,1.05-.07Z"/><path class="cls-12" d="M44.33,51.36a7.73,7.73,0,0,1,3.87-.47v0a6,6,0,0,1-3.87.47Z"/><path class="cls-12" d="M56.11,49.37a6.69,6.69,0,0,1-3.69.79v0a13.08,13.08,0,0,1,3.69-.79Z"/><path class="cls-12" d="M48.2,50.89a2.36,2.36,0,0,1,1.91-.23c-.64.51-1.28.25-1.9.2Z"/><path class="cls-12" d="M52.42,50.15a1.18,1.18,0,0,1-1.15.22,1.11,1.11,0,0,1,1.14-.19Z"/><path class="cls-12" d="M82.13,85.13a10.33,10.33,0,0,1,5.24.47l0,0a8.05,8.05,0,0,1-5.24-.47Z"/><path class="cls-12" d="M98.24,85.8a8.93,8.93,0,0,1-5.1,0l0,0a17.46,17.46,0,0,1,5.1,0Z"/><path class="cls-12" d="M87.37,85.59a3.16,3.16,0,0,1,2.59.23c-1,.51-1.76,0-2.57-.27Z"/><path class="cls-12" d="M93.15,85.81a1.58,1.58,0,0,1-1.58,0,1.48,1.48,0,0,1,1.56.08Z"/><path class="cls-12" d="M.78,75.74A15.07,15.07,0,0,1,6.24,84L6.31,84A11.81,11.81,0,0,1,.86,75.69Z"/><path class="cls-12" d="M18.71,99.6c-2.51-1.63-5-3.31-6-7.07l-.08.06c2.13,2.18,4.64,3.81,6,7.06Z"/><path class="cls-12" d="M6.24,84c1.16.93,2.62,1.49,2.69,4.09C7,87.83,6.89,85.6,6.31,84Z"/><path class="cls-12" d="M12.71,92.53c-.72-.35-1.66-.38-1.8-2.27,1.26.18,1.56,1.15,1.72,2.34Z"/><path class="cls-12" d="M143,81.77a14.68,14.68,0,0,1,7.94-1.87v-.07A11.47,11.47,0,0,1,143,81.7Z"/><path class="cls-12" d="M166.88,74.8c-2.24,1.38-4.49,2.73-7.41,2.55v.07c2.41-1,4.65-2.36,7.41-2.56Z"/><path class="cls-12" d="M150.91,79.89c1.15-.59,2.19-1.49,3.92-.93-1.09,1.29-2.58.84-3.92.86Z"/><path class="cls-12" d="M159.47,77.35a2.21,2.21,0,0,1-2.32.73,2.12,2.12,0,0,1,2.33-.66Z"/><path class="cls-12" d="M13.87,87c-1.09.29-2.62-.79-4-1.58"/><path class="cls-12" d="M59.17,54.56a20.17,20.17,0,0,1-12,1.14v.1a15.79,15.79,0,0,1,12-1.14Z"/><path class="cls-12" d="M23,60c3.42-1.65,6.85-3.25,11.23-2.31v-.11c-3.66,1-7.08,2.64-11.23,2.33Z"/><path class="cls-12" d="M47.17,55.69c-1.75.67-3.36,1.83-5.92.56,1.69-1.77,3.91-.72,5.92-.46Z"/><path class="cls-12" d="M34.21,57.73c.87-.53,1.58-1.45,3.52-.62-1.1,1.16-2.26,1-3.52.51Z"/><path class="cls-4" d="M157.59,42.31a6.59,6.59,0,0,1-3.56,0v0a5.14,5.14,0,0,1,3.56,0Z"/><path class="cls-4" d="M146.71,42.88a5.61,5.61,0,0,1,3.42-.34v0a10.93,10.93,0,0,1-3.42.34Z"/><path class="cls-4" d="M154,42.31a2,2,0,0,1-1.76,0c.61-.43,1.19-.1,1.75,0Z"/><path class="cls-4" d="M150.12,42.54a1,1,0,0,1,1.06-.08,1,1,0,0,1-1.06,0Z"/><path class="cls-12" d="M80.13,87.45a20.17,20.17,0,0,1-12,1.14v.1a15.79,15.79,0,0,1,12-1.14Z"/><path class="cls-12" d="M43.94,92.94c3.42-1.65,6.85-3.25,11.23-2.31v-.11c-3.66,1-7.08,2.64-11.23,2.33Z"/><path class="cls-12" d="M68.13,88.59c-1.75.67-3.36,1.83-5.92.56,1.69-1.77,3.91-.72,5.92-.46Z"/><path class="cls-12" d="M55.18,90.63c.87-.53,1.58-1.45,3.52-.62-1.1,1.16-2.26,1-3.52.51Z"/><path class="cls-12" d="M166.63,41.36a20.18,20.18,0,0,1-12,.41v.1a15.79,15.79,0,0,1,12-.41Z"/><path class="cls-12" d="M130.18,44.66c3.51-1.44,7-2.83,11.35-1.64v-.11c-3.72.77-7.23,2.21-11.35,1.65Z"/><path class="cls-12" d="M154.59,41.77c-1.79.56-3.46,1.63-5.95.21,1.79-1.66,3.95-.49,5.94-.1Z"/><path class="cls-12" d="M141.53,43c.9-.48,1.66-1.35,3.55-.4-1.17,1.09-2.31.82-3.54.29Z"/><path class="cls-12" d="M121.62,84a12,12,0,0,1,7.45-1.65v-.07a9.4,9.4,0,0,1-7.45,1.65Z"/><path class="cls-12" d="M143.79,77.64C141.87,79,139.93,80.29,137,80l0,.07c2.18-.93,4.09-2.26,6.78-2.37Z"/><path class="cls-12" d="M129.08,82.31c1-.57,1.85-1.45,3.68-.81-.8,1.28-2.38.77-3.69.75Z"/><path class="cls-12" d="M137,80c-.47.41-.78,1.07-2.14.67.52-.84,1.29-.8,2.16-.6Z"/><path class="cls-12" d="M155.13,78.78a27.54,27.54,0,0,1,4.26-4.11v0a21.24,21.24,0,0,1-4.26,4.11Z"/><path class="cls-12" d="M168.15,65.73A25.76,25.76,0,0,1,164.06,70v0a51.09,51.09,0,0,1,4.09-4.25Z"/><path class="cls-12" d="M159.39,74.67a8.25,8.25,0,0,1,2.1-2,7.78,7.78,0,0,1-2.09,2Z"/><path class="cls-12" d="M164.06,70a4.34,4.34,0,0,1-1.27,1.3A3.84,3.84,0,0,1,164.05,70Z"/><g class="cls-13"><path class="cls-12" d="M79.07,40a2.58,2.58,0,0,1-.77.34c-1.31.1-2.64,0-3.92.26a25.1,25.1,0,0,0-2.77,1,3.33,3.33,0,0,1-2.85-.3c-.92,1.06-1.85,2.1-2.75,3.18a1,1,0,0,0-.18.69,1.8,1.8,0,0,1-1.42,2c-1.05.34-1.41,1.24-2,2A14.48,14.48,0,0,0,61,51.75a1.37,1.37,0,0,0-.13,1,4.64,4.64,0,0,1-.08,4.08,3.32,3.32,0,0,0,.7,2.53,6.65,6.65,0,0,1,1.76,2A4.94,4.94,0,0,0,65,63.32c.27.21.57.37.84.58a2.29,2.29,0,0,0,2.69.5c.67-.31,1.63,0,2.43-.07a20.92,20.92,0,0,0,2.38-.6,9.22,9.22,0,0,1,2-.42,1.3,1.3,0,0,1,1,.62c.34,1,1.08.87,1.82.78.91-.11,1.41.21,1.42,1.12a4.51,4.51,0,0,1-.26,2.07,1.42,1.42,0,0,0,.45,1.93A7.38,7.38,0,0,1,82,73.43a15.34,15.34,0,0,1,.46,2.65,1.72,1.72,0,0,1-.22.78,11.66,11.66,0,0,0-1,2.43,3.79,3.79,0,0,0,.34,2.28,12.22,12.22,0,0,1,1.73,5.11A4.53,4.53,0,0,0,84,88.47c.71,1.27,1.67,2.4,1.57,4-.05.88.78,1.25,1.73,1.07,1.23-.23,2.51-.26,3.72-.56a4,4,0,0,0,1.88-1.08c1-1.1,1.9-2.33,2.81-3.53a1,1,0,0,0,.23-.77c-.26-.92.25-1.28,1-1.57a1.53,1.53,0,0,0,.82-2c0-.11-.13-.21-.17-.32a1.59,1.59,0,0,1,.67-2.24c.67-.37,1.25-.9,1.92-1.29a2.06,2.06,0,0,0,1.28-2.49c-.06-.43,0-.87-.11-1.29a13.59,13.59,0,0,0-.42-1.41,5.24,5.24,0,0,1-.19-.51,6.24,6.24,0,0,1-.4-2.38,5.94,5.94,0,0,1,1.39-2.55c1.22-1.34,2.64-2.5,3.94-3.77a16,16,0,0,0,3.29-5.51V95.7H60.44V40ZM107.77,77a17.18,17.18,0,0,1-2.71,2.33c-1,.53-1.29.82-1.08,2a2.27,2.27,0,0,1,0,1.49,2.75,2.75,0,0,0-.35,2.42c.15.66.37,1.24,1.11,1.28a1.35,1.35,0,0,0,1.54-1c.42-1.58.88-3.15,1.34-4.72.18-.61.38-1.21.58-1.81l.23,0Z"/><path class="cls-1" d="M79.07,40h.56c.88.73,1,1.52.14,2.85.77.28,1.5.55,2.24.81.41.14,1,.11,1.2.38.62,1,1.76.94,2.61,1.44.52.31,1,.13,1-.57.13-1.13,1-1.51,2.05-1,.76.37,1.62.53,2.41.86,1.56.66,3.17-.13,4.76.19.74.15,1.07.39,1.11,1A6.51,6.51,0,0,1,97,47.46l-.25,0-1-1.28a1.47,1.47,0,0,0,.24.91c.91,1.66,1.88,3.3,2.71,5,.48,1,.53,2.1,1.26,3.13a8.33,8.33,0,0,0,2.08,2.48.66.66,0,0,1,.26.26c.24.58,1.12.68,1,1.66-.11.64,1.35.86,2.59.51,1-.28,2-.42,3-.62v.74a16,16,0,0,1-3.29,5.51c-1.3,1.27-2.71,2.43-3.94,3.77a5.94,5.94,0,0,0-1.39,2.55,6.24,6.24,0,0,0,.4,2.38,5.24,5.24,0,0,0,.19.51,13.59,13.59,0,0,1,.42,1.41c.08.42.06.86.11,1.29a2.06,2.06,0,0,1-1.28,2.49c-.67.39-1.25.91-1.92,1.29a1.59,1.59,0,0,0-.67,2.24c0,.11.12.21.17.32a1.53,1.53,0,0,1-.82,2c-.74.29-1.25.65-1,1.57a1,1,0,0,1-.23.77c-.91,1.2-1.79,2.43-2.81,3.53A4,4,0,0,1,91,93c-1.21.3-2.49.33-3.72.56-.94.18-1.78-.2-1.73-1.07.1-1.62-.85-2.76-1.57-4a4.53,4.53,0,0,1-.69-1.79,12.22,12.22,0,0,0-1.73-5.11,3.79,3.79,0,0,1-.34-2.28,11.66,11.66,0,0,1,1-2.43,1.72,1.72,0,0,0,.22-.78A15.34,15.34,0,0,0,82,73.43a7.38,7.38,0,0,0-2.15-3.6,1.42,1.42,0,0,1-.45-1.93,4.51,4.51,0,0,0,.26-2.07c0-.91-.51-1.23-1.42-1.12-.73.09-1.48.25-1.82-.78a1.3,1.3,0,0,0-1-.62,9.22,9.22,0,0,0-2,.42,20.92,20.92,0,0,1-2.38.6c-.81.1-1.76-.24-2.43.07a2.29,2.29,0,0,1-2.69-.5c-.27-.21-.57-.38-.84-.58a4.94,4.94,0,0,1-1.77-1.93,6.65,6.65,0,0,0-1.76-2,3.32,3.32,0,0,1-.7-2.53,4.64,4.64,0,0,0,.08-4.08,1.37,1.37,0,0,1,.13-1,14.48,14.48,0,0,1,1.43-2.56c.55-.71.91-1.61,2-2a1.8,1.8,0,0,0,1.42-2,1,1,0,0,1,.18-.69c.9-1.07,1.83-2.12,2.75-3.18a3.33,3.33,0,0,0,2.85.3,25.1,25.1,0,0,1,2.77-1c1.28-.22,2.62-.16,3.92-.26A2.58,2.58,0,0,0,79.07,40Z"/><path class="cls-12" d="M108.88,59.52c-1,.2-2,.34-3,.62-1.24.35-2.7.13-2.59-.51.17-1-.71-1.08-1-1.66a.66.66,0,0,0-.26-.26A8.33,8.33,0,0,1,100,55.24c-.73-1-.78-2.13-1.26-3.13-.82-1.71-1.8-3.34-2.71-5a1.47,1.47,0,0,1-.24-.91l1,1.28.25,0A6.51,6.51,0,0,0,97.19,46c0-.61-.37-.86-1.11-1-1.6-.32-3.2.47-4.76-.19-.78-.33-1.65-.49-2.41-.86-1-.51-1.92-.13-2.05,1-.08.7-.51.88-1,.57-.85-.5-2-.45-2.61-1.44-.17-.27-.79-.24-1.2-.38-.74-.25-1.47-.53-2.24-.81.81-1.33.74-2.12-.14-2.85h29.25Z"/><path class="cls-1" d="M107.77,77l.6,2-.23,0c-.19.6-.4,1.2-.58,1.81-.45,1.57-.91,3.14-1.34,4.72a1.35,1.35,0,0,1-1.54,1c-.73,0-1-.62-1.11-1.28a2.75,2.75,0,0,1,.35-2.42,2.27,2.27,0,0,0,0-1.49c-.21-1.16.12-1.46,1.08-2A17.18,17.18,0,0,0,107.77,77Z"/></g></g></g></svg>