<svg xmlns="http://www.w3.org/2000/svg" viewBox="0 0 100.37 80.76"><defs><style>.cls-1{opacity:0.2;}.cls-2,.cls-3,.cls-4,.cls-7,.cls-8{fill:#160baa;}.cls-3,.cls-4,.cls-7{font-size:7.51px;}.cls-3,.cls-7{font-family:AdobeMingStd-Light-B5pc-H, Adobe Ming Std;}.cls-4,.cls-8{font-family:BaskOldFace, Baskerville Old Face;}.cls-5{letter-spacing:0em;}.cls-6{font-size:12.93px;}.cls-7{letter-spacing:0em;}.cls-8{font-size:17.4px;letter-spacing:0em;}.cls-9{fill:#fff;}.cls-10{font-size:4.38px;}.cls-10,.cls-11{fill:#0e59c6;font-family:AgencyFB-Bold, Agency FB;font-weight:700;}.cls-11{font-size:3.57px;}</style></defs><title>資產 16</title><g id="圖層_2" data-name="圖層 2"><g id="圖層_1-2" data-name="圖層 1"><g class="cls-1"><path class="cls-2" d="M55.49,42.86a.46.46,0,0,0,.65-.18.3.3,0,0,1,.19-.12.82.82,0,0,1,.77.6h.61a1.78,1.78,0,0,1,1.4.64.23.23,0,0,0,.09,0c.17.06.4,0,.46.29a1.16,1.16,0,0,1-.06,1c-.26.38-.59.71-.82,1.11-.11.18,0,.45-.07.68-.07.53-.14,1.06-.22,1.59a.84.84,0,0,1-.15.41,1,1,0,0,1-.48.35,2.29,2.29,0,0,0-1.34.78c-.09.09,0,.33,0,.5a1,1,0,0,1-.44,1c-.13.1-.16.33-.23.5a2.44,2.44,0,0,1-.31.71c-.11.12-.39.12-.59.11s-.36-.11-.58-.13l.15.19c.16.19.4.36.44.57a.65.65,0,0,1-.31.54,2.75,2.75,0,0,1-.81.15c0,.19.06.43,0,.57s-.35,0-.58,0a3,3,0,0,0,.16.35.69.69,0,0,1-.09,1c-.2.2-.13.43.21.55s.35.21.13.48a.75.75,0,0,0-.06,1l-.28.44c-.12-.1-.27-.25-.44-.37a1.37,1.37,0,0,0-.31-.13,1.59,1.59,0,0,1-.51-1.1l-.54-.47,0-.05.33.11c-.1-.48-.19-.92-.3-1.36a.23.23,0,0,0-.17-.14c-.29,0-.25-.21-.29-.39S51,54.2,51,54a2.25,2.25,0,0,1-.05-.53,5.33,5.33,0,0,0-.08-1.69,8.83,8.83,0,0,1-.09-1.68c0-.5-.05-1-.07-1.49a1.48,1.48,0,0,0-.94-1.33,2.37,2.37,0,0,1-.87-.67c-.3-.43-.47-1-.73-1.41a8.74,8.74,0,0,0-.68-1,.65.65,0,0,1,0-.79c.08-.09.15-.19.25-.31-.41-.11-.36-.31-.25-.6a3.7,3.7,0,0,1,.72-1,1.83,1.83,0,0,0,.08-1.37c0-.07-.13-.15-.12-.21.05-.26-.1-.42-.29-.38s-.28.25-.45.42l-1.13-.74-.52-1a1.85,1.85,0,0,1-1.5-.72.41.41,0,0,0-.55-.13.72.72,0,0,1-.53,0c-.58-.3-1.14-.64-1.71-1-.19-.11-.18-.26-.14-.47a1.25,1.25,0,0,0-.09-.72c-.12-.27-.38-.47-.51-.74A8.94,8.94,0,0,1,40.13,33c-.07-.24-.12-.4-.39-.44a.77.77,0,0,0-.07.7c.18.47.3,1,.46,1.45a3.88,3.88,0,0,1,.19.47c-.13-.26-.53-.35-.46-.76,0-.1-.14-.24-.24-.35a1.47,1.47,0,0,0-.27-.18c.25-.09.32-.29.2-.42-.33-.35-.19-.8-.3-1.19A.84.84,0,0,0,39,31.9a.87.87,0,0,1-.35-1.06.21.21,0,0,0,0-.15c-.19-.29-.07-.55,0-.82a7.18,7.18,0,0,1,1.12-1.62,2,2,0,0,0,.19-.64l.35.24c.34-.25.35-.59,0-.91s-.33-.3-.1-.45l.07-.53-.29.24c.43-.57.24-1.13.29-1.61l-.46-.1.07.27c-.12-.11-.2-.14-.22-.19a.47.47,0,0,0-.45-.34,1.29,1.29,0,0,1-.8-.26A.51.51,0,0,0,38,24c-.26.24-.59.16-.85.33l0-.11.72-.31c-.2-.12-1.22.35-1.57.56a7.16,7.16,0,0,1-1.65.64l.94-.56-.83-.1.21-.33-.47.07,0-.1.46-.09-.37-.14a4.06,4.06,0,0,1,1.5-.58,6.34,6.34,0,0,0,.81-.3l0-.09h-1c.11-.22.7-.5.9-.39a.64.64,0,0,0,.76-.11L37,22c1-.23,1.94-.49,2.89-.64a4.53,4.53,0,0,1,1.28.17c.46.07.92.13,1.37.21.14,0,.28.14.42.14a5.2,5.2,0,0,0,.68-.09l1.57-.19c.11.3.39.09.6.14s.44,0,.66.05.51.09.81.15l-.31.15v.09a5.51,5.51,0,0,0,.75,0c.24,0,.38,0,.39.28.07,0,.14,0,.17-.07.41-.44.46-.43,1.07-.26a4.32,4.32,0,0,0,1.05.08c.05,0,.11-.13.2-.26l0,.4,1-.57-.35-.2a1.05,1.05,0,0,1,.76-.46h0l-.09.54-.07,0,.14.38.47-.25-.25.51.1.09a3,3,0,0,0,.82-.53c.25-.31.4-.16.59-.08-.09.18-.16.32-.23.45s-.07.1-.12.11l-.88.15s-.12,0-.14,0a.87.87,0,0,1-1,.2l.51.28-1.26.31.18.07A3.35,3.35,0,0,0,49,24.53c.33.11.25.32.09.58a1,1,0,0,1,1,.27c.19.2.56.22.86.33l-.18.39a.62.62,0,0,0,.15.68c.14.07.5-.18.57-.39a1.89,1.89,0,0,0,.08-.3.53.53,0,0,1,.41-.44,1.83,1.83,0,0,0,.58-.37c.21-.19.27-.44.09-.6l.59-.91s0-.11.08-.15a1.86,1.86,0,0,1,1.08.18,3.23,3.23,0,0,0,.29.26l-.27.5c.51.35.9,0,1.34-.32,0,.33.25.6,0,.94,0,.07.1.32.21.42a6.11,6.11,0,0,0,.66.47.5.5,0,0,1-.53.57.46.46,0,0,0-.26.08,1.45,1.45,0,0,1-1.26.26,2.29,2.29,0,0,0-1.54.51,2.11,2.11,0,0,0-.53.48,2.6,2.6,0,0,1,1.63-.59l0,.12-.51.17c.21.3.14.91.81.81L53.37,29l-.05-.1.7-.39c-.11,0-.22-.08-.3-.05a13.65,13.65,0,0,0-1.31.49.77.77,0,0,0-.4.4.47.47,0,0,1-.46.35.77.77,0,0,0-.68.45c0,.1-.2.16-.35.19l-.1.37h-.08l0-.34-.06,0a1.48,1.48,0,0,0-.16.51c0,.6-.37.85-.79,1.11-.27.16-.53.33-.78.52a.92.92,0,0,0-.32,1,1.5,1.5,0,0,1-.11,1.19,1.11,1.11,0,0,1-.33-.85c0-.49-.07-.44-.48-.62a3.37,3.37,0,0,0-1.38-.1l.15.31a2.14,2.14,0,0,1-.48-.1,1.69,1.69,0,0,0-1,.12c-.67.21-.78.72-.95,1.3a2,2,0,0,0,0,1.65.72.72,0,0,0,.78.42,1,1,0,0,0,1-.73c.15-.31.53-.23.84-.19l-.74,1.7h.72a3.15,3.15,0,0,1,.35,0,.39.39,0,0,1,.35.54c-.05.19-.08.39-.15.57-.16.42.13.69.36.95a.39.39,0,0,0,.38.05c.41-.26.73-.18,1,.28l.45-.71c0-.06.09-.15.15-.17.31-.13.62-.25.9-.36a1.15,1.15,0,0,0-.1.9l.15,0,0-.53c.3-.28.44-.28.75,0,0,0,0,0,0,0a7.36,7.36,0,0,0,1,0c.17,0,.32-.14.44.08a.23.23,0,0,0,.15.08c.24,0,.35.15.13.4a.71.71,0,0,1,.79.46.73.73,0,0,0,.71.37,1.12,1.12,0,0,1,1.29.92c0,.1.11.18.13.28a.39.39,0,0,1,0,.27c-.17.26-.36.5-.59.8l.42-.12.12.16Z"/><path class="cls-2" d="M56.09,21.46l.41,0-.15.49.93.53-.56.38c-.2-.23-.4-.54-.76-.15a1.57,1.57,0,0,1,.22.28c0,.09.08.24,0,.29a.41.41,0,0,1-.32.1,1.59,1.59,0,0,1-.39-.16l-.06.07.3.37c-.65,0-.89-.49-1.24-.75a1.06,1.06,0,0,1,1.33-.29v-.16l-.44-.12c.11-.2,0-.38-.21-.5,0,0-.08-.08-.12-.12s-.23-.32-.57-.19a3.17,3.17,0,0,1-1.21,0,3.39,3.39,0,0,1-.48-.11l.49-.1-.48-.19,1.11-.52,0,.09c-.38.27-.4.31-.24.64a1,1,0,0,1,.86-.64.32.32,0,0,1,.25,0s0,.16,0,.32l.49-.09c.1,0,.25-.06.3,0A5.56,5.56,0,0,1,56.09,21.46Z"/><path class="cls-2" d="M55.24,19.48H56l-.25-.32.62.1.48-.13.43-.06V19l-1.13.08,0-.05a1.92,1.92,0,0,1,.52-.22c.5-.05,1-.08,1.5-.09a15.16,15.16,0,0,1,1.95.07l-3.16.65.25,0v.05c-.26.08-.52.14-.78.23a3.76,3.76,0,0,0-.34.2.56.56,0,0,1-.23.05H54.32l.63-.28.4.13.07-.07-.14-.19a.39.39,0,0,1,0-.11Z"/><path class="cls-2" d="M47.22,21.57l1.08-.08v-.1H47.4v-.07l.48-.09v-.07h-.38c.63-.56,1.32-.18,2-.24l0,.23c.3,0,.34-.56.75-.28l-.26.49.33.21c-.21.06-.47-.05-.54.24a.44.44,0,0,1-.3,0,1.34,1.34,0,0,0-1,.05A1.4,1.4,0,0,1,47.22,21.57Z"/><path class="cls-2" d="M46.48,21.26,46.35,21c.14-.35,1.71-.65,2.18-.41Z"/><path class="cls-2" d="M55.45,27.77l1-1.06.08.07-.36.38.61.21c-.11.41-.11.41-.6.4Z"/><path class="cls-2" d="M49.42,36.13a.66.66,0,0,1-.87-.23c-.27-.34-.71-.28-1-.53-.08-.07-.35.1-.53.16C47.43,35.08,48.11,35.24,49.42,36.13Z"/><path class="cls-2" d="M53.39,20.32a1.18,1.18,0,0,1,.18-.28c.08-.07.15-.16.28,0s.57.16.87.15.49,0,.8-.07A3.4,3.4,0,0,1,53.39,20.32Z"/><path class="cls-2" d="M55.25,19.47l-.66.08-.32,0,0-.09.3-.13-.3-.13c.6-.3.93-.27,1.3.12l-.3.14Z"/><path class="cls-2" d="M50.91,36.61a2.27,2.27,0,0,1-.71.17c-.13,0-.24-.26-.4-.44C50.46,36.25,50.46,36.25,50.91,36.61Z"/><path class="cls-2" d="M49.07,20.23c.32-.13.62-.32,1,0,.11.08.41-.09.66-.15l.24.16A5.11,5.11,0,0,1,49.07,20.23Z"/><path class="cls-2" d="M52.32,22.64l.64.49-1,.12Z"/><path class="cls-2" d="M51.77,20.61c-.38.64-.51.67-.89.31Z"/><path class="cls-2" d="M53.58,58.28l1,.59C54.1,59,53.78,58.78,53.58,58.28Z"/><path class="cls-2" d="M52.08,21.1c.07-.44.33-.56,1.09-.49l-1.09.48Z"/><path class="cls-2" d="M55.5,42.87v-.46H56c0,.4-.3.37-.52.45Z"/><path class="cls-2" d="M40.16,27.58l-.51-.67C40.23,27,40.25,27.07,40.16,27.58Z"/><path class="cls-2" d="M52.66,20c-.47.37-.57.37-.71.11Z"/></g><path class="cls-2" d="M3.27,57,1.65,46.75,0,36.41l0-.32.32,0C8,34.85,15.79,33.76,23.52,32.61S39,30.44,46.74,29.43l11.62-1.54L70,26.28q11.6-1.67,23.19-3.43l.27,0,0,.27,3.09,20.53.06.43-.43.06-23.3,3.41L49.6,50.79,26.37,53.9Zm.06-.08,23.32-3.56,23.19-3.51L73,46.46l23.12-3.21-.37.49L92.94,23.16l.31.23Q81.63,24.93,70,26.58l-11.6,1.7L46.83,30.06q-11.59,1.79-23.19,3.43C15.9,34.55,8.16,35.67.41,36.68l.27-.37L2,46.53Z"/><text class="cls-3" transform="translate(7.77 50.89) rotate(-7.97) scale(0.85 1)">★</text><text class="cls-4" transform="matrix(0.8, -0.11, 0.14, 0.99, 14.07, 50.01)"><tspan class="cls-5" xml:space="preserve">  </tspan><tspan class="cls-6" x="3.76" y="0">A M E R I C A</tspan></text><text class="cls-4" transform="translate(80.38 40.73) rotate(-7.97) scale(1.06 1)"><tspan xml:space="preserve">  </tspan></text><text class="cls-7" transform="translate(84.31 40.18) rotate(-7.97) scale(0.85 1)">★</text><text class="cls-8" transform="translate(90.61 39.3) rotate(-7.97) scale(1.06 1)"><tspan xml:space="preserve">  </tspan></text><path class="cls-2" d="M3.79,55.85a3.78,3.78,0,0,1,2.05-.06v0a3,3,0,0,1-2.05.06Z"/><path class="cls-2" d="M10,55.36a3.22,3.22,0,0,1-2,.25v0a6.27,6.27,0,0,1,2-.25Z"/><path class="cls-2" d="M5.84,55.79a1.16,1.16,0,0,1,1,0c-.34.26-.68.07-1,0Z"/><path class="cls-2" d="M8.09,55.61a.57.57,0,0,1-.61.06.54.54,0,0,1,.61,0Z"/><path class="cls-9" d="M25.72,29.74a4.43,4.43,0,0,1,2.23-.27v0a3.46,3.46,0,0,1-2.23.27Z"/><path class="cls-9" d="M32.5,28.59a3.84,3.84,0,0,1-2.13.46v0a7.51,7.51,0,0,1,2.13-.46Z"/><path class="cls-9" d="M27.94,29.47a1.36,1.36,0,0,1,1.1-.13c-.37.3-.74.15-1.1.12Z"/><path class="cls-9" d="M30.38,29a.68.68,0,0,1-.66.13.64.64,0,0,1,.66-.11Z"/><path class="cls-9" d="M47.49,49.28a5.93,5.93,0,0,1,3,.27v0a4.62,4.62,0,0,1-3-.27Z"/><path class="cls-9" d="M56.78,49.67a5.13,5.13,0,0,1-2.94,0v0a10,10,0,0,1,2.94,0Z"/><path class="cls-9" d="M50.51,49.55a1.82,1.82,0,0,1,1.49.13c-.57.29-1,0-1.48-.15Z"/><path class="cls-9" d="M53.84,49.67a.91.91,0,0,1-.91,0,.85.85,0,0,1,.9,0Z"/><path class="cls-9" d="M.63,43.85a8.72,8.72,0,0,1,3.14,4.79l0,0A6.84,6.84,0,0,1,.67,43.81Z"/><path class="cls-9" d="M11,57.65c-1.45-.95-2.88-1.91-3.46-4.09l0,0c1.23,1.26,2.67,2.21,3.47,4.09Z"/><path class="cls-9" d="M3.77,48.64c.67.54,1.51.86,1.55,2.37-1.11-.17-1.17-1.45-1.51-2.4Z"/><path class="cls-9" d="M7.5,53.56c-.42-.2-1-.22-1-1.32.73.11.9.67,1,1.35Z"/><path class="cls-9" d="M82.54,47.33a8.43,8.43,0,0,1,4.57-1.08v0a6.58,6.58,0,0,1-4.57,1.08Z"/><path class="cls-9" d="M96.32,43.3A7.12,7.12,0,0,1,92,44.78v0a13.85,13.85,0,0,1,4.27-1.48Z"/><path class="cls-9" d="M87.12,46.25c.66-.34,1.26-.86,2.26-.54-.63.75-1.49.48-2.26.5Z"/><path class="cls-9" d="M92,44.78a1.27,1.27,0,0,1-1.34.42,1.22,1.22,0,0,1,1.34-.38Z"/><path class="cls-9" d="M8.16,50.39c-.63.17-1.51-.46-2.33-.91"/><path class="cls-9" d="M34.26,31.59a11.58,11.58,0,0,1-6.91.66v.06a9.06,9.06,0,0,1,6.91-.66Z"/><path class="cls-9" d="M13.42,34.76c2-1,3.95-1.88,6.47-1.34v-.06c-2.11.57-4.08,1.53-6.47,1.35Z"/><path class="cls-9" d="M27.35,32.25c-1,.39-1.93,1.06-3.41.33,1-1,2.25-.42,3.41-.27Z"/><path class="cls-9" d="M19.89,33.42a1.72,1.72,0,0,1,2-.36,1.67,1.67,0,0,1-2,.29Z"/><path class="cls-2" d="M91,24.5a3.78,3.78,0,0,1-2.05,0v0a3,3,0,0,1,2.05,0Z"/><path class="cls-2" d="M84.7,24.83a3.22,3.22,0,0,1,2-.2v0a6.27,6.27,0,0,1-2,.2Z"/><path class="cls-2" d="M88.91,24.51a1.16,1.16,0,0,1-1,0c.35-.25.68-.06,1,0Z"/><path class="cls-2" d="M86.67,24.63a.57.57,0,0,1,.61,0,.54.54,0,0,1-.61,0Z"/><path class="cls-9" d="M46.34,50.62a11.58,11.58,0,0,1-6.91.66v.06a9.06,9.06,0,0,1,6.91-.66Z"/><path class="cls-9" d="M25.49,53.8c2-1,3.95-1.88,6.47-1.34v-.06c-2.11.57-4.08,1.53-6.47,1.35Z"/><path class="cls-9" d="M39.43,51.28c-1,.39-1.93,1.06-3.41.33,1-1,2.25-.42,3.41-.27Z"/><path class="cls-9" d="M32,52.46a1.72,1.72,0,0,1,2-.36,1.67,1.67,0,0,1-2,.29Z"/><path class="cls-9" d="M96.18,24a11.58,11.58,0,0,1-6.94.24v.06A9.06,9.06,0,0,1,96.17,24Z"/><path class="cls-9" d="M75.18,25.86c2-.83,4.06-1.64,6.54-.95v-.06c-2.14.45-4.17,1.28-6.54,1Z"/><path class="cls-9" d="M89.24,24.19c-1,.33-2,.94-3.43.12,1-1,2.28-.28,3.42-.06Z"/><path class="cls-9" d="M81.72,24.92a1.72,1.72,0,0,1,2-.23,1.67,1.67,0,0,1-2,.17Z"/><path class="cls-9" d="M70.25,48.6a6.89,6.89,0,0,1,4.29-1v0a5.4,5.4,0,0,1-4.29,1Z"/><path class="cls-9" d="M83,44.95a5.49,5.49,0,0,1-3.91,1.37v0C80.37,45.82,81.48,45,83,45Z"/><path class="cls-9" d="M74.54,47.65c.58-.33,1.07-.84,2.12-.47-.46.74-1.37.44-2.13.43Z"/><path class="cls-9" d="M79.11,46.31c-.27.24-.45.62-1.23.39.3-.49.74-.46,1.24-.34Z"/><path class="cls-9" d="M89.55,45.61A15.89,15.89,0,0,1,92,43.23v0a12.26,12.26,0,0,1-2.46,2.38Z"/><path class="cls-9" d="M97.05,38.05a14.87,14.87,0,0,1-2.36,2.46v0A29.5,29.5,0,0,1,97,38.07Z"/><path class="cls-9" d="M92,43.23a4.76,4.76,0,0,1,1.21-1.17A4.49,4.49,0,0,1,92,43.21Z"/><path class="cls-9" d="M94.7,40.51a2.5,2.5,0,0,1-.73.75,2.22,2.22,0,0,1,.73-.73Z"/><path class="cls-2" d="M51.42.9A2.39,2.39,0,0,1,53.57.15,33,33,0,0,1,66.13,4.87a39.06,39.06,0,0,1,8.29,6.41c.4.43.77.89,1.15,1.35a1.4,1.4,0,0,1,.17.58A37.8,37.8,0,0,0,64.67,4.86C60.57,2.76,56.31,1,51.42.9Z"/><path class="cls-2" d="M21.1,14.14A49.28,49.28,0,0,0,13.24,31a7.63,7.63,0,0,1,.2-3.68,56.54,56.54,0,0,1,2.78-7.38,2.33,2.33,0,0,1,1.61-1.55c.27,0,.29-.36.31-.6h0l1.66-2.43-.1-.09-.66.4C19.44,14.59,20.55,14.78,21.1,14.14Z"/><path class="cls-2" d="M18.14,17.75l0,0,0,0Z"/><path class="cls-2" d="M65.38,69.55a13.58,13.58,0,0,1-5.52,2.72A36.2,36.2,0,0,1,47.3,73.69a4.39,4.39,0,0,1-2-.39h0a42.39,42.39,0,0,0,7-.2A43.84,43.84,0,0,0,64.6,69.8a5.41,5.41,0,0,1,.79-.24Z"/><path class="cls-2" d="M38.27,2.35a49.37,49.37,0,0,0-15.09,9.41A27,27,0,0,1,38.27,2.35Z"/><path class="cls-2" d="M38.56,71.84a22.38,22.38,0,0,1-8.08-2.63,8.12,8.12,0,0,1-2.2-1.61,2.43,2.43,0,0,1,1.72.3,35.15,35.15,0,0,0,8.32,3.75c.09,0,.16.13.23.2Z"/><path class="cls-2" d="M71.09,66.13c.74-1.17,2.06-1.7,2.94-2.73A37.77,37.77,0,0,0,79,57.12c.13-.23,3.06-5.35,3.54-5.35-.93,2.58-5.46,9.62-7.52,11.49a14,14,0,0,1-3.92,2.87Z"/><path class="cls-2" d="M50,.27c-.13,0-.35.06-.36.11-.09.48.44.07.54.42A44.64,44.64,0,0,0,39.28,2c.41-.44.95-.38,1.43-.48a29.48,29.48,0,0,1,6.66-1c.36,0,1.06.41,1.2-.47a9.41,9.41,0,0,1,1.37,0Z"/><path class="cls-2" d="M71.09,66.13a12.59,12.59,0,0,1-2.54,2.11c-.06-.08-.14-.37-.19-.45.91-.55,1.87-.69,2.78-1.25Z"/><path class="cls-2" d="M31.26,4.43A4.54,4.54,0,0,1,34,3h0a6.1,6.1,0,0,1-2.75,1.4Z"/><path class="cls-2" d="M44.71.36,42,.69l0-.07L44.67.12Z"/><path class="cls-2" d="M34,3a7.94,7.94,0,0,1,2.51-.94A6.25,6.25,0,0,1,34,3Z"/><path class="cls-2" d="M38.55,71.85a4.43,4.43,0,0,1,2.17.57h0a2.63,2.63,0,0,1-2.17-.57Z"/><path class="cls-2" d="M26.51,66.19c.57.08.8.55,1.09.94-.16-.14-.36-.22-.53-.35S26.72,66.37,26.51,66.19Z"/><path class="cls-2" d="M45.28,73.3a2.76,2.76,0,0,1-2.15-.37v0a7.51,7.51,0,0,1,2.15.36Z"/><path class="cls-2" d="M66.4,69c.23-.53.79-.45,1.2-.65a1.45,1.45,0,0,1-1.21.64Z"/><path class="cls-2" d="M40.72,72.43a1.36,1.36,0,0,1,1.07.28c-.26.27-.9-.13-1.06-.3Z"/><path class="cls-2" d="M31.25,4.42a1,1,0,0,1-.77.6,1,1,0,0,1,.79-.59Z"/><path class="cls-2" d="M21.65,12.27l-.23.18c-.05,0-.07-.12-.06-.14a.6.6,0,0,1,.21-.2C21.64,12.16,21.62,12.2,21.65,12.27Z"/><path class="cls-2" d="M22.37,12.26c.08,0,.11.14.17.17s-.09.17-.22.18-.09-.06-.14-.09Z"/><path class="cls-2" d="M18.11,17.75c-.12,0-.25.06-.29-.12s.07-.13.1-.14S18.1,17.63,18.11,17.75Z"/><polygon class="cls-2" points="18.14 17.75 18.12 17.77 18.11 17.75 18.14 17.75"/><path class="cls-2" d="M65.39,69.56a1.74,1.74,0,0,1,1-.53h0a1,1,0,0,1-1,.53Z"/><path class="cls-2" d="M21.9,13.37a.14.14,0,0,1-.16-.1.73.73,0,0,1,.17-.21.41.41,0,0,1,.12.08C22,13.24,21.95,13.3,21.9,13.37Z"/><path class="cls-2" d="M43.14,72.94c-.13.18-.62.21-.66-.13a.64.64,0,0,1,.65.14Z"/><path class="cls-2" d="M30,69.53a32.64,32.64,0,0,1-7.35-4.68A5.62,5.62,0,0,1,21.28,63a2.43,2.43,0,0,1,1.61.67c2.29,2,3.93,4.14,6.7,5.53.08,0,.48.34.44.29Z"/><path class="cls-2" d="M78.78,60.32a11.37,11.37,0,0,1-1.58,2.77l-.25-.16c.61-.87,1.33-1.56,1.94-2.43Z"/><path class="cls-2" d="M49.33,75.07A4.43,4.43,0,0,1,51.58,75v0a3.46,3.46,0,0,1-2.24.06Z"/><path class="cls-2" d="M36.19,73c.57-.08.92.31,1.31.59Z"/><path class="cls-2" d="M56.2,74.57a3.84,3.84,0,0,1-2.16.25v0a7.51,7.51,0,0,1,2.16-.25Z"/><path class="cls-2" d="M75.27,64.54c.08-.57.63-.65,1-1a2.16,2.16,0,0,1-1,1Z"/><path class="cls-2" d="M51.58,75a1.36,1.36,0,0,1,1.11,0c-.39.26-.75.07-1.1,0Z"/><path class="cls-2" d="M74.45,65.33c.23-.32.42-.66.83-.79h0a1.68,1.68,0,0,1-.82.79Z"/><path class="cls-2" d="M54,74.82a.68.68,0,0,1-.67.06.64.64,0,0,1,.67,0Z"/><path class="cls-2" d="M81.22,50.69"/><path class="cls-2" d="M83.8,46.74a8.12,8.12,0,0,1-.61,3.13l-.29-.07c.3-1,.69-2,1.06-2.93Z"/><path class="cls-2" d="M82.29,52c-.18-.55.28-.87.45-1.29A2.16,2.16,0,0,1,82.27,52Z"/><path class="cls-2" d="M75.94,13.65A41.51,41.51,0,0,1,80.77,23a2.34,2.34,0,0,0-.17-1.49,27.78,27.78,0,0,0-2.72-5.95Z"/><path class="cls-2" d="M80,19.37c.3.71.64,1.46,1.09,2.53,0,0,0-.08,0-.09s-.16-.43-.18-.48l-.19-.45-.24-.55c-.07-.18-.14-.36-.22-.54l-.08-.16-.07-.12S80.1,19.35,80,19.37Z"/><path class="cls-2" d="M13.05,33.6A3.07,3.07,0,0,1,13,30.73l.05,2.87Z"/><text class="cls-10" transform="translate(37.43 67.55) rotate(17.96) scale(1.45 1)">J</text><text class="cls-10" transform="translate(40.22 68.42) rotate(14.06) scale(1.45 1)"> </text><text class="cls-10" transform="translate(41.57 68.76) rotate(11.61) scale(1.45 1)"> </text><text class="cls-10" transform="matrix(1.43, 0.23, -0.16, 0.99, 42.93, 69.04)"> </text><text class="cls-10" transform="translate(44.41 69.3) rotate(5.07) scale(1.45 1)">U</text><text class="cls-10" transform="translate(47.55 69.55) rotate(1.08) scale(1.45 1)"> </text><text class="cls-10" transform="matrix(1.45, -0.03, 0.02, 1, 48.95, 69.57)"> </text><text class="cls-10" transform="matrix(1.45, -0.1, 0.07, 1, 50.36, 69.53)"> </text><text class="cls-10" transform="translate(51.84 69.47) rotate(-8.18) scale(1.45 1)">M</text><text class="cls-10" transform="translate(55.49 68.9) rotate(-12.61) scale(1.45 1)"> </text><text class="cls-10" transform="translate(56.86 68.59) rotate(-15.01) scale(1.45 1)"> </text><text class="cls-10" transform="matrix(1.38, -0.43, 0.3, 0.95, 58.19, 68.23)"> </text><text class="cls-10" transform="matrix(1.35, -0.52, 0.36, 0.93, 59.6, 67.81)">P</text><text class="cls-10" transform="matrix(1.31, -0.61, 0.42, 0.91, 62.39, 66.7)"> </text><text class="cls-10" transform="translate(63.65 66.11) rotate(-27.28) scale(1.45 1)"> </text><text class="cls-10" transform="translate(64.9 65.46) rotate(-29.63) scale(1.45 1)"> </text><text class="cls-10" transform="translate(66.17 64.76) rotate(-33.04) scale(1.45 1)">E</text><text class="cls-10" transform="translate(68.39 63.27) rotate(-35.64) scale(1.45 1)"> </text><text class="cls-10" transform="matrix(1.13, -0.91, 0.63, 0.78, 69.49, 62.47)"> </text><text class="cls-10" transform="translate(70.59 61.59) rotate(-41.01) scale(1.45 1)"> </text><text class="cls-10" transform="matrix(1.03, -1.02, 0.7, 0.71, 71.69, 60.66)">R</text><text class="cls-10" transform="translate(73.86 58.46) rotate(-48.59) scale(1.45 1)"> </text><text class="cls-11" transform="matrix(0.67, -1.38, 0.9, 0.43, 22.8, 24.28)">O</text><text class="cls-11" transform="matrix(0.76, -1.33, 0.87, 0.5, 23.94, 21.98)"> </text><text class="cls-11" transform="matrix(0.82, -1.3, 0.85, 0.53, 24.49, 21.01)"> </text><text class="cls-11" transform="matrix(0.91, -1.24, 0.81, 0.59, 25.04, 20.1)">N</text><text class="cls-11" transform="translate(26.6 18.02) rotate(-49.78) scale(1.53 1)"> </text><text class="cls-11" transform="matrix(1.04, -1.13, 0.74, 0.68, 27.31, 17.17)"> </text><text class="cls-11" transform="translate(28.04 16.36) rotate(-44.19) scale(1.53 1)">L</text><text class="cls-11" transform="translate(29.45 15) rotate(-40.99) scale(1.53 1)"> </text><text class="cls-11" transform="translate(30.3 14.27) rotate(-38.68) scale(1.53 1)"> </text><text class="cls-11" transform="matrix(1.23, -0.91, 0.59, 0.81, 31.16, 13.57)">I</text><text class="cls-11" transform="translate(32.05 12.91) rotate(-34.12) scale(1.53 1)"> </text><text class="cls-11" transform="matrix(1.3, -0.81, 0.53, 0.85, 32.97, 12.29)"> </text><text class="cls-11" transform="matrix(1.35, -0.72, 0.47, 0.88, 33.88, 11.7)">N</text><text class="cls-11" transform="matrix(1.39, -0.64, 0.41, 0.91, 36.16, 10.5)"> </text><text class="cls-11" transform="translate(37.18 10.04) rotate(-22.26) scale(1.53 1)"> </text><text class="cls-11" transform="translate(38.18 9.61) rotate(-19.06) scale(1.53 1)">E</text><text class="cls-11" transform="translate(40.19 8.93) rotate(-15.9) scale(1.53 1)"> </text><text class="cls-11" transform="translate(41.24 8.63) rotate(-13.75) scale(1.53 1)"> </text><text class="cls-11" transform="matrix(1.5, -0.31, 0.2, 0.98, 42.33, 8.36)"> </text><text class="cls-11" transform="matrix(1.51, -0.25, 0.16, 0.99, 43.39, 8.15)"> </text><text class="cls-11" transform="translate(44.49 7.96) rotate(-7.26) scale(1.53 1)"> </text><text class="cls-11" transform="matrix(1.53, -0.11, 0.07, 1, 45.58, 7.81)">T</text><text class="cls-11" transform="matrix(1.53, -0.03, 0.02, 1, 47.67, 7.67)"> </text><text class="cls-11" transform="matrix(1.53, 0.03, -0.02, 1, 48.77, 7.65)"> </text><text class="cls-11" transform="translate(49.86 7.65) rotate(4.43) scale(1.53 1)">R</text><text class="cls-11" transform="translate(52.33 7.86) rotate(7.78) scale(1.53 1)"> </text><text class="cls-11" transform="translate(53.44 8.01) rotate(9.88) scale(1.53 1)"> </text><text class="cls-11" transform="matrix(1.49, 0.35, -0.23, 0.97, 54.51, 8.18)">A</text><text class="cls-11" transform="matrix(1.47, 0.44, -0.29, 0.96, 56.87, 8.75)"> </text><text class="cls-11" transform="matrix(1.45, 0.49, -0.32, 0.95, 57.92, 9.06)"> </text><text class="cls-11" transform="translate(58.97 9.4) rotate(22.15) scale(1.53 1)">V</text><text class="cls-11" transform="matrix(1.38, 0.66, -0.43, 0.9, 61.19, 10.32)"> </text><text class="cls-11" transform="matrix(1.36, 0.71, -0.47, 0.89, 62.18, 10.79)"> </text><text class="cls-11" transform="translate(63.16 11.3) rotate(30.94) scale(1.53 1)">E</text><text class="cls-11" transform="translate(64.97 12.39) rotate(34.1) scale(1.53 1)"> </text><text class="cls-11" transform="translate(65.89 13.02) rotate(36.33) scale(1.53 1)"> </text><text class="cls-11" transform="translate(66.77 13.65) rotate(39.36) scale(1.53 1)">L</text><path class="cls-2" d="M36.63,14.48a1.83,1.83,0,0,0-1.4.16,22.85,22.85,0,0,0-5.86,5.48,22.6,22.6,0,0,0-3.06,5c-.12.3-.3,1.06-.4,1.36,0,.06.11-.13.15-.06a22,22,0,0,1,4.14-6.63A21.58,21.58,0,0,1,36.63,14.48Z"/><path class="cls-2" d="M59.26,12.42c-.49-.22-1-.4-1.5-.6l-.44-.17a5.25,5.25,0,0,0-1.56-.29c-.11,0-.38.25-.47.17.26.07.73.09,1,.18l.92.33q.91.35,1.81.74a33,33,0,0,1,3.5,1.8q.58.34,1.14.71c.46.3.9.63,1.34,1s.7.57,1,.88c0,0,.27.21.3.24,2.1,2.44.21-.16-.2-.6a4.38,4.38,0,0,0-.56-.45c-.68-.52-1.4-1-2.13-1.51S62,14,61.33,13.56s-1.12-.67-1.7-1Z"/><path class="cls-2" d="M44.31,11.5A27.5,27.5,0,0,1,55,11.42,18.75,18.75,0,0,0,44.31,11.5Z"/><path class="cls-2" d="M37.29,13.8c.08,0,.21-.07.23,0,.17.18-.23.15-.2.33a35.08,35.08,0,0,1,6.35-2.45,2,2,0,0,0-1,0,23.17,23.17,0,0,0-4,1.37c-.2.1-.33.34-.78.12,0,0-.49.25-.76.39C37.21,13.54,37.28,13.77,37.29,13.8Z"/><path class="cls-2" d="M48.7,10.36a3.31,3.31,0,0,0-1.87.15h0a4.46,4.46,0,0,0,1.87-.15Z"/><path class="cls-2" d="M40.25,12.24c.87-.33,1-.4,1.58-.59,0,0,0,0,0,0-.56.14-1,.32-1.61.51A.08.08,0,0,0,40.25,12.24Z"/><path class="cls-2" d="M46.84,10.54a6,6,0,0,0-1.63.28,4.76,4.76,0,0,0,1.63-.29Z"/><path class="cls-2" d="M48.79,10.38a.62.62,0,0,0,.58,0,.7.7,0,0,0-.58,0Z"/><path class="cls-2" d="M55.62,11.44l-.08.09a.65.65,0,0,0,.15,0s0,0,.07-.07Z"/><path class="cls-2" d="M59.31,12.63h0"/><path class="cls-2" d="M52.38,62.52a12,12,0,0,0,4.19-.67,30.09,30.09,0,0,0,8.06-3.7,3.28,3.28,0,0,0,1.07-.95h0c-1.53.78-2.81,1.6-4.34,2.26a33.41,33.41,0,0,1-8.49,2.69c-.19,0-.32.31-.51.36Z"/><path class="cls-2" d="M69.21,54a23.1,23.1,0,0,0,3.86-4.5,4.39,4.39,0,0,0,.81-1.56c-.45.18-.78.27-1,.59a25.18,25.18,0,0,1-3.67,5.07s0,.13-.07.19Z"/><path class="cls-2" d="M47.77,62.76a19,19,0,0,0-2.71-.41,26.24,26.24,0,0,1-5.23-1.55c-.15-.08-4.38-1.76-4.67-1.58,1.45,1.06,7.34,3,9.22,3.29a27.44,27.44,0,0,0,3.4.24Z"/><path class="cls-2" d="M47.56,62.8a10.4,10.4,0,0,0,2.55-.29c0-.06,1.13.35,1.14.28l-3.17.15Z"/><path class="cls-2" d="M69.22,54a1.3,1.3,0,0,0-1.1,1.1h0a2.55,2.55,0,0,0,1.1-1.1Z"/><path class="cls-2" d="M74.45,46.49c-.62,0-.56.61-.37,1Z"/><path class="cls-2" d="M65.7,57.21a2.88,2.88,0,0,0,1.16-1h0a1.53,1.53,0,0,0-1.16,1Z"/><path class="cls-2" d="M51.58,62.62a1.44,1.44,0,0,0-1-.12c.32.05.69.25,1,.11Z"/><path class="cls-2" d="M68.12,55.07c-.28,0-.5.12-.54.55.32-.09.39-.35.53-.55Z"/><path class="cls-2" d="M52.37,62.53a1,1,0,0,0-.79.08h0a1.24,1.24,0,0,0,.79-.08Z"/><path class="cls-2" d="M66.85,56.23c.13-.06.48-.21.55-.43-.25-.15-.59.27-.54.44Z"/></g></g></svg>