<svg xmlns="http://www.w3.org/2000/svg" viewBox="0 0 100.37 83.01"><defs><style>.cls-1{opacity:0.16;}.cls-2,.cls-4,.cls-5{fill:#ea3f3f;}.cls-3,.cls-7,.cls-8{fill:#b51818;}.cls-4{font-size:4.51px;}.cls-4,.cls-5{font-family:AgencyFB-Bold, Agency FB;font-weight:700;}.cls-5{font-size:3.67px;}.cls-6{fill:#fff;}.cls-7,.cls-8{font-size:7.37px;}.cls-7{font-family:AdobeMingStd-Light-B5pc-H, Adobe Ming Std;}.cls-11,.cls-8{font-family:BaskOldFace, Baskerville Old Face;}.cls-9{letter-spacing:0em;}.cls-10{font-size:13.52px;}.cls-11{font-size:17.09px;}</style></defs><title>資產 11</title><g id="圖層_2" data-name="圖層 2"><g id="圖層_1-2" data-name="圖層 1"><g class="cls-1"><path class="cls-2" d="M53.91,48.41a.56.56,0,0,0-.25-.23,1.72,1.72,0,0,1-.9-1.19A1.54,1.54,0,0,0,52,45.86a.21.21,0,0,1-.08-.24,2.15,2.15,0,0,0,.09-.94,3.33,3.33,0,0,0-.05-.8c-.13-.37-.22-.74-.31-1.11,0-.2-.13-.29-.34-.11s-.37.37-.68.25c-.15-.06-.25-.13-.17-.27.27-.57-.19-.89-.43-1.26a2.49,2.49,0,0,1-.49-.82c0-.17-.1-.21-.27-.13a2.41,2.41,0,0,1-1.12.24c-.2,0-.36.05-.38.29a.42.42,0,0,1-.22.35A7.22,7.22,0,0,0,46,42.62a1.44,1.44,0,0,1-.5.28.32.32,0,0,0-.23.42,3.2,3.2,0,0,1-.14,1.48,1.89,1.89,0,0,1-.77,1,.21.21,0,0,1-.28,0,.76.76,0,0,1-.22-.26c-.41-1.3-1.22-2.45-1.39-3.83a1.47,1.47,0,0,1,0-.57.29.29,0,0,0-.09-.32c-.1-.07-.15.06-.22.11a.79.79,0,0,1-1.06-.44c0-.07,0-.07.18-.19a2.8,2.8,0,0,1-.93-.8.57.57,0,0,0-.64-.28A7.62,7.62,0,0,1,37,39c-.2,0-.33-.13-.37-.34s-.11-.3-.34-.16a.76.76,0,0,1-.71.06,2.09,2.09,0,0,1-1.32-1c-.07-.16-.15-.33-.35-.39a.39.39,0,0,0-.43.07.32.32,0,0,0-.06.42,2.1,2.1,0,0,0,1.06,1.15c.19.09.15.26.14.41,0,.3,0,.34.39.36.67,0,.92-.52,1.34-.82.13.07.07.17.07.25a.64.64,0,0,0,.52.71,1,1,0,0,1,.5.27c.27.27.21.46,0,.79s-.59.41-.61.85c0,.11-.34.3-.52.46a2.83,2.83,0,0,1-1.15.52.43.43,0,0,0-.34.28.38.38,0,0,1-.26.22L32,44.1c-.31.12-.52,0-.56-.32a3.39,3.39,0,0,1-.18-1.06.28.28,0,0,0-.07-.22c-.4-.41-.5-1.05-1-1.38a.74.74,0,0,1-.28-.62,1.23,1.23,0,0,0-.47-.93,2.93,2.93,0,0,1-.47-.73s0-.11-.06-.14a3.32,3.32,0,0,1-.71-1.82.85.85,0,0,1,0-.48,4.49,4.49,0,0,0,.5-1.81c0-.34-.25-.51-.53-.3a.67.67,0,0,1-1,0c-.15-.13-.34-.2-.47.07,0,0-.1.07-.16.09a1.73,1.73,0,0,1-1-.53c-.07-.15-.1-.33-.28-.4,0,0-.05,0,0-.05.16-.55-.28-1.1,0-1.66a.4.4,0,0,1,.62-.09,1.15,1.15,0,0,0,1.51.1,1.33,1.33,0,0,1,1.49,0,2.66,2.66,0,0,0,1.57.25.48.48,0,0,0,.46-.36.49.49,0,0,0-.24-.53l-.16-.1c-.06,0-.15-.09-.12-.18s.14-.08.2,0c.36.18.8.08,1.13.35,0,0,0,0,.07,0,.57-.11.86.37,1.25.63a.26.26,0,0,0,.37,0c.14-.12.24-.08.31.06a.89.89,0,0,0,.37.43c.06,0,.1.12,0,.15-.3.14-.23.47-.37.69a.4.4,0,0,0,.21.6,1.23,1.23,0,0,1,.33.2,1,1,0,0,0,1.06.08.2.2,0,0,0,.14-.24,1.74,1.74,0,0,0-.35-1.16.33.33,0,0,1,0-.4c.06-.13.17-.08.27-.06s.28.09.3-.05a.51.51,0,0,0-.28-.46c-.13-.07-.2,0-.23.18s0,.05-.11.1c.09-.55-.42-.76-.59-1.17,0,0,0,0,0-.07,0-.17-.49-.24-.09-.5.17-.11.23-.36.5-.39s.36-.26.36-.51a.18.18,0,0,0-.17-.21,1.22,1.22,0,0,0-1,.15c-.19.14-.5.31-.48-.22a.47.47,0,0,0-.33-.4A1,1,0,0,1,33,27.2c.19-.14.24.14.43.14,0-.49.47-.63.77-.9s.93,0,1.19.16.61.44,1.05.19a.76.76,0,0,1,.87.09c.24.21.55.06.8,0s.11-.25-.06-.34-.42-.2-.11-.52a.65.65,0,0,0,.18-.78c-.1-.16,0-.28.23-.3a13.64,13.64,0,0,0,2.16-.57c.31-.08.53-.36.93-.26s.43.17.45.45.07.24.28.25.55-.06.63.31c0,.09.14,0,.2,0a2.37,2.37,0,0,0,.48-.25c.18-.09.28-.26.55.09a13,13,0,0,1,1.06,1.69.32.32,0,0,0,.07.08c.4-.32.74.43,1.17.05.13-.11.27.12.4.22s.37.68.85.5a.08.08,0,0,1,.07,0c.44.53.75,0,1.1-.14s.55-.35.84-.47a1,1,0,0,1,.95.23,2.33,2.33,0,0,0,1.16.22c.16-.08.25-.18.15-.37a.57.57,0,0,1,.12-.67.36.36,0,0,1,.53-.12,2.35,2.35,0,0,0,.51.18.64.64,0,0,1,.5.47.49.49,0,0,0,.69.3,1.34,1.34,0,0,1,1.47.38,1,1,0,0,0,.77.2,1.69,1.69,0,0,0,1.15-.38.56.56,0,0,1,.7-.09,4.06,4.06,0,0,0,.87.25.55.55,0,0,0,.59-.39,2.6,2.6,0,0,1,.44-.89.24.24,0,0,0,0-.35c-.29-.31,0-.43.19-.51a1.48,1.48,0,0,1,2.18.91,1.83,1.83,0,0,0,.07.22c.17.51.26,1.06.95,1.19a.71.71,0,0,1,.51.54c.09.37.3.45.64.27l.45-.22c.09,0,.2-.1.29,0a.31.31,0,0,1,.07.36c-.26.36-.25.81-.48,1.17-.11.17-.19.26-.42.22s-.42.08-.38.38a1.09,1.09,0,0,1-.17.87c-.35.48-.44,1.13-1.07,1.42-.2.09,0,.25.05.38a2.19,2.19,0,0,1,.57,1.32.59.59,0,0,1-.41.63l-.19.05c-.67.23-.68.23-.58-.47,0-.24-.2-.47,0-.73.06-.07-.14-.23-.33-.22s-.38-.09-.27-.38-.09-.63-.5-.54A1,1,0,0,0,61,33a.6.6,0,0,1-.46.22c.08-.23,0-.5.25-.67a.14.14,0,0,0,0-.23c-.1-.07-.24-.11-.31,0s-.51.31-.65.59a.36.36,0,0,1-.33.16c-.11,0-.21,0-.23.16a.2.2,0,0,0,.18.22.4.4,0,0,1,.35.35c0,.2.19.13.29,0,.31-.35.63,0,.93,0,.15,0,.07.25-.07.27a1.33,1.33,0,0,0-.73.47c-.24.21-.48.35,0,.69s.34.76.63,1.08a.42.42,0,0,1,0,.4c-.17.2-.26.3.09.35.15,0,0,.13,0,.21a6.3,6.3,0,0,1-.54,1A4.25,4.25,0,0,1,58.9,40a5.91,5.91,0,0,1-1,.39,9.46,9.46,0,0,1-1.06.36c-.25.09-.32.26-.15.48s0,.39-.13.54a.4.4,0,0,1-.46.2.29.29,0,0,1-.24-.23.33.33,0,0,1,.21-.38c.35-.11.26-.37.15-.53a.44.44,0,0,0-.59-.09,2.18,2.18,0,0,0-.46.34c-.39.38-.39.55-.09,1a2.66,2.66,0,0,0,.52.56,1.7,1.7,0,0,1,.56,1.46.7.7,0,0,1-.46.7c-.4.14-.64.51-1,.72-.07,0-.13.15-.23.1s-.08-.15-.07-.24.08-.39-.27-.35c-.13,0-.29-.19-.36-.37a.71.71,0,0,0-.62-.5c-.21,0-.19-.39-.4-.21s-.08.31-.13.47-.11.29-.17.43-.09.26.17.4c.08,0,0,.11,0,.16.14.34.15.71.6.91a1,1,0,0,1,.7,1.17c0,.27.24.45.3.7,0,.1.18.17.1.27s-.21,0-.31,0l-.11,0Z"/><path class="cls-2" d="M55.92,48.51c0-.3.16-.43.5-.35.18,0,.33.06.36-.19s.16-.23.31-.25a.86.86,0,0,0,.62-.41.62.62,0,0,1,.21-.22,2.23,2.23,0,0,0,.86-.76c.12-.16.24-.27.37,0a.75.75,0,0,0,.23.25c.39.3.39.29.08.65a.67.67,0,0,0,0,1c.22.21.24.3-.1.32-.05,0-.15.06-.15.1,0,.51-.6.81-.5,1.36,0,.1,0,.29-.09.25s-.44.25-.64,0a.59.59,0,0,0-.65-.19,1,1,0,0,1-1.06-.56A2.49,2.49,0,0,1,55.92,48.51Z"/><path class="cls-2" d="M65.64,35.4c-.27.42-.79.61-1.06.36-.07.23-.14.45-.21.66s-.12.3-.31.3-.18-.17-.24-.3,0-.6-.52-.41c.26-.41.71-.53,1-.84a1.85,1.85,0,0,1,1.5-.53c.28,0,.3-.3.42-.49s0-.21.12-.28.11-.08.16,0,.18.2.32.06a1.45,1.45,0,0,0,.62-1.22.77.77,0,0,1,.34-.74c.11-.08.24-.09.28,0,.13.44.39.88,0,1.35a2.36,2.36,0,0,0-.27,1.06c-.06.3-.07.48-.47.58s-1,.08-1.31.57C65.87,35.83,65.75,35.51,65.64,35.4Z"/><path class="cls-2" d="M54.84,51a1,1,0,0,1-.94-.29,5.42,5.42,0,0,1-1.16-1.37,5.89,5.89,0,0,0-1.53-1.93,1.32,1.32,0,0,1-.22-.21c-.1-.12-.24-.26-.14-.41s.23.05.34,0c.69,0,.94.6,1.41.9a6.58,6.58,0,0,0,1.31.71h0c.16.27.06.63.36.89s.18.34.43.11.23,0,.26.13.31.29.15.38c-.37.2-.22.51-.26.78a2.65,2.65,0,0,0,0,.27Z"/><path class="cls-2" d="M64,49.13c.36,0,.68-.3,1.08-.11.17.08.29.16.29.36a.81.81,0,0,0,.14.43c.14.23.26.25.45.05a4.78,4.78,0,0,1,.44-.37.45.45,0,0,1,.51-.06,3.15,3.15,0,0,0,.73.26.33.33,0,0,1,.28.36c0,.62,0,1.24,0,1.86,0,.22-.07.36-.28.14S67.2,52,67,52s-.22,0-.28-.07a.19.19,0,0,1,.07-.24c.41-.28.16-.59,0-.77-.42-.38-1-.34-1.51-.64-.48.39-.36-.31-.62-.33.19-.42-.2-.41-.4-.53A.26.26,0,0,1,64,49.13Z"/><path class="cls-2" d="M60.28,49.94c0,.25,0,.5,0,.75s-.1.27-.27.24-.15-.17-.13-.31.08-.4-.17-.53-.09-.2,0-.32a5,5,0,0,0,.32-1,.62.62,0,0,1,.71-.44c.4.06.81.23,1.17-.12a.14.14,0,0,1,.14,0c.07,0,0,.12,0,.17a.58.58,0,0,1-.57.32l-.93,0c-.12,0-.24,0-.3.11a.24.24,0,0,0,.06.28.27.27,0,0,0,.34.07,3.57,3.57,0,0,1,.53-.11c.11,0,.21,0,.26.09s.12.2,0,.29-.18,0-.27,0-.37.08-.29.26.12.45.31.6.12.09.13.13.1.44-.11.51a.38.38,0,0,1-.46-.24c-.1-.25-.21-.48-.32-.72Z"/><path class="cls-2" d="M54.84,51A2.8,2.8,0,0,1,56,51.3a.4.4,0,0,0,.34,0c.49-.25.94.16,1.42,0,0,.23-.2.14-.26.24s0,.06.06.05a1.36,1.36,0,0,1,.7.19,1.4,1.4,0,0,0,.86,0,.38.38,0,0,1,.15,0c.14,0,.37,0,.39.17s-.21.13-.33.16A6.07,6.07,0,0,1,57.79,52c-.7,0-1.36-.27-2.05-.3a4,4,0,0,1-1.2-.41,1,1,0,0,0,.3-.37Z"/><path class="cls-2" d="M60.68,43.65a1.54,1.54,0,0,0,0,.21c0,.15.08.37-.13.37s-.24-.24-.27-.41.11-.12,0-.2c-.46-.45-.13-1-.09-1.44,0-.18.07-.4.31-.35s.44-.06.45.34a.84.84,0,0,1-.18.72c-.17.18,0,.54.25.57a.62.62,0,0,1,.55.78c0,.31-.25.13-.27.1s-.06-.32-.25-.4S60.74,43.93,60.68,43.65Z"/><path class="cls-2" d="M67.79,31.49c0,.12.21.2.05.31s-.16.16-.27.12-.06-.18-.08-.27c-.1-.34,0-.52.37-.66s.24-.47.28-.74-.12-.31.08-.37.23.14.31.24c.36.45.58.54,1,.38.08.1,0,.23,0,.33.14.26,0,.32-.23.35s-.32.05-.4.21-.29.29-.51.13S68,31.47,67.79,31.49Z"/><path class="cls-2" d="M60.83,46.43a.61.61,0,0,1,.56-.82c.47.05.65-.18.74-.57a1.39,1.39,0,0,1,.39,1.14c0,.09-.05.29-.26.17s-.09,0-.08.07.05.33-.16.31a.56.56,0,0,1-.48-.34c0-.11.1-.35-.13-.33s-.52,0-.52.34C60.89,46.41,60.85,46.42,60.83,46.43Z"/><path class="cls-2" d="M45,45.86c0-.07,0-.18.05-.3s-.06-.33.1-.37.26.13.35.25a4.82,4.82,0,0,1,.28.5.41.41,0,0,1,0,.53.46.46,0,0,1-.46.14c-.21-.07-.21-.27-.25-.44S45.06,46,45,45.86Z"/><path class="cls-2" d="M61,45.14c.11-.13,0-.16-.06-.2-.29-.1-.15-.36-.09-.48s.28,0,.36.07a.49.49,0,0,0,.39.2c0,.19.25.31.17.48s-.3.15-.45.23S61,45.35,61,45.14Z"/><path class="cls-2" d="M60.08,40a1.27,1.27,0,0,1,.38-.75.19.19,0,0,1,.24-.05.19.19,0,0,1,.08.23,5.25,5.25,0,0,1-.23.73c0,.11-.07.33-.24.28S60.1,40.18,60.08,40Z"/></g><path class="cls-3" d="M54.07,1.31A2.46,2.46,0,0,1,56.33.66,34,34,0,0,1,69,6.3a40.22,40.22,0,0,1,8.12,7.1c.39.47.74,1,1.1,1.46a1.44,1.44,0,0,1,.14.61A38.92,38.92,0,0,0,67.45,6.19C63.36,3.78,59.1,1.72,54.07,1.31Z"/><path class="cls-3" d="M22.1,13A50.73,50.73,0,0,0,13,29.85a7.86,7.86,0,0,1,.43-3.77,58.21,58.21,0,0,1,3.32-7.42,2.4,2.4,0,0,1,1.75-1.5c.28,0,.32-.35.35-.6h0l1.85-2.39-.1-.1-.7.37C20.37,13.4,21.49,13.66,22.1,13Z"/><path class="cls-3" d="M18.83,16.56l0,0,0,0Z"/><path class="cls-3" d="M64.17,72.72a14,14,0,0,1-5.84,2.45,37.27,37.27,0,0,1-13,.69,4.52,4.52,0,0,1-2.05-.52h0a43.64,43.64,0,0,0,7.26.23,45.13,45.13,0,0,0,12.82-2.65,5.57,5.57,0,0,1,.83-.2Z"/><path class="cls-3" d="M40.47,2a50.83,50.83,0,0,0-16.1,8.74A27.84,27.84,0,0,1,40.47,2Z"/><path class="cls-3" d="M36.47,73.42a23,23,0,0,1-8.14-3.2,8.36,8.36,0,0,1-2.16-1.79,2.5,2.5,0,0,1,1.75.42,36.19,36.19,0,0,0,8.32,4.37c.09,0,.15.15.23.22Z"/><path class="cls-3" d="M70.25,69.56c.83-1.15,2.22-1.62,3.2-2.63,2-2,3.91-3.7,5.47-6.15.14-.23,3.47-5.31,4-5.28-1.11,2.59-6.21,9.55-8.44,11.34a14.37,14.37,0,0,1-4.21,2.7Z"/><path class="cls-3" d="M52.61.56c-.13,0-.36,0-.38.1-.12.49.45.1.53.46a46,46,0,0,0-11.24.59c.44-.42,1-.33,1.5-.41A30.36,30.36,0,0,1,49.94.64c.37,0,1.06.49,1.26-.41a9.69,9.69,0,0,1,1.41.11Z"/><path class="cls-3" d="M70.25,69.56a13,13,0,0,1-2.74,2c-.05-.09-.12-.39-.17-.47,1-.51,2-.6,2.93-1.11Z"/><path class="cls-3" d="M33.14,3.69A4.67,4.67,0,0,1,36,2.41h0a6.28,6.28,0,0,1-2.91,1.27Z"/><path class="cls-3" d="M47.22.34,44.43.51V.44L47.19.08Z"/><path class="cls-3" d="M36,2.41a8.17,8.17,0,0,1,2.64-.81A6.44,6.44,0,0,1,36,2.4Z"/><path class="cls-3" d="M36.46,73.43a4.56,4.56,0,0,1,2.19.72h0a2.7,2.7,0,0,1-2.19-.72Z"/><path class="cls-3" d="M24.43,66.86c.58.12.79.62,1.06,1-.16-.15-.36-.25-.52-.4S24.64,67.06,24.43,66.86Z"/><path class="cls-3" d="M43.29,75.34a2.84,2.84,0,0,1-2.18-.51h0a7.73,7.73,0,0,1,2.18.51Z"/><path class="cls-3" d="M65.26,72.25c.27-.53.84-.41,1.27-.6a1.5,1.5,0,0,1-1.28.58Z"/><path class="cls-3" d="M38.65,74.15c.37,0,.77,0,1.08.36-.28.26-.92-.18-1.07-.37Z"/><path class="cls-3" d="M33.13,3.68a1,1,0,0,1-.83.57,1.07,1.07,0,0,1,.85-.56Z"/><path class="cls-3" d="M22.78,11.15l-.24.17c0-.05-.07-.13-.05-.15a.62.62,0,0,1,.23-.19C22.77,11,22.75,11.08,22.78,11.15Z"/><path class="cls-3" d="M23.52,11.18c.08,0,.11.15.16.18s-.1.17-.24.18-.09-.07-.14-.1Z"/><path class="cls-3" d="M18.8,16.56c-.12,0-.26,0-.29-.14s.08-.13.11-.13S18.8,16.43,18.8,16.56Z"/><polygon class="cls-3" points="18.83 16.56 18.8 16.58 18.8 16.56 18.83 16.56"/><path class="cls-3" d="M64.18,72.73a1.79,1.79,0,0,1,1.08-.48h0a1,1,0,0,1-1.08.48Z"/><path class="cls-3" d="M23,12.3a.14.14,0,0,1-.16-.11A.75.75,0,0,1,23,12a.43.43,0,0,1,.12.09C23.12,12.17,23,12.22,23,12.3Z"/><path class="cls-3" d="M41.1,74.83c-.14.18-.65.18-.67-.17a.66.66,0,0,1,.66.19Z"/><path class="cls-3" d="M27.86,70.52a33.61,33.61,0,0,1-7.27-5.27,5.79,5.79,0,0,1-1.33-2,2.5,2.5,0,0,1,1.61.78c2.23,2.22,3.79,4.5,6.54,6.1.08,0,.47.38.43.33Z"/><path class="cls-3" d="M78.51,64.07a11.71,11.71,0,0,1-1.8,2.75l-.25-.18c.68-.86,1.46-1.52,2.14-2.38Z"/><path class="cls-3" d="M47.34,77.4a4.56,4.56,0,0,1,2.31.08v0a3.56,3.56,0,0,1-2.31-.08Z"/><path class="cls-3" d="M34,74.47c.59,0,.93.37,1.31.69Z"/><path class="cls-3" d="M54.43,77.31a4,4,0,0,1-2.24.12v0a7.73,7.73,0,0,1,2.24-.13Z"/><path class="cls-3" d="M74.65,68.18c.11-.58.69-.63,1.05-.93a2.23,2.23,0,0,1-1.07.92Z"/><path class="cls-3" d="M49.65,77.48a1.4,1.4,0,0,1,1.14,0c-.42.24-.77,0-1.13-.06Z"/><path class="cls-3" d="M73.75,68.95a1.79,1.79,0,0,1,.9-.76h0a1.73,1.73,0,0,1-.9.76Z"/><path class="cls-3" d="M52.19,77.44a.7.7,0,0,1-.69,0,.66.66,0,0,1,.69,0Z"/><path class="cls-3" d="M81.62,54.32"/><path class="cls-3" d="M84.51,50.42a8.36,8.36,0,0,1-.82,3.18l-.29-.09c.37-1,.83-2,1.27-2.94Z"/><path class="cls-3" d="M82.63,55.77c-.16-.57.34-.87.54-1.3a2.23,2.23,0,0,1-.56,1.3Z"/><path class="cls-3" d="M78.49,15.92a42.74,42.74,0,0,1,4.38,9.93,2.41,2.41,0,0,0-.08-1.54A28.6,28.6,0,0,0,80.36,18Z"/><path class="cls-3" d="M82.35,22.06c.27.75.57,1.54,1,2.66,0,0,0-.08,0-.1s-.14-.45-.16-.51L83,23.64l-.21-.58c-.07-.19-.12-.38-.19-.57a1.29,1.29,0,0,0-.07-.17l-.06-.12S82.41,22,82.35,22.06Z"/><path class="cls-3" d="M12.62,32.54a3.16,3.16,0,0,1,.12-2.95l-.12,2.95Z"/><text class="cls-4" transform="matrix(1.35, 0.53, -0.36, 0.93, 35.59, 68.94)">J</text><text class="cls-4" transform="matrix(1.38, 0.44, -0.3, 0.95, 38.37, 70)"> </text><text class="cls-4" transform="translate(39.73 70.43) rotate(15.1) scale(1.45 1)"> </text><text class="cls-4" transform="translate(41.14 70.81) rotate(12.61) scale(1.45 1)"> </text><text class="cls-4" transform="matrix(1.43, 0.22, -0.15, 0.99, 42.59, 71.16)">U</text><text class="cls-4" transform="matrix(1.44, 0.12, -0.08, 1, 45.81, 71.61)"> </text><text class="cls-4" transform="translate(47.28 71.72) rotate(2.14) scale(1.45 1)"> </text><text class="cls-4" transform="translate(48.7 71.77) rotate(-0.23) scale(1.45 1)"> </text><text class="cls-4" transform="matrix(1.44, -0.12, 0.08, 1, 50.22, 71.81)">M</text><text class="cls-4" transform="matrix(1.43, -0.23, 0.16, 0.99, 54, 71.45)"> </text><text class="cls-4" transform="matrix(1.42, -0.29, 0.2, 0.98, 55.43, 71.22)"> </text><text class="cls-4" transform="translate(56.83 70.93) rotate(-13.84) scale(1.45 1)"> </text><text class="cls-4" transform="matrix(1.38, -0.44, 0.3, 0.95, 58.27, 70.6)">P</text><text class="cls-4" transform="translate(61.23 69.63) rotate(-21.4) scale(1.45 1)"> </text><text class="cls-4" transform="matrix(1.33, -0.58, 0.4, 0.92, 62.57, 69.1)"> </text><text class="cls-4" transform="matrix(1.3, -0.64, 0.44, 0.9, 63.89, 68.51)"> </text><text class="cls-4" transform="matrix(1.26, -0.71, 0.49, 0.87, 65.22, 67.88)">E</text><text class="cls-4" transform="translate(67.58 66.52) rotate(-32.2) scale(1.45 1)"> </text><text class="cls-4" transform="matrix(1.19, -0.83, 0.58, 0.82, 68.78, 65.74)"> </text><text class="cls-4" transform="matrix(1.15, -0.88, 0.61, 0.79, 69.94, 64.93)"> </text><text class="cls-4" transform="translate(71.16 64.02) rotate(-41.18) scale(1.45 1)">R</text><text class="cls-4" transform="translate(73.51 61.92) rotate(-44.97) scale(1.45 1)"> </text><text class="cls-5" transform="matrix(0.75, -1.34, 0.87, 0.49, 23.23, 23.56)">O</text><text class="cls-5" transform="translate(24.54 21.28) rotate(-56.74) scale(1.53 1)"> </text><text class="cls-5" transform="translate(25.17 20.32) rotate(-54.28) scale(1.53 1)"> </text><text class="cls-5" transform="matrix(0.98, -1.18, 0.77, 0.64, 25.8, 19.39)">N</text><text class="cls-5" transform="translate(27.51 17.37) rotate(-46.33) scale(1.53 1)"> </text><text class="cls-5" transform="matrix(1.1, -1.06, 0.69, 0.72, 28.3, 16.54)"> </text><text class="cls-5" transform="matrix(1.16, -1, 0.65, 0.76, 29.09, 15.76)">L</text><text class="cls-5" transform="translate(30.64 14.44) rotate(-37.55) scale(1.53 1)"> </text><text class="cls-5" transform="matrix(1.25, -0.88, 0.58, 0.82, 31.55, 13.74)"> </text><text class="cls-5" transform="matrix(1.29, -0.83, 0.54, 0.84, 32.48, 13.08)">I</text><text class="cls-5" transform="matrix(1.32, -0.78, 0.51, 0.86, 33.46, 12.45)"> </text><text class="cls-5" transform="translate(34.42 11.88) rotate(-28.43) scale(1.53 1)"> </text><text class="cls-5" transform="translate(35.39 11.32) rotate(-24.71) scale(1.53 1)">N</text><text class="cls-5" transform="matrix(1.43, -0.55, 0.36, 0.93, 37.83, 10.23)"> </text><text class="cls-5" transform="translate(38.88 9.82) rotate(-18.82) scale(1.53 1)"> </text><text class="cls-5" transform="translate(39.95 9.44) rotate(-15.62) scale(1.53 1)">E</text><text class="cls-5" transform="translate(42.07 8.86) rotate(-12.41) scale(1.53 1)"> </text><text class="cls-5" transform="matrix(1.51, -0.27, 0.18, 0.98, 43.17, 8.62)"> </text><text class="cls-5" transform="translate(44.28 8.42) rotate(-8.1) scale(1.53 1)"> </text><text class="cls-5" transform="matrix(1.52, -0.16, 0.1, 0.99, 45.41, 8.26)"> </text><text class="cls-5" transform="translate(46.55 8.14) rotate(-3.77) scale(1.53 1)"> </text><text class="cls-5" transform="translate(47.65 8.05) rotate(-0.7) scale(1.53 1)">T</text><text class="cls-5" transform="matrix(1.53, 0.06, -0.04, 1, 49.82, 8.04)"> </text><text class="cls-5" transform="translate(50.97 8.09) rotate(4.52) scale(1.53 1)"> </text><text class="cls-5" transform="matrix(1.52, 0.21, -0.14, 0.99, 52.09, 8.15)">R</text><text class="cls-5" transform="translate(54.61 8.53) rotate(11.27) scale(1.53 1)"> </text><text class="cls-5" transform="translate(55.74 8.75) rotate(13.37) scale(1.53 1)"> </text><text class="cls-5" transform="translate(56.83 8.99) rotate(16.72) scale(1.53 1)">A</text><text class="cls-5" transform="translate(59.24 9.73) rotate(20.14) scale(1.53 1)"> </text><text class="cls-5" transform="matrix(1.42, 0.58, -0.38, 0.93, 60.3, 10.12)"> </text><text class="cls-5" transform="translate(61.36 10.53) rotate(25.68) scale(1.53 1)">V</text><text class="cls-5" transform="matrix(1.34, 0.74, -0.49, 0.87, 63.56, 11.61)"> </text><text class="cls-5" transform="matrix(1.31, 0.8, -0.52, 0.85, 64.57, 12.17)"> </text><text class="cls-5" transform="matrix(1.26, 0.87, -0.57, 0.82, 65.53, 12.73)">E</text><text class="cls-5" transform="matrix(1.21, 0.93, -0.61, 0.79, 67.31, 13.97)"> </text><text class="cls-5" transform="matrix(1.18, 0.98, -0.64, 0.77, 68.23, 14.68)"> </text><text class="cls-5" transform="matrix(1.12, 1.04, -0.68, 0.73, 69.1, 15.39)">L</text><path class="cls-3" d="M38,14.34a1.89,1.89,0,0,0-1.44.07,23.52,23.52,0,0,0-6.36,5.27,23.26,23.26,0,0,0-3.45,5c-.14.3-.37,1.07-.5,1.37,0,.06.12-.13.16,0a22.69,22.69,0,0,1,4.66-6.56A22.22,22.22,0,0,1,38,14.34Z"/><path class="cls-3" d="M61.42,13.63c-.49-.26-1-.47-1.5-.71l-.44-.2a5.4,5.4,0,0,0-1.58-.4c-.11,0-.41.23-.49.15.26.09.75.14,1,.24l.92.4q.92.41,1.81.88a34,34,0,0,1,3.48,2.07q.57.39,1.13.8c.45.34.89.7,1.32,1.07s.68.63,1,1c0,0,.26.23.29.27,2,2.64.23-.15-.17-.63a4.51,4.51,0,0,0-.55-.49c-.67-.58-1.37-1.16-2.09-1.69s-1.39-1-2.1-1.44-1.11-.76-1.69-1.1Z"/><path class="cls-3" d="M46.12,11.76a28.31,28.31,0,0,1,11,.58A19.31,19.31,0,0,0,46.12,11.76Z"/><path class="cls-3" d="M38.76,13.69c.08,0,.22-.06.24,0,.16.2-.25.14-.23.33a36.12,36.12,0,0,1,6.68-2.12,2,2,0,0,0-1-.08,23.85,23.85,0,0,0-4.16,1.17c-.21.09-.36.33-.81.08,0,0-.52.23-.8.35C38.69,13.41,38.74,13.66,38.76,13.69Z"/><path class="cls-3" d="M50.7,10.86a3.41,3.41,0,0,0-1.93,0h0a4.59,4.59,0,0,0,1.94,0Z"/><path class="cls-3" d="M41.89,12.27c.91-.28,1-.35,1.66-.51,0,0,0,0,0,0-.59.11-1.07.27-1.68.42A.08.08,0,0,0,41.89,12.27Z"/><path class="cls-3" d="M48.77,10.93a6.22,6.22,0,0,0-1.69.19,4.9,4.9,0,0,0,1.7-.2Z"/><path class="cls-3" d="M50.78,10.88a.64.64,0,0,0,.59.09.72.72,0,0,0-.6-.08Z"/><path class="cls-3" d="M57.74,12.4l-.09.09a.66.66,0,0,0,.15,0s0,0,.07-.07Z"/><path class="cls-3" d="M61.46,13.85h0"/><path class="cls-3" d="M51.24,64.7a12.32,12.32,0,0,0,4.34-.43A31,31,0,0,0,64.1,61a3.38,3.38,0,0,0,1.16-.91h0c-1.62.71-3,1.47-4.6,2.06a34.39,34.39,0,0,1-8.89,2.24c-.2,0-.35.3-.54.34Z"/><path class="cls-3" d="M69.07,56.94a23.78,23.78,0,0,0,4.24-4.39A4.52,4.52,0,0,0,74.25,51c-.48.15-.81.23-1,.55a25.92,25.92,0,0,1-4.09,5s-.06.13-.08.2Z"/><path class="cls-3" d="M46.5,64.66a19.57,19.57,0,0,0-2.76-.59,27,27,0,0,1-5.28-1.92c-.15-.09-4.4-2.08-4.71-1.91,1.43,1.18,7.35,3.57,9.27,4a28.25,28.25,0,0,0,3.48.46Z"/><path class="cls-3" d="M46.28,64.68a10.7,10.7,0,0,0,2.63-.14c0-.07,1.14.43,1.15.36l-3.27,0Z"/><path class="cls-3" d="M69.08,56.94A1.33,1.33,0,0,0,67.89,58h0a2.63,2.63,0,0,0,1.2-1.07Z"/><path class="cls-3" d="M74.92,49.59c-.64,0-.62.59-.44,1Z"/><path class="cls-3" d="M65.26,60.06a3,3,0,0,0,1.25-.94h0a1.58,1.58,0,0,0-1.25.94Z"/><path class="cls-3" d="M50.42,64.75a1.49,1.49,0,0,0-1-.18c.33.07.69.29,1,.17Z"/><path class="cls-3" d="M67.89,58c-.29-.07-.52.1-.59.53.33-.07.43-.33.58-.53Z"/><path class="cls-3" d="M51.24,64.71a1,1,0,0,0-.82,0h0a1.28,1.28,0,0,0,.82,0Z"/><path class="cls-3" d="M66.51,59.12c.13-.06.5-.19.59-.41-.25-.17-.63.24-.58.42Z"/><path class="cls-6" d="M85.37,21.84a14.45,14.45,0,0,1,3.72,5.37h0a11.23,11.23,0,0,1-3.72-5.37Z"/><path class="cls-6" d="M97.5,37.89c-1.65-1.44-3.28-2.89-4-4.94h0c1.42,1.6,3.07,3,4,4.94Z"/><path class="cls-6" d="M89.08,27.21c.77.75,1.71,1.4,1.84,2.65-1.24-.65-1.37-1.73-1.79-2.66Z"/><path class="cls-6" d="M93.46,32.95c-.47-.36-1.07-.62-1.22-1.55A2.06,2.06,0,0,1,93.41,33Z"/><path class="cls-3" d="M3.36,58.83,1.69,48.32,0,37.67l0-.32.32,0c8-1.23,15.92-2.35,23.88-3.53s15.94-2.24,23.91-3.29l12-1.59,12-1.66Q84,25.53,95.91,23.71l.27,0,0,.27L99.4,45.09l.06.43-.43.06-24,3.51-24,3.37L27.14,55.67Zm.06-.08,24-3.66,23.88-3.61L75.1,48l23.81-3.31-.37.49L95.68,24l.31.23q-12,1.59-23.91,3.29L60.14,29.3,48.21,31.12Q36.28,33,24.33,34.65c-8,1.09-15.94,2.24-23.91,3.29l.27-.37L2.06,48.1Z"/><text class="cls-7" transform="translate(14.92 50.22) rotate(-7.43) scale(0.94 1)">★</text><text class="cls-8" transform="translate(21.77 49.33) rotate(-7.43) scale(1.17 1)"><tspan class="cls-9" xml:space="preserve">  </tspan><tspan class="cls-10" x="3.69" y="0">A S I A</tspan><tspan x="44.43" y="0" xml:space="preserve">  </tspan></text><text class="cls-7" transform="translate(77.7 42.03) rotate(-7.43) scale(0.94 1)">★</text><text class="cls-11" transform="translate(84.56 41.14) rotate(-7.43) scale(1.17 1)"><tspan xml:space="preserve">  </tspan></text><path class="cls-3" d="M7.65,59.21a3.89,3.89,0,0,1,2.11-.15v0a3,3,0,0,1-2.11.15Z"/><path class="cls-3" d="M14.06,58.43a3.31,3.31,0,0,1-2,.34v0a6.46,6.46,0,0,1,2-.34Z"/><path class="cls-3" d="M9.76,59.06a1.2,1.2,0,0,1,1-.07c-.34.28-.7.11-1,.06Z"/><path class="cls-3" d="M12.06,58.77a.59.59,0,0,1-.63.09.56.56,0,0,1,.62-.07Z"/><path class="cls-6" d="M26,31.82a4.56,4.56,0,0,1,2.28-.38v0A3.56,3.56,0,0,1,26,31.8Z"/><path class="cls-6" d="M33,30.33a4,4,0,0,1-2.17.56v0A7.73,7.73,0,0,1,33,30.35Z"/><path class="cls-6" d="M28.31,31.44a1.4,1.4,0,0,1,1.13-.19c-.37.32-.75.18-1.12.17Z"/><path class="cls-6" d="M30.79,30.89a.7.7,0,0,1-.68.16.66.66,0,0,1,.67-.14Z"/><path class="cls-6" d="M49.3,50.94a6.1,6.1,0,0,1,3.12.14v0a4.76,4.76,0,0,1-3.12-.14Z"/><path class="cls-6" d="M58.87,50.93a5.28,5.28,0,0,1-3,.14v0a10.31,10.31,0,0,1,3-.14Z"/><path class="cls-6" d="M52.42,51.08a1.87,1.87,0,0,1,1.54.07c-.57.33-1,0-1.53-.09Z"/><path class="cls-6" d="M55.85,51.06a.93.93,0,0,1-.94,0,.88.88,0,0,1,.93,0Z"/><path class="cls-6" d="M.71,46.44a9,9,0,0,1,3.07,5l0,0a7,7,0,0,1-3.07-5Z"/><path class="cls-6" d="M10.87,61C9.41,60,8,58.93,7.45,56.67l0,0C8.62,58,10.07,59.07,10.83,61Z"/><path class="cls-6" d="M3.78,51.48c.67.58,1.52.94,1.51,2.49-1.14-.21-1.15-1.53-1.47-2.52Z"/><path class="cls-6" d="M7.45,56.67c-.42-.22-1-.26-1-1.39.74.13.9.72,1,1.42Z"/><path class="cls-6" d="M86,51.34a8.68,8.68,0,0,1,4.75-.91v0A6.78,6.78,0,0,1,86,51.3Z"/><path class="cls-6" d="M100.37,47.8a7.33,7.33,0,0,1-4.46,1.33v0a14.26,14.26,0,0,1,4.46-1.34Z"/><path class="cls-6" d="M90.77,50.43c.7-.32,1.34-.83,2.35-.45-.68.74-1.55.43-2.35.41Z"/><path class="cls-6" d="M95.91,49.13a1.31,1.31,0,0,1-1.4.38,1.25,1.25,0,0,1,1.4-.33Z"/><path class="cls-6" d="M8.9,53.84c-.64.2-1.57-.4-2.43-.83"/><path class="cls-6" d="M34.89,32.05a11.92,11.92,0,0,1-7.08,1v.06a9.33,9.33,0,0,1,7.08-1Z"/><path class="cls-6" d="M13.59,36.25c2-1.07,4-2.11,6.6-1.67v-.07c-2.15.68-4.13,1.75-6.6,1.67Z"/><path class="cls-6" d="M27.81,33c-1,.44-1.94,1.18-3.49.49,1-1.09,2.3-.53,3.5-.43Z"/><path class="cls-6" d="M20.19,34.58a1.77,1.77,0,0,1,2.07-.46,1.72,1.72,0,0,1-2.07.39Z"/><path class="cls-3" d="M87.56,25.92a3.89,3.89,0,0,1-2.11.1v0a3,3,0,0,1,2.11-.1Z"/><path class="cls-3" d="M81.13,26.54a3.31,3.31,0,0,1,2-.29v0a6.46,6.46,0,0,1-2,.29Z"/><path class="cls-3" d="M85.45,26a1.2,1.2,0,0,1-1,0c.35-.27.7-.09,1,0Z"/><path class="cls-3" d="M83.14,26.25a.59.59,0,0,1,.63-.07.56.56,0,0,1-.62.06Z"/><path class="cls-6" d="M48.18,52.38a11.92,11.92,0,0,1-7.08,1v.06a9.33,9.33,0,0,1,7.08-1Z"/><path class="cls-6" d="M26.88,56.57c2-1.07,4-2.11,6.6-1.67v-.07c-2.15.68-4.13,1.75-6.6,1.67Z"/><path class="cls-6" d="M41.1,53.36c-1,.44-1.94,1.18-3.49.49,1-1.09,2.3-.53,3.5-.43Z"/><path class="cls-6" d="M33.47,54.91a1.77,1.77,0,0,1,2.07-.46,1.72,1.72,0,0,1-2.07.39Z"/><path class="cls-6" d="M92.93,25a11.92,11.92,0,0,1-7.13.56v.06A9.33,9.33,0,0,1,92.93,25Z"/><path class="cls-6" d="M71.41,27.89c2-.95,4.1-1.87,6.69-1.27v-.07c-2.18.55-4.23,1.5-6.69,1.27Z"/><path class="cls-6" d="M85.8,25.54c-1,.38-2,1.06-3.52.28,1-1,2.33-.39,3.52-.21Z"/><path class="cls-6" d="M78.1,26.62a1.77,1.77,0,0,1,2.09-.33,1.72,1.72,0,0,1-2.09.27Z"/><path class="cls-6" d="M73.3,49.1a7.09,7.09,0,0,1,4.46-.79v0a5.56,5.56,0,0,1-4.46.79Z"/><path class="cls-6" d="M86.59,45.9a5.66,5.66,0,0,1-4.08,1.23v0c1.31-.5,2.48-1.24,4.08-1.24Z"/><path class="cls-6" d="M77.76,48.31c.61-.31,1.13-.82,2.2-.39-.51.74-1.43.4-2.21.35Z"/><path class="cls-6" d="M82.51,47.14a1,1,0,0,1-1.29.34c.33-.49.78-.44,1.3-.3Z"/><path class="cls-6" d="M93.35,46.28a4.07,4.07,0,0,1,1.53-.94h0a3.16,3.16,0,0,1-1.53.94Z"/><path class="cls-6" d="M97.93,43.2a3.61,3.61,0,0,1-1.42,1h0a7.1,7.1,0,0,1,1.42-1Z"/><path class="cls-6" d="M94.87,45.34c.22-.2.41-.45.75-.46-.2.33-.49.35-.75.45Z"/><path class="cls-6" d="M96.51,44.23c-.11.12-.19.28-.44.31a.58.58,0,0,1,.45-.3Z"/></g></g></svg>