<svg xmlns="http://www.w3.org/2000/svg" viewBox="0 0 100.37 80.59"><defs><style>.cls-1{opacity:0.2;}.cls-2{fill:#f98800;}.cls-3,.cls-4{font-size:4.37px;}.cls-3,.cls-5{fill:#f29949;}.cls-3,.cls-4,.cls-5{font-family:AgencyFB-Bold, Agency FB;font-weight:700;}.cls-4{fill:#f49334;}.cls-5{font-size:3.56px;}.cls-6,.cls-7,.cls-9{font-size:7.49px;fill:#ea7a00;}.cls-6{font-family:AdobeMingStd-Light-B5pc-H, Adobe Ming Std;}.cls-10,.cls-7,.cls-9{font-family:BaskOldFace, Baskerville Old Face;}.cls-7{letter-spacing:0em;}.cls-8{font-size:12.91px;letter-spacing:0em;}.cls-10{font-size:17.37px;}.cls-11{fill:#fff;}</style></defs><title>資產 13</title><g id="圖層_2" data-name="圖層 2"><g id="圖層_1-2" data-name="圖層 1"><g class="cls-1"><path class="cls-2" d="M45,44.78l.67-.44c-.17.54.29,1-.13,1.44-.18.22.28,1.07.61,1.26-.63.8-1,1-1.87.61a1.89,1.89,0,0,0-1.83.17c-.17.12-.19.46-.33.84l-.85-.18c-.41-.08-.84-.11-1.24-.21s-1.1-.32-1.64-.49a15.3,15.3,0,0,0,.58-2.39c0-.36.2-1-.53-1.15-.11,0-.27-.17-.27-.27,0-.92-.84-.89-1.39-1.19-.26-.14-.5-.33-.83-.56,1-.65,1.9,0,2.84-.29l-.23-1a2.15,2.15,0,0,1,.35.18A1,1,0,0,0,40.2,41a1.29,1.29,0,0,1,.6-.29.79.79,0,0,0,.65-.7,1.76,1.76,0,0,1,.34-.56c.4.25.65.42.91.57a8.4,8.4,0,0,0,1.77,1c.58.17,1.16.38,1.73.58a.58.58,0,0,1,.32.2c.11.21-.47,1.12-.63,1.29-.42.46-.78,1-1.16,1.47Z"/><path class="cls-2" d="M49.6,31.43c.11-.13.3-.24.31-.38a1.1,1.1,0,0,1,.41-.88c.18-.14.11-.59.17-1,.27-.13.39-.35-.07-.66a.74.74,0,0,1-.19-.45c-.05-.3-.07-.6-.1-.9-.07-.65.2-.94.86-1a3.19,3.19,0,0,0,.63-.15l-.14-.48c.11-.29.19-.53.28-.76s.13-.56.54-.7a1.46,1.46,0,0,0,.81-.92c.14-.69.51-.83,1.12-.75l.14-.39c.51-.38,1.35.59,1.5-.49.49.14,1,.27,1.43.41a.85.85,0,0,1,.69.71,11.39,11.39,0,0,0,.55,1.64,8.94,8.94,0,0,0-1.3.38.82.82,0,0,0-.46.92c0,.21-.27.51-.49.66A8.78,8.78,0,0,1,55,27a1.9,1.9,0,0,0-1.1,1.66c0,.44,0,.92.64,1.06a3,3,0,0,1,.85.54c-.44.55-.75,1.13-1.46,1.24-.09,0-.18.26-.21.41-.11.56-.19,1.12-.29,1.69-.05.31-.2.45-.56.4a1.26,1.26,0,0,0-.72.14c-.19.1-.3.33-.45.5l.11.12-.83.1c0-.42-.46-.73-.14-1.17,0,0-.12-.17-.18-.27-.38-.58-.76-1.16-1.14-1.75a.75.75,0,0,1,0-.28Z"/><path class="cls-2" d="M33.25,53.35,32.88,53c.32-.31.51-.64.17-.9l1-2.54A.74.74,0,0,0,33,49.21c-.1,0-.27-.05-.41-.1l-.64-.23L31.58,48c.38-.22.73-.44,1.09-.64a.54.54,0,0,1,.28,0l1.53.12a17.42,17.42,0,0,0,2.22.2c1,0,1.85.63,2.8.76a16.19,16.19,0,0,0,2.19.36,1.84,1.84,0,0,1,.61.24,2.45,2.45,0,0,1-.49.48,5,5,0,0,0-2.42,1.85c-.35.64-.4.8,0,1.25a5.67,5.67,0,0,1-.74,1.06,6.74,6.74,0,0,1-1.52,1.07c-.33.16-.79,0-1.17.12a7.58,7.58,0,0,0-1.56.57c-.33.17-.57.13-.75-.24a1.81,1.81,0,0,0-.54-.75c-.53-.34-.56-.4-.11-.84A3.09,3.09,0,0,0,33.25,53.35Z"/><path class="cls-2" d="M61.79,21c-.16.33-.61.64-.23,1a6.52,6.52,0,0,0,1,.71c-.62.4-.54.75,0,1.17a1,1,0,0,1,.27.74c-.07.65.31,1,.72,1.47l-.27.37,1.35.83c-.49.47-.94.91-1.41,1.34-.14.13-.32.22-.46.34a2.61,2.61,0,0,1-1.49.64,14.51,14.51,0,0,0-1.9.43c-.49.12-.86-.18-1.27-.29-.89-.23-.84-.76-.83-1.39a.7.7,0,0,0-.08-.21c-.29-.78-.26-.74.43-1.19A14.85,14.85,0,0,0,59,25.8c.24-.2.5-.37.81-.59,0-.4-.19-.66-.7-.78-.22,0-.55-.4-.52-.57a2.86,2.86,0,0,0-.84-2.08c.42,0,.75,0,1.08.08s.68-.23.8-.55a1.13,1.13,0,0,1,1.49-.67Z"/><path class="cls-2" d="M47.49,35.47l1.44.48c.05,0,.16,0,.16,0,.21.93.68.22,1,.15a8.64,8.64,0,0,0,1-.33c0,.63,1.21.82.66,1.56l.66,1.86-2.37.95a2.79,2.79,0,0,0,1.38,1.65l-.81.91.08.08a4.43,4.43,0,0,0-.61.12,3.64,3.64,0,0,1-2.22,0,8.75,8.75,0,0,0-1.37-.15l.37-1.24c-.53-.27-1.42-.21-1.53-1.23,0,0,.15-.21.13-.23-.47-.42-.07-.94-.19-1.4a1.43,1.43,0,0,0,.78-1.95c.43-.41,1.18.46,1.49-.4Z"/><path class="cls-2" d="M54.87,20.33l.37.48.39-.25.06.27,1.11-.33-.09-.35.95.27c.31-.65,1.12-.53,1.69-.87l-.54.72.14.14.9-.75.25.43c.1-.1.2-.2.31-.29l.52-.39.09.75c.65-.78,1.17-.12,1.72-.07v.17l-1.13.07.81.5-.06.13c-.4-.18-.82-.33-1.2-.54a1.26,1.26,0,0,0-1.76.68c-.13.43-.33.69-.82.45-.07,0-.17-.1-.21-.07-.71.38-1.19-.1-1.76-.4-.25-.13-.67.09-1.06.16.13.46-.05.58-.49.56s-.89-.31-1,.39c-.68-.11-1,.22-1.22.92A1.62,1.62,0,0,1,52,24c-.32.13-.31.28-.37.53s-.27.55-.36.84a2.91,2.91,0,0,0,0,.71c-.09,0-.3,0-.51,0a.78.78,0,0,0-.86.8A7.8,7.8,0,0,0,50,28.37c0,.18.27.33.45.53-.42.09-.45.3-.26.65.07.13,0,.39-.11.55s-.33.53-.58.93c-.29,0-.56-.21-.48-.75l-.14,0a1.1,1.1,0,0,1-1,1,.72.72,0,0,0-.28.19c-1.06,1-1.55.75-2.69-.07.37-.21.71-.42.3-.9-.07-.08.15-.42.22-.6l-.61-.05v-.1l.37-.19c-.62-.26-.37-.78-.38-1.17,0-.17.4-.37.65-.5s.67-.27,1.26-.5l-.46-.18c1.39.2,2-1.26,3-1.53a4.08,4.08,0,0,0,.85-.61,3.64,3.64,0,0,0,.6-1.09c.23-.7.83-.78,1.39-1L51.95,23l2-1.64-.46-.16v-.09h.54Z"/><path class="cls-2" d="M59.23,38.06c.3.61.57,1.11.8,1.64,0,.08-.14.26-.24.38-.34.38-.85.66-.62,1.49-.75-.69-1.49-.44-2.22-.48a6.24,6.24,0,0,1-1.83-.81,2.42,2.42,0,0,0-1-.19,4.56,4.56,0,0,0-.67-.4,1.19,1.19,0,0,1-.86-.81c-.15-.63-.33-1.26-.44-1.91a.57.57,0,0,1,.49-.7c.63-.17,1.22-.45,1.85-.6a2.09,2.09,0,0,1,.84.15A4.1,4.1,0,0,0,56,36c.91,0,1.83,0,2.74.1a.8.8,0,0,1,.57.34C59.58,37,59.93,37.56,59.23,38.06Z"/><path class="cls-2" d="M46.67,47c-.09-.08-.19-.24-.28-.24-.31,0-.59,0-.59-.39a5.85,5.85,0,0,1,.14-.65,4.87,4.87,0,0,0,0-.6l1.17-.42.44.46a.73.73,0,0,1,1-.6c.27,0,.62-.39.93-.6a.63.63,0,0,1,.91.09.63.63,0,0,0,.4.2c.55,0,.6.35.63.75l-.11.06c-.31.12-.85.19-.89.38a2.63,2.63,0,0,0,.11,1.36c.07.23.46.33.68.53a4.52,4.52,0,0,1,.54.61c.22.29.43.59.64.9a1.12,1.12,0,0,0,1.15.48c.22.27.33.5.5.6.55.34,1.14.62,1.7,1a.5.5,0,0,1,.15.47c-.27-.17-.55-.32-.79-.51s-.51-.17-.59.12-.13.7,0,.85c.31.31.38.41,0,.73a3.87,3.87,0,0,0-.66,1.12c-.54-.33-.08-.66,0-.74.33-.25.25-.46.09-.73s-.26-1-.93-1.08c-.08-.71-.86-.63-1.22-1.07s-.81-.31-1.12-.57c-.7-.59-1.54-1.05-1.89-2a1.34,1.34,0,0,0-.53-.64C47.39,46.37,47.38,46.39,46.67,47Z"/><path class="cls-2" d="M36.62,37.24c.65-.15,1.4-.08,1.26-1.06-.4-.11-.62-.37-.23-.85l-1.55.15c.47-.63.75-1.12-.14-1.33l.21-.48-.07-.08-.49.35-.08-.05,1-2.21,1.42-.1.16.17L37,32.37l.21.19h1.68l.12.13-1.24,1.59c.93-.16,1.21.41,1.38,1.1,0,.09.08.23.14.24.72.14.69.88,1,1.31.1.11,0,.38,0,.62a1.42,1.42,0,0,1,.49-.08c.23,0,.55.12.62.28s-.11.45-.25.63a6.59,6.59,0,0,1-.72.68l.56.17c-.47.52-1.09.37-1.67.41a14.93,14.93,0,0,0-1.86.12,19,19,0,0,0-2,.63c.39-.36.71-.72,1.09-1s1,.19,1.28-.41l-2.06-.36C36.26,38.24,37.33,38.27,36.62,37.24Z"/><path class="cls-2" d="M31.37,54.42a6.77,6.77,0,0,1,.09-1,.69.69,0,0,0-.36-.81c-.08-.06-.09-.37,0-.49a3.76,3.76,0,0,0,.73-2.65c0-.1.11-.24.2-.4.32.53.74.33,1.13.32a2.28,2.28,0,0,1,.55.1c-.23.65-.39,1.15-.58,1.65a5.24,5.24,0,0,1-.32.6l-.18,0,.25.55a4.74,4.74,0,0,0-.09.92A1,1,0,0,1,31.37,54.42Z"/><path class="cls-2" d="M51.08,43.16l0-.58a3.59,3.59,0,0,1,3.18-.51l.07.64-.14,0c-.1.2-.18.42-.29.61a2,2,0,0,1-.39.55,2.83,2.83,0,0,1-3.12-.14c-.12-.11-.38-.09-.57-.08-.42,0-.84.09-1.26.11-.09,0-.18-.13-.26-.19Z"/><path class="cls-2" d="M32.11,36.92l.15-.85L33.45,36c.33.07.55.48,1.09.17.3-.17.78.84.57,1.32s-.39.8-1,.76a2.09,2.09,0,0,0-1,.28c-.78.37-.77.39-1.5,0l1.1-1.36Z"/><path class="cls-2" d="M58.68,42.14a2,2,0,0,0-1.59,0c-.72.3-1.52,1-2.41.33-.11-.09-.24-.27-.21-.38s.22-.19.35-.26.38-.11.49-.23c.5-.55.75-.59,1.41-.19a.34.34,0,0,0,.21.05A7.71,7.71,0,0,1,58,41.3a1,1,0,0,1,.64.26C58.76,41.64,58.68,41.91,58.68,42.14Z"/><path class="cls-2" d="M46.09,37.09c-.1.47-.75.58-.36,1.06,0,0-.18.28-.25.27-.79-.14-.54.29-.29.79l-1.49-.35A1.92,1.92,0,0,1,45.07,37C45.34,36.92,45.73,37.06,46.09,37.09Z"/><path class="cls-2" d="M49.15,33.84A1.7,1.7,0,0,0,48,35.35c-1-.09-.84-.95-1-1.41.47-.4.86-.75,1.27-1.08a1.85,1.85,0,0,1,.41-.19c0,.13.06.29,0,.39C48.48,33.47,48.6,33.7,49.15,33.84Z"/><path class="cls-2" d="M47.85,50.08c.58.69.19,1.4.21,2l-.89.32L47,50.56Z"/><path class="cls-2" d="M50.73,53.6l2.47-.17a6.76,6.76,0,0,1-.09,1.1.54.54,0,0,1-.47.24c-.64-.29-1.26-.63-1.88-1Z"/><path class="cls-2" d="M35.28,35.06l.45.77c-.39.51-.79.38-1.13,0L34,36l-.06-.14C34.36,35.6,34.56,34.92,35.28,35.06Z"/><path class="cls-2" d="M50,35.21l-.73-.48c.36-.23.64-.42.93-.6,0,0,.18,0,.19.07a.68.68,0,0,1,0,.37A6.62,6.62,0,0,1,50,35.21Z"/><path class="cls-2" d="M47.5,49.67a2.51,2.51,0,0,1-.16-.79c0-.15.28-.28.44-.41.07.15.23.32.2.46a3.8,3.8,0,0,1-.3.76Z"/></g><path class="cls-2" d="M50.86.9A2.38,2.38,0,0,1,53,.14,33,33,0,0,1,65.54,4.86a39,39,0,0,1,8.27,6.39c.4.43.77.89,1.15,1.34a1.39,1.39,0,0,1,.17.58,37.72,37.72,0,0,0-11-8.33C60,2.75,55.74,1,50.86.9Z"/><path class="cls-2" d="M20.6,14.11a49.17,49.17,0,0,0-7.85,16.79,7.62,7.62,0,0,1,.2-3.68,56.42,56.42,0,0,1,2.78-7.37,2.32,2.32,0,0,1,1.61-1.55c.27,0,.29-.36.3-.6h0l1.65-2.42-.1-.09-.65.4C18.95,14.56,20.05,14.75,20.6,14.11Z"/><path class="cls-2" d="M17.64,17.71l0,0,0,0Z"/><path class="cls-2" d="M64.79,69.4a13.55,13.55,0,0,1-5.51,2.71,36.12,36.12,0,0,1-12.53,1.43,4.38,4.38,0,0,1-2-.39h0a42.3,42.3,0,0,0,7-.2A43.75,43.75,0,0,0,64,69.66a5.4,5.4,0,0,1,.79-.24Z"/><path class="cls-2" d="M37.74,2.34a49.27,49.27,0,0,0-15.06,9.39A27,27,0,0,1,37.74,2.34Z"/><path class="cls-2" d="M38,71.69A22.33,22.33,0,0,1,30,69.07a8.1,8.1,0,0,1-2.2-1.61,2.43,2.43,0,0,1,1.71.3,35.07,35.07,0,0,0,8.3,3.74c.09,0,.16.13.23.2Z"/><path class="cls-2" d="M70.48,66c.74-1.16,2.05-1.7,2.94-2.73A37.69,37.69,0,0,0,78.36,57c.13-.23,3.05-5.34,3.53-5.34-.93,2.57-5.45,9.6-7.51,11.46A13.93,13.93,0,0,1,70.47,66Z"/><path class="cls-2" d="M49.4.27c-.13,0-.35.06-.36.11-.09.48.44.07.54.42A44.55,44.55,0,0,0,38.74,2c.4-.43.95-.38,1.43-.48a29.42,29.42,0,0,1,6.64-1C47.18.5,47.88.91,48,0a9.39,9.39,0,0,1,1.37,0Z"/><path class="cls-2" d="M70.48,66A12.57,12.57,0,0,1,68,68.1c-.05-.08-.14-.37-.19-.45.91-.55,1.86-.69,2.77-1.24Z"/><path class="cls-2" d="M30.74,4.42A4.53,4.53,0,0,1,33.48,3h0a6.08,6.08,0,0,1-2.74,1.4Z"/><path class="cls-2" d="M44.16.36,41.48.69l0-.07L44.12.12Z"/><path class="cls-2" d="M33.48,3A7.92,7.92,0,0,1,36,2.08,6.24,6.24,0,0,1,33.47,3Z"/><path class="cls-2" d="M38,71.7a4.42,4.42,0,0,1,2.16.57h0A2.62,2.62,0,0,1,38,71.69Z"/><path class="cls-2" d="M26,66.05c.57.08.8.55,1.09.94-.16-.14-.36-.22-.53-.35S26.21,66.23,26,66.05Z"/><path class="cls-2" d="M44.73,73.15a2.75,2.75,0,0,1-2.14-.37v0a7.49,7.49,0,0,1,2.14.36Z"/><path class="cls-2" d="M65.81,68.89c.23-.53.79-.45,1.2-.65a1.45,1.45,0,0,1-1.21.64Z"/><path class="cls-2" d="M40.18,72.28a1.35,1.35,0,0,1,1.07.28c-.25.27-.9-.12-1.06-.3Z"/><path class="cls-2" d="M30.73,4.41A.94.94,0,0,1,30,5a1,1,0,0,1,.79-.59Z"/><path class="cls-2" d="M21.15,12.24l-.23.18c-.05,0-.07-.12-.06-.14a.6.6,0,0,1,.21-.2C21.14,12.14,21.12,12.18,21.15,12.24Z"/><path class="cls-2" d="M21.87,12.23c.08,0,.11.14.17.17s-.09.17-.22.18-.09-.06-.14-.09Z"/><path class="cls-2" d="M17.62,17.71c-.12,0-.25.06-.29-.12s.07-.13.1-.14S17.61,17.59,17.62,17.71Z"/><polygon class="cls-2" points="17.64 17.71 17.62 17.73 17.62 17.71 17.64 17.71"/><path class="cls-2" d="M64.8,69.41a1.73,1.73,0,0,1,1-.53h0a1,1,0,0,1-1,.53Z"/><path class="cls-2" d="M21.4,13.35a.14.14,0,0,1-.16-.1.73.73,0,0,1,.17-.21.41.41,0,0,1,.12.08C21.55,13.21,21.45,13.27,21.4,13.35Z"/><path class="cls-2" d="M42.59,72.79c-.13.18-.62.21-.66-.13a.64.64,0,0,1,.65.14Z"/><path class="cls-2" d="M29.52,69.39a32.57,32.57,0,0,1-7.34-4.67,5.61,5.61,0,0,1-1.41-1.89,2.43,2.43,0,0,1,1.61.66c2.29,2,3.93,4.14,6.68,5.52.08,0,.48.34.44.29Z"/><path class="cls-2" d="M78.16,60.2A11.35,11.35,0,0,1,76.58,63l-.25-.16c.61-.87,1.32-1.56,1.93-2.43Z"/><path class="cls-2" d="M48.77,74.91A4.42,4.42,0,0,1,51,74.85v0a3.45,3.45,0,0,1-2.24.06Z"/><path class="cls-2" d="M35.66,72.86c.57-.08.92.31,1.31.59Z"/><path class="cls-2" d="M55.63,74.42a3.83,3.83,0,0,1-2.16.25v0a7.49,7.49,0,0,1,2.16-.25Z"/><path class="cls-2" d="M74.66,64.4c.07-.57.63-.65,1-1a2.16,2.16,0,0,1-1,1Z"/><path class="cls-2" d="M51,74.85a1.35,1.35,0,0,1,1.11,0c-.39.26-.75.07-1.1,0Z"/><path class="cls-2" d="M73.84,65.2c.22-.32.42-.66.82-.79h0a1.67,1.67,0,0,1-.82.79Z"/><path class="cls-2" d="M53.47,74.67a.68.68,0,0,1-.67.06.64.64,0,0,1,.67,0Z"/><path class="cls-2" d="M80.6,50.58"/><path class="cls-2" d="M83.17,46.65a8.11,8.11,0,0,1-.61,3.12l-.28-.07c.3-1,.68-2,1.05-2.92Z"/><path class="cls-2" d="M81.66,51.93c-.18-.55.28-.86.45-1.29a2.16,2.16,0,0,1-.46,1.29Z"/><path class="cls-2" d="M75.33,13.62A41.42,41.42,0,0,1,80.14,23,2.33,2.33,0,0,0,80,21.48a27.72,27.72,0,0,0-2.71-5.94Z"/><path class="cls-2" d="M79.42,19.33c.3.71.64,1.46,1.09,2.52,0,0,0-.08,0-.09s-.16-.43-.18-.48l-.19-.45-.24-.55c-.07-.18-.14-.36-.22-.54l-.08-.16-.07-.12S79.48,19.31,79.42,19.33Z"/><path class="cls-2" d="M12.57,33.53a3.06,3.06,0,0,1-.05-2.86l.05,2.86Z"/><text class="cls-3" transform="translate(36.9 67.41) rotate(17.96) scale(1.45 1)">J</text><text class="cls-3" transform="matrix(1.41, 0.35, -0.24, 0.97, 39.68, 68.28)"> </text><text class="cls-3" transform="matrix(1.42, 0.29, -0.2, 0.98, 41.02, 68.62)"> </text><text class="cls-3" transform="translate(42.38 68.9) rotate(9.17) scale(1.45 1)"> </text><text class="cls-3" transform="matrix(1.44, 0.13, -0.09, 1, 43.86, 69.16)">U</text><text class="cls-3" transform="translate(47 69.4) rotate(1.08) scale(1.45 1)"> </text><text class="cls-3" transform="matrix(1.45, -0.03, 0.02, 1, 48.4, 69.42)"> </text><text class="cls-3" transform="translate(49.8 69.39) rotate(-3.76) scale(1.45 1)"> </text><text class="cls-3" transform="translate(51.27 69.33) rotate(-8.18) scale(1.45 1)">M</text><text class="cls-3" transform="translate(54.92 68.76) rotate(-12.61) scale(1.45 1)"> </text><text class="cls-3" transform="matrix(1.4, -0.38, 0.26, 0.97, 56.28, 68.45)"> </text><text class="cls-3" transform="translate(57.64 68.08) rotate(-17.41) scale(1.45 1)"> </text><text class="cls-3" transform="matrix(1.35, -0.52, 0.36, 0.93, 59.04, 67.66)">P</text><text class="cls-3" transform="translate(61.8 66.56) rotate(-24.93) scale(1.45 1)"> </text><text class="cls-3" transform="translate(63.06 65.97) rotate(-27.28) scale(1.45 1)"> </text><text class="cls-3" transform="translate(64.31 65.33) rotate(-29.63) scale(1.45 1)"> </text><text class="cls-3" transform="matrix(1.21, -0.79, 0.55, 0.84, 65.58, 64.62)">E</text><text class="cls-3" transform="matrix(1.18, -0.84, 0.58, 0.81, 67.79, 63.14)"> </text><text class="cls-3" transform="matrix(1.13, -0.91, 0.63, 0.78, 68.9, 62.34)"> </text><text class="cls-3" transform="translate(69.99 61.46) rotate(-41.01) scale(1.45 1)"> </text><text class="cls-3" transform="translate(71.09 60.53) rotate(-44.76) scale(1.45 1)">R</text><text class="cls-4" transform="matrix(0.96, -1.09, 0.75, 0.66, 73.25, 58.34)"> </text><text class="cls-5" transform="translate(22.3 24.23) rotate(-64.23) scale(1.53 1)">O</text><text class="cls-5" transform="matrix(0.76, -1.33, 0.87, 0.5, 23.43, 21.94)"> </text><text class="cls-5" transform="translate(23.99 20.97) rotate(-57.73) scale(1.53 1)"> </text><text class="cls-5" transform="matrix(0.91, -1.24, 0.81, 0.59, 24.53, 20.05)">N</text><text class="cls-5" transform="matrix(0.99, -1.17, 0.76, 0.65, 26.09, 17.98)"> </text><text class="cls-5" transform="matrix(1.04, -1.13, 0.74, 0.68, 26.8, 17.13)"> </text><text class="cls-5" transform="translate(27.52 16.33) rotate(-44.18) scale(1.53 1)">L</text><text class="cls-5" transform="matrix(1.16, -1, 0.66, 0.75, 28.94, 14.97)"> </text><text class="cls-5" transform="matrix(1.2, -0.96, 0.62, 0.78, 29.78, 14.24)"> </text><text class="cls-5" transform="translate(30.64 13.55) rotate(-36.37) scale(1.53 1)">I</text><text class="cls-5" transform="translate(31.53 12.89) rotate(-34.12) scale(1.53 1)"> </text><text class="cls-5" transform="matrix(1.3, -0.81, 0.53, 0.85, 32.44, 12.27)"> </text><text class="cls-5" transform="translate(33.36 11.67) rotate(-28.16) scale(1.53 1)">N</text><text class="cls-5" transform="translate(35.63 10.48) rotate(-24.49) scale(1.53 1)"> </text><text class="cls-5" transform="translate(36.65 10.02) rotate(-22.26) scale(1.53 1)"> </text><text class="cls-5" transform="translate(37.65 9.59) rotate(-19.06) scale(1.53 1)">E</text><text class="cls-5" transform="matrix(1.47, -0.42, 0.27, 0.96, 39.65, 8.91)"> </text><text class="cls-5" transform="translate(40.7 8.61) rotate(-13.75) scale(1.53 1)"> </text><text class="cls-5" transform="translate(41.79 8.35) rotate(-11.54) scale(1.53 1)"> </text><text class="cls-5" transform="translate(42.85 8.13) rotate(-9.42) scale(1.53 1)"> </text><text class="cls-5" transform="translate(43.94 7.95) rotate(-7.26) scale(1.53 1)"> </text><text class="cls-5" transform="translate(45.03 7.8) rotate(-4.14) scale(1.53 1)">T</text><text class="cls-5" transform="translate(47.12 7.66) rotate(-1.06) scale(1.53 1)"> </text><text class="cls-5" transform="matrix(1.53, 0.03, -0.02, 1, 48.21, 7.64)"> </text><text class="cls-5" transform="matrix(1.53, 0.12, -0.08, 1, 49.3, 7.63)">R</text><text class="cls-5" transform="matrix(1.52, 0.21, -0.14, 0.99, 51.77, 7.84)"> </text><text class="cls-5" transform="matrix(1.51, 0.26, -0.17, 0.99, 52.87, 7.99)"> </text><text class="cls-5" transform="matrix(1.49, 0.35, -0.23, 0.97, 53.94, 8.16)">A</text><text class="cls-5" transform="translate(56.29 8.73) rotate(16.61) scale(1.53 1)"> </text><text class="cls-5" transform="matrix(1.45, 0.49, -0.32, 0.95, 57.34, 9.05)"> </text><text class="cls-5" transform="translate(58.39 9.38) rotate(22.15) scale(1.53 1)">V</text><text class="cls-5" transform="translate(60.61 10.3) rotate(25.58) scale(1.53 1)"> </text><text class="cls-5" transform="matrix(1.36, 0.71, -0.47, 0.89, 61.59, 10.77)"> </text><text class="cls-5" transform="translate(62.58 11.27) rotate(30.94) scale(1.53 1)">E</text><text class="cls-5" transform="translate(64.38 12.37) rotate(34.1) scale(1.53 1)"> </text><text class="cls-5" transform="translate(65.3 12.99) rotate(36.33) scale(1.53 1)"> </text><text class="cls-5" transform="matrix(1.18, 0.97, -0.63, 0.77, 66.17, 13.62)">L</text><path class="cls-2" d="M36.1,14.45a1.83,1.83,0,0,0-1.39.16,22.8,22.8,0,0,0-5.84,5.47,22.55,22.55,0,0,0-3.05,5c-.12.3-.3,1.05-.4,1.35,0,.06.11-.13.15-.06a22,22,0,0,1,4.13-6.62A21.54,21.54,0,0,1,36.1,14.45Z"/><path class="cls-2" d="M58.69,12.39c-.49-.22-1-.4-1.49-.6l-.43-.17a5.24,5.24,0,0,0-1.55-.29c-.11,0-.38.25-.46.17.26.07.73.09,1,.18l.91.33q.91.35,1.8.74a33,33,0,0,1,3.49,1.8q.58.34,1.14.71c.46.3.9.62,1.34,1s.7.57,1,.88c0,0,.27.21.3.24,2.1,2.44.21-.16-.2-.6a4.37,4.37,0,0,0-.56-.45c-.68-.52-1.4-1-2.12-1.51s-1.4-.86-2.11-1.28-1.12-.67-1.7-1Z"/><path class="cls-2" d="M43.77,11.47a27.44,27.44,0,0,1,10.69-.08A18.72,18.72,0,0,0,43.77,11.47Z"/><path class="cls-2" d="M36.76,13.78c.08,0,.21-.07.23,0,.16.18-.23.15-.2.33a35,35,0,0,1,6.34-2.44,1.94,1.94,0,0,0-1,0,23.12,23.12,0,0,0-4,1.37c-.2.1-.33.34-.78.12,0,0-.49.25-.76.39C36.68,13.51,36.74,13.74,36.76,13.78Z"/><path class="cls-2" d="M48.14,10.34a3.3,3.3,0,0,0-1.87.15h0a4.45,4.45,0,0,0,1.87-.15Z"/><path class="cls-2" d="M39.71,12.22c.87-.33,1-.4,1.58-.59,0,0,0,0,0,0-.56.14-1,.32-1.61.51A.08.08,0,0,0,39.71,12.22Z"/><path class="cls-2" d="M46.28,10.52a6,6,0,0,0-1.63.28,4.75,4.75,0,0,0,1.63-.29Z"/><path class="cls-2" d="M48.23,10.36a.62.62,0,0,0,.58,0,.7.7,0,0,0-.58,0Z"/><path class="cls-2" d="M55.05,11.42l-.08.09a.64.64,0,0,0,.15,0s0,0,.07-.07Z"/><path class="cls-2" d="M58.73,12.6h0"/><path class="cls-2" d="M51.81,62.39A11.94,11.94,0,0,0,56,61.73,30,30,0,0,0,64,58a3.27,3.27,0,0,0,1.07-.95h0c-1.53.78-2.8,1.6-4.33,2.26A33.34,33.34,0,0,1,52.31,62c-.19,0-.32.31-.51.36Z"/><path class="cls-2" d="M68.61,53.85a23.05,23.05,0,0,0,3.85-4.49,4.38,4.38,0,0,0,.81-1.55c-.45.18-.77.27-1,.59a25.13,25.13,0,0,1-3.66,5.06s0,.13-.07.19Z"/><path class="cls-2" d="M47.22,62.63a19,19,0,0,0-2.71-.41,26.19,26.19,0,0,1-5.22-1.55c-.15-.08-4.37-1.75-4.66-1.58,1.45,1.05,7.32,3,9.2,3.29a27.38,27.38,0,0,0,3.39.24Z"/><path class="cls-2" d="M47,62.67a10.37,10.37,0,0,0,2.54-.29c0-.06,1.13.35,1.14.28l-3.17.15Z"/><path class="cls-2" d="M68.62,53.85a1.29,1.29,0,0,0-1.1,1.1h0a2.55,2.55,0,0,0,1.1-1.1Z"/><path class="cls-2" d="M73.84,46.4c-.62,0-.56.6-.37,1Z"/><path class="cls-2" d="M65.11,57.09a2.87,2.87,0,0,0,1.15-1h0a1.53,1.53,0,0,0-1.15,1Z"/><path class="cls-2" d="M51,62.49a1.44,1.44,0,0,0-1-.12c.32.05.69.24,1,.11Z"/><path class="cls-2" d="M67.52,55c-.28,0-.5.12-.54.54.32-.09.39-.35.53-.55Z"/><path class="cls-2" d="M51.81,62.41a1,1,0,0,0-.79.08h0a1.24,1.24,0,0,0,.79-.08Z"/><path class="cls-2" d="M66.26,56.11c.13-.06.48-.21.55-.43-.25-.15-.59.27-.54.44Z"/><path class="cls-2" d="M3.26,56.82,1.65,46.63,0,36.31,0,36l.32,0C8,34.75,15.75,33.67,23.47,32.52s15.45-2.17,23.18-3.18l11.6-1.53,11.59-1.6Q81.41,24.54,93,22.78l.27,0,0,.27L96.37,43.5l.06.43L96,44l-23.25,3.4L49.49,50.66,26.32,53.76Zm.06-.08L26.6,53.19l23.15-3.5L72.8,46.34l23.08-3.21-.37.49L92.75,23.09l.31.23q-11.6,1.54-23.18,3.18L58.3,28.2,46.74,30Q35.18,31.76,23.59,33.4C15.87,34.46,8.15,35.57.41,36.58l.27-.37L2,46.41Z"/><text class="cls-6" transform="matrix(0.93, -0.13, 0.14, 0.99, 7.25, 50.94)">★</text><text class="cls-7" transform="translate(14.21 49.95) rotate(-8.09) scale(0.9 1)"><tspan xml:space="preserve">  </tspan><tspan class="cls-8" x="3.75" y="0">E U R O P E</tspan></text><text class="cls-9" transform="translate(78.34 40.83) rotate(-8.09) scale(1.17 1)"><tspan xml:space="preserve">  </tspan></text><text class="cls-6" transform="matrix(0.93, -0.13, 0.14, 0.99, 82.69, 40.21)">★</text><text class="cls-10" transform="translate(89.65 39.22) rotate(-8.09) scale(1.17 1)"><tspan class="cls-2"> </tspan><tspan x="4.34" y="0"> </tspan></text><path class="cls-2" d="M3.78,55.71a3.77,3.77,0,0,1,2-.06v0a3,3,0,0,1-2,.06Z"/><path class="cls-2" d="M10,55.22a3.21,3.21,0,0,1-2,.25v0a6.26,6.26,0,0,1,2-.25Z"/><path class="cls-2" d="M5.83,55.65a1.16,1.16,0,0,1,1,0c-.34.26-.68.07-1,0Z"/><path class="cls-2" d="M8.07,55.47a.57.57,0,0,1-.61.06.54.54,0,0,1,.61,0Z"/><path class="cls-11" d="M25.66,29.65a4.42,4.42,0,0,1,2.22-.27v0a3.45,3.45,0,0,1-2.22.27Z"/><path class="cls-11" d="M32.44,28.5a3.83,3.83,0,0,1-2.12.46v0a7.49,7.49,0,0,1,2.12-.46Z"/><path class="cls-11" d="M27.89,29.38a1.35,1.35,0,0,1,1.1-.13c-.37.3-.74.15-1.09.12Z"/><path class="cls-11" d="M30.31,29a.68.68,0,0,1-.66.13.64.64,0,0,1,.66-.11Z"/><path class="cls-11" d="M47.4,49.15a5.92,5.92,0,0,1,3,.27v0a4.61,4.61,0,0,1-3-.27Z"/><path class="cls-11" d="M56.66,49.54a5.11,5.11,0,0,1-2.93,0v0a10,10,0,0,1,2.93,0Z"/><path class="cls-11" d="M50.41,49.42a1.81,1.81,0,0,1,1.49.13c-.57.29-1,0-1.48-.15Z"/><path class="cls-11" d="M53.73,49.54a.9.9,0,0,1-.91,0,.85.85,0,0,1,.9,0Z"/><path class="cls-11" d="M.63,43.73a8.7,8.7,0,0,1,3.13,4.78l0,0A6.82,6.82,0,0,1,.67,43.7Z"/><path class="cls-11" d="M10.94,57.51c-1.44-.94-2.87-1.91-3.45-4.08l0,0c1.22,1.26,2.67,2.2,3.46,4.08Z"/><path class="cls-11" d="M3.76,48.51c.67.54,1.51.86,1.55,2.36-1.11-.17-1.17-1.45-1.5-2.39Z"/><path class="cls-11" d="M7.48,53.42c-.41-.2-1-.22-1-1.31.73.11.9.67,1,1.35Z"/><path class="cls-11" d="M82.37,47.21a8.41,8.41,0,0,1,4.56-1.08v0a6.57,6.57,0,0,1-4.56,1.08Z"/><path class="cls-11" d="M96.12,43.18a7.1,7.1,0,0,1-4.26,1.47v0a13.83,13.83,0,0,1,4.26-1.48Z"/><path class="cls-11" d="M86.94,46.13c.66-.34,1.26-.86,2.25-.53-.63.74-1.49.48-2.25.5Z"/><path class="cls-11" d="M91.86,44.66a1.27,1.27,0,0,1-1.34.42,1.21,1.21,0,0,1,1.34-.38Z"/><path class="cls-11" d="M8.15,50.26c-.62.17-1.51-.45-2.32-.91"/><path class="cls-11" d="M34.19,31.5a11.55,11.55,0,0,1-6.9.66v.06a9,9,0,0,1,6.9-.66Z"/><path class="cls-11" d="M13.39,34.67c2-1,3.94-1.88,6.46-1.34v-.06c-2.11.57-4.07,1.52-6.46,1.34Z"/><path class="cls-11" d="M27.3,32.16c-1,.39-1.93,1.06-3.4.32,1-1,2.25-.42,3.4-.26Z"/><path class="cls-11" d="M19.85,33.33a1.72,1.72,0,0,1,2-.36,1.67,1.67,0,0,1-2,.29Z"/><path class="cls-2" d="M90.78,24.43a3.77,3.77,0,0,1-2,0v0a3,3,0,0,1,2,0Z"/><path class="cls-2" d="M84.52,24.76a3.21,3.21,0,0,1,2-.2v0a6.26,6.26,0,0,1-2,.2Z"/><path class="cls-2" d="M88.73,24.43a1.16,1.16,0,0,1-1,0c.35-.25.68-.06,1,0Z"/><path class="cls-2" d="M86.49,24.56a.57.57,0,0,1,.61,0,.54.54,0,0,1-.61,0Z"/><path class="cls-11" d="M46.25,50.49a11.55,11.55,0,0,1-6.9.66v.06a9,9,0,0,1,6.9-.66Z"/><path class="cls-11" d="M25.44,53.66c2-1,3.94-1.88,6.46-1.34v-.06c-2.11.57-4.07,1.52-6.46,1.34Z"/><path class="cls-11" d="M39.35,51.15c-1,.39-1.93,1.06-3.4.32,1-1,2.25-.42,3.4-.26Z"/><path class="cls-11" d="M31.9,52.32a1.72,1.72,0,0,1,2-.36,1.67,1.67,0,0,1-2,.29Z"/><path class="cls-11" d="M96,23.88a11.55,11.55,0,0,1-6.92.24v.06A9,9,0,0,1,96,23.94Z"/><path class="cls-11" d="M75,25.78c2-.83,4-1.64,6.53-.94v-.06c-2.14.44-4.16,1.27-6.53,1Z"/><path class="cls-11" d="M89.06,24.12c-1,.32-2,.94-3.42.12,1-1,2.27-.28,3.41-.06Z"/><path class="cls-11" d="M81.55,24.84a1.72,1.72,0,0,1,2-.23,1.67,1.67,0,0,1-2,.17Z"/><path class="cls-11" d="M70.1,48.47a6.87,6.87,0,0,1,4.29-1v0a5.39,5.39,0,0,1-4.29,1Z"/><path class="cls-11" d="M82.85,44.83a5.48,5.48,0,0,1-3.9,1.36v0c1.25-.53,2.35-1.3,3.9-1.37Z"/><path class="cls-11" d="M74.39,47.52c.58-.33,1.06-.84,2.12-.47-.46.74-1.37.44-2.12.43Z"/><path class="cls-11" d="M78.94,46.19c-.27.24-.45.62-1.23.39.3-.49.74-.46,1.24-.34Z"/><path class="cls-11" d="M89.37,45.49a15.86,15.86,0,0,1,2.45-2.37v0a12.23,12.23,0,0,1-2.45,2.37Z"/><path class="cls-11" d="M96.85,38A14.84,14.84,0,0,1,94.5,40.4v0A29.44,29.44,0,0,1,96.85,38Z"/><path class="cls-11" d="M91.82,43.11A4.75,4.75,0,0,1,93,41.94a4.48,4.48,0,0,1-1.2,1.15Z"/><path class="cls-11" d="M94.5,40.4a2.5,2.5,0,0,1-.73.75,2.21,2.21,0,0,1,.73-.73Z"/></g></g></svg>