<svg xmlns="http://www.w3.org/2000/svg" width="32" height="31.5" viewBox="0 0 32 31.5">
  <path id="gift_gray" d="M2,31.5a2.134,2.134,0,0,0,2,2.25H14V22.5H2Zm16,2.25H28a2.134,2.134,0,0,0,2-2.25v-9H18Zm12-22.5H27.369A6.748,6.748,0,0,0,28,8.438c0-3.41-2.469-6.187-5.5-6.187-2.6,0-4.281,1.5-6.437,4.8-2.156-3.3-3.837-4.8-6.437-4.8-3.031,0-5.5,2.777-5.5,6.188a6.652,6.652,0,0,0,.631,2.813H2A2.134,2.134,0,0,0,0,13.5v5.625A1.071,1.071,0,0,0,1,20.25H31a1.071,1.071,0,0,0,1-1.125V13.5A2.134,2.134,0,0,0,30,11.25Zm-20.381,0a2.669,2.669,0,0,1-2.5-2.812,2.669,2.669,0,0,1,2.5-2.812c1.244,0,2.163.232,5.381,5.625H9.619Zm12.881,0H17.119c3.212-5.379,4.106-5.625,5.381-5.625A2.669,2.669,0,0,1,25,8.438,2.669,2.669,0,0,1,22.5,11.25Z" transform="translate(0 -2.25)" fill="#a2a2a2"/>
</svg>
