<svg xmlns="http://www.w3.org/2000/svg" viewBox="0 0 99.9 79.88"><defs><style>.cls-1{opacity:0.2;}.cls-12,.cls-13,.cls-2,.cls-3,.cls-4,.cls-5,.cls-7,.cls-8{fill:#6900a0;}.cls-3,.cls-4,.cls-7{font-size:7.43px;}.cls-3,.cls-7{font-family:AdobeMingStd-Light-B5pc-H, Adobe Ming Std;}.cls-4,.cls-5,.cls-8{font-family:BaskOldFace, Baskerville Old Face;}.cls-5{font-size:12.79px;}.cls-6{font-size:6px;}.cls-7{letter-spacing:0em;}.cls-8{font-size:17.21px;}.cls-9{fill:#fff;}.cls-10{fill:#160baa;}.cls-11{fill:#980dba;}.cls-12{font-size:4.33px;}.cls-12,.cls-13{font-family:AgencyFB-Bold, Agency FB;font-weight:700;}.cls-13{font-size:3.53px;}</style></defs><title>資產 20</title><g id="圖層_2" data-name="圖層 2"><g id="圖層_1-2" data-name="圖層 1"><g class="cls-1"><path class="cls-2" d="M45,42.29c-.39.39-.75,1.06-1.13,1.08s-.47-.83-.82-1.24A2.46,2.46,0,0,0,41,41.28a6.66,6.66,0,0,0-3.1.82,3.88,3.88,0,0,1-2.51.72c-.51,0-.88.38-1.3.61a1.47,1.47,0,0,1-1.85-.4c-.21-.19-.18-.39,0-.59a1.19,1.19,0,0,0,.17-1.29,27.07,27.07,0,0,0-1.18-3.47c-.23-.45,0-1.15,0-1.73,0-1.48,1.21-1.8,2.22-2.27.77-.36,1.67-.42,2.45-.75a3.65,3.65,0,0,1,1.65-2.3c.49-.3.67-1,1.26-1.32.42-.22.71-.27,1.06.08s.78.48,1.07-.25c.21-.54.45-1.24,1.28-1.19.05,0,.15,0,.16-.05.23-1.28.85-.17,1.24-.16s.78.13,1.18.13.57.26.35.66c-.13.22-.25.45-.38.67-.29.49-.13.84.36,1.13a12.61,12.61,0,0,1,1.27.83c.75.57,1,.52,1.34-.28a18.29,18.29,0,0,0,.34-2.37c.11-.5.15-1.3.55-1.32s.49.79.62,1.25a2,2,0,0,0,.73,1.2c.63.51.49,1.46.73,2.21.15.45.23.86.71,1.08s.69.68,1,1.1a16.72,16.72,0,0,0,1.82,2.59c.11.11.33.09.33.34,0,1.88,0,3.74-1.41,5.3A6.23,6.23,0,0,0,51.8,44.8a.83.83,0,0,1-.83.72,1.28,1.28,0,0,0-.86.34,1,1,0,0,1-1.22.21c-.57-.24-1.24.1-1.88-.18s-1.11-.46-1.08-1.23c0-.31-.13-.61-.46-.63-1.05,0-.89-.59-.57-1.24C45,42.66,45.13,42.53,45,42.29Z"/><path class="cls-2" d="M47.77,23.66c0-.51,0-1,0-1.54s.2-.75.74-.48c.91.46,2,.61,2.5,1.72.07.16.39.22.59.33s.37.2.34.44c-.11,1.07.31,1.62,1.43,1.86.3.06.51.22.43.52s-.26.49-.57.41c-.75-.22-1.55-.25-2.06-1.05-.68-1.08-1.1-1.07-1.87-.13a1,1,0,0,1-1.08.28c-.45-.11-.45-.46-.45-.81,0-.51,0-1,0-1.54Z"/><path class="cls-2" d="M65,43.23c.48.23.61.71.85.93.45.39.36,1.6,1.5,1.14.33-.13.32.33.17.44-.93.68-1.29,2.05-2.67,2.19a.45.45,0,0,0-.28.17c-.73,1-1.92,1.53-2.63,2.57a1.45,1.45,0,0,1-1.89.55c-.5-.2-.6-.39-.24-.78a3.82,3.82,0,0,1,1.37-1,5.08,5.08,0,0,0,2.09-1.6c.23-.29.38-.61.89-.37a.79.79,0,0,0,1-.12c.3-.37-.16-.46-.3-.67a.26.26,0,0,1,.08-.37c.85-.62.62-1.38.27-2.15A1.38,1.38,0,0,1,65,43.23Z"/><path class="cls-2" d="M48.74,47.38a1.67,1.67,0,0,0,1.21.07.3.3,0,0,1,.36.17c.18.46-.14.82-.31,1.19a.89.89,0,0,1-.85.46c-.4,0-.56-.33-.66-.68a5.83,5.83,0,0,1-.17-.83C48.29,47.5,48.39,47.32,48.74,47.38Z"/></g><path class="cls-2" d="M3.24,56.32,1.63,46.23,0,36l0-.32.32,0C8,34.46,15.61,33.38,23.26,32.24s15.3-2.15,23-3.15l11.49-1.52L69.2,26q11.47-1.65,22.93-3.39l.27,0,0,.27,3.06,20.3.06.43-.43.06L72.09,47,49,50.22l-23,3.08Zm.06-.08,23.06-3.52,22.93-3.47,22.85-3.31L95,42.76l-.37.49L91.9,22.9l.31.23q-11.49,1.52-23,3.15L57.77,28,46.31,29.73q-11.46,1.77-22.93,3.4c-7.66,1-15.3,2.15-23,3.15l.27-.37L2,46Z"/><text class="cls-3" transform="translate(7.42 50.33) rotate(-9) scale(0.89 1)">★</text><text class="cls-4" transform="matrix(0.84, -0.13, 0.16, 0.99, 13.95, 49.29)"> </text><text class="cls-5" transform="matrix(0.82, -0.13, 0.16, 0.99, 15.51, 49.04)">O C E A N I A</text><text class="cls-4" transform="translate(79.53 38.9) rotate(-9) scale(1.11 1)"> <tspan class="cls-6" x="1.86" y="0"> </tspan></text><text class="cls-7" transform="translate(83.22 38.32) rotate(-9) scale(0.89 1)">★</text><text class="cls-8" transform="translate(89.74 37.29) rotate(-9) scale(1.11 1)"><tspan xml:space="preserve">  </tspan></text><path class="cls-2" d="M3.75,55.23a3.74,3.74,0,0,1,2-.06v0a2.92,2.92,0,0,1-2,.06Z"/><path class="cls-2" d="M9.94,54.74A3.18,3.18,0,0,1,8,55v0a6.2,6.2,0,0,1,1.94-.25Z"/><path class="cls-2" d="M5.78,55.17a1.15,1.15,0,0,1,1,0c-.34.25-.67.07-1,0Z"/><path class="cls-2" d="M8,55a.57.57,0,0,1-.6.06A.54.54,0,0,1,8,55Z"/><path class="cls-9" d="M25.43,29.4a4.38,4.38,0,0,1,2.2-.27v0a3.42,3.42,0,0,1-2.2.27Z"/><path class="cls-9" d="M32.15,28.27a3.8,3.8,0,0,1-2.1.45v0a7.42,7.42,0,0,1,2.1-.45Z"/><path class="cls-9" d="M27.64,29.14A1.34,1.34,0,0,1,28.72,29c-.36.29-.73.14-1.08.12Z"/><path class="cls-9" d="M30,28.72a.67.67,0,0,1-.66.12.63.63,0,0,1,.65-.11Z"/><path class="cls-9" d="M47,48.72A5.86,5.86,0,0,1,50,49v0a4.57,4.57,0,0,1-3-.27Z"/><path class="cls-9" d="M56.15,49.11a5.07,5.07,0,0,1-2.9,0v0a9.9,9.9,0,0,1,2.9,0Z"/><path class="cls-9" d="M50,49a1.8,1.8,0,0,1,1.47.13c-.56.29-1,0-1.46-.15Z"/><path class="cls-9" d="M53.24,49.12a.9.9,0,0,1-.9,0,.84.84,0,0,1,.89,0Z"/><path class="cls-9" d="M.63,43.36a8.62,8.62,0,0,1,3.11,4.74l0,0a6.76,6.76,0,0,1-3.1-4.74Z"/><path class="cls-9" d="M10.84,57C9.41,56.07,8,55.11,7.42,53l0,0c1.21,1.24,2.64,2.18,3.43,4Z"/><path class="cls-9" d="M3.73,48.09c.66.53,1.49.85,1.53,2.34-1.1-.16-1.16-1.44-1.49-2.37Z"/><path class="cls-9" d="M7.42,53c-.41-.2-.94-.22-1-1.3.72.1.89.66,1,1.34Z"/><path class="cls-9" d="M81.63,46.8a8.33,8.33,0,0,1,4.52-1.07v0a6.51,6.51,0,0,1-4.52,1.07Z"/><path class="cls-9" d="M95.25,42.81A7,7,0,0,1,91,44.28v0a13.7,13.7,0,0,1,4.22-1.47Z"/><path class="cls-9" d="M86.15,45.73c.65-.34,1.25-.85,2.23-.53-.62.74-1.47.48-2.23.49Z"/><path class="cls-9" d="M91,44.28a1.26,1.26,0,0,1-1.32.42A1.2,1.2,0,0,1,91,44.32Z"/><path class="cls-9" d="M8.08,49.82c-.62.17-1.49-.45-2.3-.9"/><path class="cls-9" d="M33.89,31.24a11.45,11.45,0,0,1-6.83.65v.06a9,9,0,0,1,6.83-.65Z"/><path class="cls-9" d="M13.27,34.38c1.95-.94,3.9-1.86,6.4-1.32V33c-2.09.57-4,1.51-6.4,1.33Z"/><path class="cls-9" d="M27.05,31.89c-1,.38-1.91,1-3.37.32,1-1,2.23-.41,3.37-.26Z"/><path class="cls-9" d="M19.67,33.05a1.7,1.7,0,0,1,2-.35,1.65,1.65,0,0,1-2,.29Z"/><path class="cls-9" d="M90,24.23a3.74,3.74,0,0,1-2,0v0a2.92,2.92,0,0,1,2,0Z"/><path class="cls-9" d="M83.76,24.55a3.18,3.18,0,0,1,1.95-.19v0a6.2,6.2,0,0,1-1.95.2Z"/><path class="cls-9" d="M87.93,24.23a1.15,1.15,0,0,1-1,0c.34-.24.68-.05,1,0Z"/><path class="cls-9" d="M85.7,24.36a.57.57,0,0,1,.61,0,.54.54,0,0,1-.6,0Z"/><path class="cls-9" d="M45.83,50.06a11.45,11.45,0,0,1-6.83.65v.06a9,9,0,0,1,6.83-.65Z"/><path class="cls-9" d="M25.21,53.19c1.95-.94,3.9-1.86,6.4-1.32v-.06c-2.09.57-4,1.51-6.4,1.33Z"/><path class="cls-9" d="M39,50.71c-1,.38-1.91,1-3.37.32,1-1,2.23-.41,3.37-.26Z"/><path class="cls-9" d="M31.61,51.87a1.7,1.7,0,0,1,2-.35,1.65,1.65,0,0,1-2,.29Z"/><path class="cls-9" d="M95.11,23.68a11.45,11.45,0,0,1-6.86.24V24a9,9,0,0,1,6.86-.24Z"/><path class="cls-9" d="M74.34,25.57c2-.82,4-1.62,6.47-.94v-.06c-2.12.44-4.12,1.26-6.47.94Z"/><path class="cls-9" d="M88.25,23.92c-1,.32-2,.93-3.39.12,1-1,2.25-.28,3.38-.06Z"/><path class="cls-9" d="M80.81,24.64a1.7,1.7,0,0,1,2-.23,1.65,1.65,0,0,1-2,.17Z"/><path class="cls-9" d="M69.47,48.06a6.81,6.81,0,0,1,4.25-.94v0a5.34,5.34,0,0,1-4.25.94Z"/><path class="cls-9" d="M82.09,44.44a5.43,5.43,0,0,1-3.87,1.35v0a10.49,10.49,0,0,1,3.86-1.36Z"/><path class="cls-9" d="M73.71,47.11c.57-.33,1.05-.83,2.1-.47-.46.73-1.35.44-2.1.43Z"/><path class="cls-9" d="M78.23,45.79c-.27.24-.44.61-1.22.38.3-.48.73-.46,1.23-.34Z"/><path class="cls-9" d="M88.55,45.1A15.72,15.72,0,0,1,91,42.74v0a12.12,12.12,0,0,1-2.43,2.35Z"/><path class="cls-9" d="M96,37.63a14.71,14.71,0,0,1-2.33,2.43v0A29.17,29.17,0,0,1,96,37.65Z"/><path class="cls-9" d="M91,42.74a4.71,4.71,0,0,1,1.2-1.16A4.44,4.44,0,0,1,91,42.73Z"/><path class="cls-9" d="M93.64,40.06a2.48,2.48,0,0,1-.73.74,2.19,2.19,0,0,1,.72-.72Z"/><path class="cls-2" d="M50.85.89A2.36,2.36,0,0,1,53,.14,32.65,32.65,0,0,1,65.4,4.82a38.63,38.63,0,0,1,8.19,6.34c.4.43.76.88,1.14,1.33a1.38,1.38,0,0,1,.17.57A37.38,37.38,0,0,0,64,4.8C59.9,2.73,55.69,1,50.85.89Z"/><path class="cls-2" d="M20.87,14a48.73,48.73,0,0,0-7.78,16.64A7.55,7.55,0,0,1,13.29,27,55.9,55.9,0,0,1,16,19.68a2.3,2.3,0,0,1,1.6-1.53c.27,0,.28-.35.3-.6h0l1.64-2.4-.1-.09-.65.4C19.23,14.43,20.33,14.62,20.87,14Z"/><path class="cls-2" d="M17.94,17.55l0,0,0,0Z"/><path class="cls-2" d="M64.65,68.77a13.42,13.42,0,0,1-5.46,2.69,35.79,35.79,0,0,1-12.42,1.41,4.34,4.34,0,0,1-2-.38h0a41.92,41.92,0,0,0,7-.2A43.35,43.35,0,0,0,63.88,69a5.35,5.35,0,0,1,.78-.24Z"/><path class="cls-2" d="M37.85,2.32a48.82,48.82,0,0,0-14.93,9.3A26.74,26.74,0,0,1,37.85,2.32Z"/><path class="cls-2" d="M38.13,71a22.13,22.13,0,0,1-8-2.6A8,8,0,0,1,28,66.84a2.4,2.4,0,0,1,1.7.3,34.75,34.75,0,0,0,8.23,3.71c.09,0,.15.13.23.2Z"/><path class="cls-2" d="M70.3,65.39c.73-1.15,2-1.68,2.91-2.7a37.35,37.35,0,0,0,4.89-6.21c.13-.22,3-5.29,3.5-5.29-.92,2.55-5.4,9.51-7.44,11.36a13.8,13.8,0,0,1-3.88,2.83Z"/><path class="cls-2" d="M49.4.26c-.12,0-.35.06-.36.11-.09.47.44.07.54.41A44.14,44.14,0,0,0,38.84,2c.4-.43.94-.37,1.42-.48a29.16,29.16,0,0,1,6.58-1C47.2.5,47.89.9,48,0a9.3,9.3,0,0,1,1.36,0Z"/><path class="cls-2" d="M70.3,65.39a12.45,12.45,0,0,1-2.51,2.09c-.05-.08-.13-.36-.19-.44.9-.55,1.85-.68,2.75-1.23Z"/><path class="cls-2" d="M30.92,4.38A4.49,4.49,0,0,1,33.63,3h0A6,6,0,0,1,30.9,4.37Z"/><path class="cls-2" d="M44.22.36,41.56.69l0-.07L44.18.12Z"/><path class="cls-2" d="M33.63,3a7.85,7.85,0,0,1,2.48-.93A6.18,6.18,0,0,1,33.62,3Z"/><path class="cls-2" d="M38.12,71.05a4.38,4.38,0,0,1,2.15.57h0A2.6,2.6,0,0,1,38.13,71Z"/><path class="cls-2" d="M26.22,65.45c.57.08.79.55,1.08.93-.16-.14-.36-.22-.53-.35S26.43,65.63,26.22,65.45Z"/><path class="cls-2" d="M44.78,72.48a2.73,2.73,0,0,1-2.12-.36h0a7.42,7.42,0,0,1,2.12.36Z"/><path class="cls-2" d="M65.67,68.26c.23-.52.78-.44,1.19-.64a1.44,1.44,0,0,1-1.2.63Z"/><path class="cls-2" d="M40.27,71.62a1.34,1.34,0,0,1,1.06.28c-.25.26-.89-.12-1-.29Z"/><path class="cls-2" d="M30.9,4.37a.94.94,0,0,1-.76.6,1,1,0,0,1,.78-.58Z"/><path class="cls-2" d="M21.41,12.13l-.22.17s-.07-.12-.06-.14a.59.59,0,0,1,.21-.2C21.4,12,21.38,12.06,21.41,12.13Z"/><path class="cls-2" d="M22.13,12.12c.08,0,.11.14.16.16s-.09.17-.22.18-.09-.06-.14-.08Z"/><path class="cls-2" d="M17.91,17.55c-.12,0-.25.06-.29-.12s.06-.13.1-.14S17.9,17.43,17.91,17.55Z"/><polygon class="cls-2" points="17.94 17.55 17.92 17.57 17.91 17.55 17.94 17.55"/><path class="cls-2" d="M64.66,68.78a1.72,1.72,0,0,1,1-.52h0a1,1,0,0,1-1,.52Z"/><path class="cls-2" d="M21.66,13.22a.14.14,0,0,1-.16-.1.72.72,0,0,1,.17-.21.41.41,0,0,1,.12.08C21.8,13.09,21.71,13.15,21.66,13.22Z"/><path class="cls-2" d="M42.66,72.12c-.13.18-.61.21-.65-.13a.63.63,0,0,1,.64.14Z"/><path class="cls-2" d="M29.71,68.76a32.28,32.28,0,0,1-7.27-4.63A5.56,5.56,0,0,1,21,62.26a2.4,2.4,0,0,1,1.59.66c2.26,2,3.89,4.1,6.62,5.47.08,0,.47.34.44.29Z"/><path class="cls-2" d="M77.9,59.65a11.24,11.24,0,0,1-1.57,2.74l-.25-.15c.6-.86,1.31-1.55,1.92-2.41Z"/><path class="cls-2" d="M48.78,74.23A4.38,4.38,0,0,1,51,74.17v0a3.42,3.42,0,0,1-2.22.06Z"/><path class="cls-2" d="M35.79,72.19c.57-.08.91.3,1.3.59Z"/><path class="cls-2" d="M55.58,73.74a3.8,3.8,0,0,1-2.14.25v0a7.42,7.42,0,0,1,2.14-.25Z"/><path class="cls-2" d="M74.43,63.82c.07-.57.63-.65,1-1a2.14,2.14,0,0,1-1,.94Z"/><path class="cls-2" d="M51,74.17a1.34,1.34,0,0,1,1.1,0c-.39.26-.74.07-1.09,0Z"/><path class="cls-2" d="M73.62,64.6c.22-.31.42-.66.82-.78h0a1.66,1.66,0,0,1-.82.78Z"/><path class="cls-2" d="M53.44,74a.67.67,0,0,1-.66.06.63.63,0,0,1,.66,0Z"/><path class="cls-10" d="M80.32,50.12"/><path class="cls-10" d="M82.87,46.22a8,8,0,0,1-.61,3.1L82,49.25c.3-1,.68-2,1-2.89Z"/><path class="cls-11" d="M81.37,51.46c-.18-.54.28-.86.44-1.27a2.14,2.14,0,0,1-.46,1.27Z"/><path class="cls-2" d="M75.1,13.49a41,41,0,0,1,4.77,9.26,2.31,2.31,0,0,0-.17-1.48A27.47,27.47,0,0,0,77,15.4Z"/><path class="cls-2" d="M79.15,19.15c.3.7.63,1.44,1.08,2.5,0,0,0-.07,0-.09s-.16-.43-.18-.48l-.19-.45-.23-.54c-.07-.18-.14-.36-.21-.54l-.08-.16-.07-.12S79.21,19.13,79.15,19.15Z"/><path class="cls-2" d="M12.91,33.22a3,3,0,0,1-.05-2.84l.05,2.84Z"/><text class="cls-12" transform="translate(37.07 66.82) rotate(17.96) scale(1.45 1)">J</text><text class="cls-12" transform="translate(39.83 67.68) rotate(14.06) scale(1.45 1)"> </text><text class="cls-12" transform="matrix(1.42, 0.29, -0.2, 0.98, 41.16, 68.01)"> </text><text class="cls-12" transform="translate(42.51 68.28) rotate(9.17) scale(1.45 1)"> </text><text class="cls-12" transform="translate(43.97 68.54) rotate(5.07) scale(1.45 1)">U</text><text class="cls-12" transform="matrix(1.45, 0.03, -0.02, 1, 47.08, 68.78)"> </text><text class="cls-12" transform="translate(48.47 68.81) rotate(-1.34) scale(1.45 1)"> </text><text class="cls-12" transform="matrix(1.45, -0.1, 0.07, 1, 49.86, 68.77)"> </text><text class="cls-12" transform="translate(51.32 68.71) rotate(-8.18) scale(1.45 1)">M</text><text class="cls-12" transform="translate(54.93 68.15) rotate(-12.61) scale(1.45 1)"> </text><text class="cls-12" transform="translate(56.28 67.84) rotate(-15.01) scale(1.45 1)"> </text><text class="cls-12" transform="translate(57.63 67.48) rotate(-17.41) scale(1.45 1)"> </text><text class="cls-12" transform="translate(59.01 67.06) rotate(-21.2) scale(1.45 1)">P</text><text class="cls-12" transform="translate(61.77 65.96) rotate(-24.98) scale(1.45 1)"> </text><text class="cls-12" transform="matrix(1.29, -0.66, 0.46, 0.89, 63.02, 65.38)"> </text><text class="cls-12" transform="matrix(1.26, -0.72, 0.5, 0.87, 64.26, 64.74)"> </text><text class="cls-12" transform="matrix(1.21, -0.79, 0.55, 0.84, 65.49, 64.05)">E</text><text class="cls-12" transform="translate(67.69 62.58) rotate(-35.64) scale(1.45 1)"> </text><text class="cls-12" transform="translate(68.8 61.77) rotate(-38.73) scale(1.45 1)"> </text><text class="cls-12" transform="matrix(1.09, -0.95, 0.66, 0.75, 69.86, 60.92)"> </text><text class="cls-12" transform="matrix(1.03, -1.02, 0.7, 0.71, 70.97, 59.98)">R</text><text class="cls-12" transform="matrix(0.96, -1.09, 0.75, 0.66, 73.1, 57.83)"> </text><text class="cls-13" transform="translate(22.51 23.97) rotate(-64.22) scale(1.53 1)">O</text><text class="cls-13" transform="matrix(0.76, -1.33, 0.87, 0.5, 23.63, 21.7)"> </text><text class="cls-13" transform="matrix(0.82, -1.3, 0.85, 0.53, 24.18, 20.74)"> </text><text class="cls-13" transform="matrix(0.91, -1.24, 0.81, 0.59, 24.72, 19.83)">N</text><text class="cls-13" transform="translate(26.26 17.78) rotate(-49.78) scale(1.53 1)"> </text><text class="cls-13" transform="matrix(1.04, -1.13, 0.74, 0.68, 26.96, 16.95)"> </text><text class="cls-13" transform="matrix(1.1, -1.07, 0.7, 0.72, 27.68, 16.14)">L</text><text class="cls-13" transform="matrix(1.16, -1, 0.66, 0.75, 29.09, 14.79)"> </text><text class="cls-13" transform="translate(29.92 14.07) rotate(-38.67) scale(1.53 1)"> </text><text class="cls-13" transform="matrix(1.23, -0.91, 0.59, 0.8, 30.76, 13.39)">I</text><text class="cls-13" transform="translate(31.66 12.73) rotate(-34.12) scale(1.53 1)"> </text><text class="cls-13" transform="matrix(1.3, -0.81, 0.53, 0.85, 32.56, 12.12)"> </text><text class="cls-13" transform="translate(33.47 11.53) rotate(-28.16) scale(1.53 1)">N</text><text class="cls-13" transform="matrix(1.39, -0.64, 0.41, 0.91, 35.72, 10.35)"> </text><text class="cls-13" transform="matrix(1.42, -0.58, 0.38, 0.93, 36.7, 9.9)"> </text><text class="cls-13" transform="matrix(1.45, -0.5, 0.33, 0.94, 37.7, 9.47)">E</text><text class="cls-13" transform="translate(39.68 8.8) rotate(-15.94) scale(1.53 1)"> </text><text class="cls-13" transform="translate(40.74 8.5) rotate(-13.74) scale(1.53 1)"> </text><text class="cls-13" transform="matrix(1.5, -0.31, 0.2, 0.98, 41.8, 8.24)"> </text><text class="cls-13" transform="translate(42.87 8.02) rotate(-9.42) scale(1.53 1)"> </text><text class="cls-13" transform="translate(43.93 7.84) rotate(-7.3) scale(1.53 1)"> </text><text class="cls-13" transform="translate(45.03 7.69) rotate(-4.14) scale(1.53 1)">T</text><text class="cls-13" transform="translate(47.1 7.55) rotate(-1.06) scale(1.53 1)"> </text><text class="cls-13" transform="matrix(1.53, 0.03, -0.02, 1, 48.17, 7.53)"> </text><text class="cls-13" transform="matrix(1.53, 0.12, -0.08, 1, 49.27, 7.53)">R</text><text class="cls-13" transform="matrix(1.52, 0.21, -0.14, 0.99, 51.71, 7.73)"> </text><text class="cls-13" transform="translate(52.78 7.88) rotate(9.84) scale(1.53 1)"> </text><text class="cls-13" transform="matrix(1.49, 0.35, -0.23, 0.97, 53.86, 8.05)">A</text><text class="cls-13" transform="translate(56.19 8.61) rotate(16.61) scale(1.53 1)"> </text><text class="cls-13" transform="matrix(1.45, 0.49, -0.32, 0.95, 57.24, 8.92)"> </text><text class="cls-13" transform="translate(58.27 9.25) rotate(22.14) scale(1.53 1)">V</text><text class="cls-13" transform="matrix(1.38, 0.66, -0.43, 0.9, 60.45, 10.16)"> </text><text class="cls-13" transform="translate(61.44 10.63) rotate(27.73) scale(1.53 1)"> </text><text class="cls-13" transform="matrix(1.31, 0.79, -0.51, 0.86, 62.4, 11.12)">E</text><text class="cls-13" transform="translate(64.19 12.2) rotate(34.06) scale(1.53 1)"> </text><text class="cls-13" transform="matrix(1.23, 0.91, -0.59, 0.81, 65.1, 12.82)"> </text><text class="cls-13" transform="translate(65.98 13.45) rotate(39.37) scale(1.53 1)">L</text><path class="cls-2" d="M36.23,14.32a1.81,1.81,0,0,0-1.38.15,22.59,22.59,0,0,0-5.79,5.42,22.34,22.34,0,0,0-3,5c-.12.29-.3,1-.4,1.34,0,.06.11-.13.15-.05a21.79,21.79,0,0,1,4.09-6.56A21.34,21.34,0,0,1,36.23,14.32Z"/><path class="cls-2" d="M58.61,12.28c-.49-.22-1-.4-1.48-.59l-.43-.16a5.19,5.19,0,0,0-1.54-.29c-.11,0-.38.25-.46.17.25.07.73.09,1,.18l.91.33q.9.34,1.79.74a32.65,32.65,0,0,1,3.46,1.78q.57.34,1.13.7c.46.3.89.62,1.32,1s.69.57,1,.87c0,0,.27.21.3.24,2.08,2.42.21-.16-.2-.59a4.33,4.33,0,0,0-.55-.44c-.68-.52-1.38-1-2.1-1.49s-1.39-.85-2.09-1.26-1.11-.66-1.68-1Z"/><path class="cls-2" d="M43.82,11.37a27.19,27.19,0,0,1,10.59-.08A18.55,18.55,0,0,0,43.82,11.37Z"/><path class="cls-2" d="M36.88,13.65c.08,0,.21-.07.23,0,.16.18-.23.15-.2.33a34.69,34.69,0,0,1,6.28-2.42,1.93,1.93,0,0,0-1,0,22.91,22.91,0,0,0-3.92,1.36c-.2.1-.33.34-.77.12,0,0-.49.25-.75.38C36.8,13.38,36.86,13.62,36.88,13.65Z"/><path class="cls-2" d="M48.16,10.25a3.27,3.27,0,0,0-1.85.14h0a4.41,4.41,0,0,0,1.85-.15Z"/><path class="cls-2" d="M39.8,12.1c.86-.32,1-.39,1.56-.59,0,0,0,0,0,0-.56.14-1,.32-1.59.5A.08.08,0,0,0,39.8,12.1Z"/><path class="cls-2" d="M46.32,10.42a6,6,0,0,0-1.61.28,4.71,4.71,0,0,0,1.61-.29Z"/><path class="cls-2" d="M48.24,10.26a.61.61,0,0,0,.57,0,.69.69,0,0,0-.58,0Z"/><path class="cls-2" d="M55,11.31l-.08.09a.64.64,0,0,0,.15,0s0,0,.07-.07Z"/><line class="cls-2" x1="58.65" y1="12.49" x2="58.64" y2="12.48"/><path class="cls-2" d="M51.79,61.82a11.83,11.83,0,0,0,4.14-.66,29.75,29.75,0,0,0,8-3.65A3.24,3.24,0,0,0,65,56.57h0c-1.52.77-2.78,1.59-4.29,2.24a33,33,0,0,1-8.4,2.66c-.19,0-.32.3-.5.36Z"/><path class="cls-2" d="M68.44,53.36a22.84,22.84,0,0,0,3.82-4.45,4.34,4.34,0,0,0,.8-1.54c-.45.17-.77.27-1,.58a24.9,24.9,0,0,1-3.63,5s0,.13-.07.19Z"/><path class="cls-2" d="M47.24,62.06a18.8,18.8,0,0,0-2.68-.41,26,26,0,0,1-5.17-1.53c-.15-.08-4.33-1.74-4.62-1.56,1.43,1,7.26,3,9.12,3.26a27.13,27.13,0,0,0,3.36.24Z"/><path class="cls-2" d="M47,62.09a10.28,10.28,0,0,0,2.52-.28c0-.06,1.12.34,1.13.28l-3.14.15Z"/><path class="cls-2" d="M68.45,53.36a1.28,1.28,0,0,0-1.09,1.09h0a2.52,2.52,0,0,0,1.09-1.09Z"/><path class="cls-10" d="M73.62,46c-.61,0-.56.6-.36,1Z"/><path class="cls-2" d="M65,56.57a2.84,2.84,0,0,0,1.14-1h0a1.52,1.52,0,0,0-1.14,1Z"/><path class="cls-2" d="M51,61.92a1.43,1.43,0,0,0-1-.12c.32.05.68.24,1,.1Z"/><path class="cls-2" d="M67.36,54.45c-.28,0-.49.12-.54.54.32-.09.39-.34.53-.54Z"/><path class="cls-2" d="M51.79,61.84a1,1,0,0,0-.78.08h0a1.23,1.23,0,0,0,.78-.08Z"/><path class="cls-2" d="M66.11,55.6c.12-.06.47-.21.55-.43-.25-.14-.59.27-.53.43Z"/></g></g></svg>